<?xml version="1.0" encoding="UTF-8"?>
<svg width="11px" height="24px" viewBox="0 0 11 24" version="1.1" xmlns="http://www.w3.org/2000/svg" xmlns:xlink="http://www.w3.org/1999/xlink">
    <!-- Generator: sketchtool 64 (101010) - https://sketch.com -->
    <title>36FDDB28-2C43-4E7E-9F7B-395C455B39C8@3x</title>
    <desc>Created with sketchtool.</desc>
    <defs>
        <polygon id="path-1" points="0.0004 -0.0001 10.619 -0.0001 10.619 23.0059 0.0004 23.0059"></polygon>
    </defs>
    <g id="Girls-Code-III" stroke="none" stroke-width="1" fill="none" fill-rule="evenodd">
        <g id="Index" transform="translate(-469.000000, -5123.000000)">
            <g id="footer" transform="translate(0.000000, 4681.000000)">
                <g id="Group-11">
                    <g transform="translate(423.000000, 441.000000)">
                        <g id="Group-4">
                            <g id="Group-3" transform="translate(46.000000, 1.000000)">
                                <mask id="mask-2" fill="white">
                                    <use xlink:href="#path-1"></use>
                                </mask>
                                <g id="Clip-2"></g>
                                <path d="M2.4094,23.0059 L7.0424,23.0059 L7.0424,11.4049 L10.2744,11.4049 L10.6194,7.5209 L7.0424,7.5209 L7.0424,5.3089 C7.0424,4.3929 7.2254,4.0309 8.1114,4.0309 L10.6194,4.0309 L10.6194,-0.0001 L7.4114,-0.0001 C3.9644,-0.0001 2.4094,1.5179 2.4094,4.4239 L2.4094,7.5209 L0.0004,7.5209 L0.0004,11.4539 L2.4094,11.4539 L2.4094,23.0059 Z" id="Fill-1" fill="#CA00CA" mask="url(#mask-2)"></path>
                            </g>
                        </g>
                    </g>
                </g>
            </g>
        </g>
    </g>
</svg>