<?xml version="1.0" encoding="UTF-8"?>
<svg width="21px" height="21px" viewBox="0 0 21 21" version="1.1" xmlns="http://www.w3.org/2000/svg" xmlns:xlink="http://www.w3.org/1999/xlink">
    <!-- Generator: sketchtool 64 (101010) - https://sketch.com -->
    <title>4E8B73DC-CF87-44C8-A01E-187DFA0222D9@3x</title>
    <desc>Created with sketchtool.</desc>
    <g id="Girls-Code-III" stroke="none" stroke-width="1" fill="none" fill-rule="evenodd">
        <g id="Index" transform="translate(-505.000000, -5125.000000)" fill="#CA00CA">
            <g id="footer" transform="translate(0.000000, 4681.000000)">
                <g id="Group-11">
                    <g transform="translate(423.000000, 441.000000)">
                        <g id="Group-4">
                            <g id="Group-8" transform="translate(82.000000, 3.000000)">
                                <path d="M18.9282,14.6508 C18.8812,15.6688 18.7112,16.2208 18.5692,16.5878 C18.3792,17.0758 18.1542,17.4228 17.7882,17.7888 C17.4232,18.1528 17.0752,18.3798 16.5882,18.5688 C16.2202,18.7118 15.6682,18.8818 14.6512,18.9278 C13.5502,18.9778 13.2212,18.9888 10.4342,18.9888 C7.6482,18.9888 7.3182,18.9778 6.2182,18.9278 C5.2002,18.8818 4.6482,18.7118 4.2812,18.5688 C3.7932,18.3798 3.4462,18.1528 3.0802,17.7888 C2.7152,17.4228 2.4902,17.0758 2.3002,16.5878 C2.1572,16.2208 1.9882,15.6688 1.9412,14.6508 C1.8912,13.5508 1.8802,13.2208 1.8802,10.4348 C1.8802,7.6488 1.8912,7.3178 1.9412,6.2178 C1.9882,5.2008 2.1572,4.6488 2.3002,4.2808 C2.4902,3.7938 2.7152,3.4458 3.0802,3.0808 C3.4462,2.7158 3.7932,2.4898 4.2812,2.2998 C4.6482,2.1568 5.2002,1.9868 6.2182,1.9408 C7.3182,1.8908 7.6492,1.8798 10.4342,1.8798 C13.2202,1.8798 13.5502,1.8908 14.6512,1.9408 C15.6682,1.9868 16.2202,2.1568 16.5882,2.2998 C17.0752,2.4898 17.4232,2.7158 17.7882,3.0808 C18.1542,3.4458 18.3792,3.7938 18.5692,4.2808 C18.7112,4.6488 18.8812,5.2008 18.9282,6.2178 C18.9782,7.3178 18.9892,7.6488 18.9892,10.4348 C18.9892,13.2208 18.9782,13.5508 18.9282,14.6508 M20.8062,6.1318 C20.7552,5.0218 20.5782,4.2628 20.3212,3.5998 C20.0542,2.9138 19.6982,2.3318 19.1172,1.7518 C18.5372,1.1718 17.9552,0.8148 17.2692,0.5478 C16.6062,0.2898 15.8472,0.1138 14.7372,0.0628 C13.6232,0.0118 13.2682,-0.000199999999 10.4342,-0.000199999999 C7.6002,-0.000199999999 7.2452,0.0118 6.1322,0.0628 C5.0222,0.1138 4.2632,0.2898 3.5992,0.5478 C2.9132,0.8148 2.3312,1.1718 1.7512,1.7518 C1.1712,2.3318 0.8152,2.9138 0.5482,3.5998 C0.2892,4.2628 0.1142,5.0218 0.0632,6.1318 C0.0122,7.2458 0.0002,7.6008 0.0002,10.4348 C0.0002,13.2688 0.0122,13.6238 0.0632,14.7368 C0.1142,15.8468 0.2892,16.6058 0.5482,17.2698 C0.8152,17.9558 1.1712,18.5378 1.7512,19.1178 C2.3312,19.6978 2.9132,20.0548 3.5992,20.3208 C4.2632,20.5788 5.0222,20.7548 6.1322,20.8058 C7.2452,20.8568 7.6002,20.8688 10.4342,20.8688 C13.2682,20.8688 13.6232,20.8568 14.7372,20.8058 C15.8472,20.7548 16.6062,20.5788 17.2692,20.3208 C17.9552,20.0548 18.5372,19.6978 19.1172,19.1178 C19.6982,18.5378 20.0542,17.9558 20.3212,17.2698 C20.5782,16.6058 20.7552,15.8468 20.8062,14.7368 C20.8572,13.6238 20.8682,13.2688 20.8682,10.4348 C20.8682,7.6008 20.8572,7.2458 20.8062,6.1318 M10.4341,13.9125 C8.5131,13.9125 6.9561,12.3555 6.9561,10.4345 C6.9561,8.5135 8.5131,6.9565 10.4341,6.9565 C12.3551,6.9565 13.9131,8.5135 13.9131,10.4345 C13.9131,12.3555 12.3551,13.9125 10.4341,13.9125 M10.4341,5.0765 C7.4751,5.0765 5.0771,7.4755 5.0771,10.4345 C5.0771,13.3935 7.4751,15.7925 10.4341,15.7925 C13.3941,15.7925 15.7921,13.3935 15.7921,10.4345 C15.7921,7.4755 13.3941,5.0765 10.4341,5.0765" id="Fill-4"></path>
                                <path d="M16.0044,3.6122 C15.3134,3.6122 14.7524,4.1732 14.7524,4.8642 C14.7524,5.5562 15.3134,6.1162 16.0044,6.1162 C16.6954,6.1162 17.2564,5.5562 17.2564,4.8642 C17.2564,4.1732 16.6954,3.6122 16.0044,3.6122" id="Fill-6"></path>
                            </g>
                        </g>
                    </g>
                </g>
            </g>
        </g>
    </g>
</svg>