<?xml version="1.0" encoding="UTF-8"?>
<svg width="24px" height="24px" viewBox="0 0 24 24" version="1.1" xmlns="http://www.w3.org/2000/svg" xmlns:xlink="http://www.w3.org/1999/xlink">
    <!-- Generator: sketchtool 64 (101010) - https://sketch.com -->
    <title>AA545064-C056-42CF-9BED-7331352E1B22@3x</title>
    <desc>Created with sketchtool.</desc>
    <g id="Girls-Code-III" stroke="none" stroke-width="1" fill="none" fill-rule="evenodd">
        <g id="Index" transform="translate(-548.000000, -5123.000000)" fill="#CA00CA">
            <g id="footer" transform="translate(0.000000, 4681.000000)">
                <g id="Group-11">
                    <g transform="translate(423.000000, 441.000000)">
                        <g id="Group-4">
                            <g id="Group-9" transform="translate(125.000000, 0.000000)">
                                <g id="Group-8" transform="translate(0.000000, 0.782500)">
                                    <polygon id="Fill-1" points="0.472 24 5.38 24 5.38 8.145 0.472 8.145"></polygon>
                                    <path d="M2.902,6.069 C4.505,6.069 5.804,4.758 5.804,3.143 C5.804,1.527 4.505,0.217 2.902,0.217 C1.298,0.217 0,1.527 0,3.143 C0,4.758 1.298,6.069 2.902,6.069" id="Fill-2"></path>
                                    <path d="M13.2247,15.6774 C13.2247,13.4484 14.2507,12.1204 16.2147,12.1204 C18.0197,12.1204 18.8867,13.3954 18.8867,15.6774 L18.8867,23.9994 L23.7717,23.9994 L23.7717,13.9614 C23.7717,9.7144 21.3647,7.6604 18.0027,7.6604 C14.6397,7.6604 13.2247,10.2814 13.2247,10.2814 L13.2247,8.1454 L8.5167,8.1454 L8.5167,23.9994 L13.2247,23.9994 L13.2247,15.6774 Z" id="Fill-5"></path>
                                </g>
                            </g>
                        </g>
                    </g>
                </g>
            </g>
        </g>
    </g>
</svg>