<?xml version="1.0" encoding="UTF-8"?>
<svg width="21px" height="17px" viewBox="0 0 21 17" version="1.1" xmlns="http://www.w3.org/2000/svg" xmlns:xlink="http://www.w3.org/1999/xlink">
    <!-- Generator: sketchtool 64 (101010) - https://sketch.com -->
    <title>3DB90BFE-B26D-48C7-AC1F-8A7FB13FD15A@3x</title>
    <desc>Created with sketchtool.</desc>
    <defs>
        <polygon id="path-1" points="0 0.0003 20.279 0.0003 20.279 16.4803 0 16.4803"></polygon>
    </defs>
    <g id="Girls-Code-III" stroke="none" stroke-width="1" fill="none" fill-rule="evenodd">
        <g id="Index" transform="translate(-423.000000, -5126.000000)">
            <g id="footer" transform="translate(0.000000, 4681.000000)">
                <g id="Group-11">
                    <g transform="translate(423.000000, 441.000000)">
                        <g id="Group-4">
                            <g id="Group-3" transform="translate(0.000000, 4.000000)">
                                <mask id="mask-2" fill="white">
                                    <use xlink:href="#path-1"></use>
                                </mask>
                                <g id="Clip-2"></g>
                                <path d="M0,14.6108 C1.841,15.7918 4.028,16.4808 6.377,16.4808 C14.102,16.4808 18.466,9.9558 18.203,4.1038 C19.016,3.5178 19.721,2.7858 20.279,1.9498 C19.532,2.2808 18.73,2.5048 17.89,2.6048 C18.748,2.0908 19.408,1.2758 19.719,0.3038 C18.914,0.7798 18.023,1.1268 17.077,1.3138 C16.317,0.5048 15.236,-0.0002 14.04,-0.0002 C11.354,-0.0002 9.381,2.5058 9.987,5.1088 C6.529,4.9348 3.464,3.2788 1.412,0.7608 C0.322,2.6318 0.847,5.0778 2.699,6.3158 C2.018,6.2948 1.375,6.1068 0.814,5.7958 C0.77,7.7228 2.15,9.5258 4.151,9.9278 C3.565,10.0878 2.925,10.1238 2.273,9.9988 C2.802,11.6528 4.339,12.8548 6.159,12.8878 C4.411,14.2588 2.207,14.8718 0,14.6108" id="Fill-1" fill="#CA00CA" mask="url(#mask-2)"></path>
                            </g>
                        </g>
                    </g>
                </g>
            </g>
        </g>
    </g>
</svg>