<?xml version="1.0" encoding="UTF-8"?>
<svg width="27px" height="19px" viewBox="0 0 27 19" version="1.1" xmlns="http://www.w3.org/2000/svg" xmlns:xlink="http://www.w3.org/1999/xlink">
    <!-- Generator: sketchtool 64 (101010) - https://sketch.com -->
    <title>E938C66A-C725-4B71-9D9B-6F548E6DDDB0@3x</title>
    <desc>Created with sketchtool.</desc>
    <g id="Girls-Code-III" stroke="none" stroke-width="1" fill="none" fill-rule="evenodd">
        <g id="Index" transform="translate(-592.000000, -5126.000000)" fill="#CA00CA">
            <g id="footer" transform="translate(0.000000, 4681.000000)">
                <g id="Group-11">
                    <g transform="translate(423.000000, 441.000000)">
                        <g id="Group-4">
                            <path d="M179.738968,17.5095165 L179.738968,9.48977302 L186.796085,13.4996448 L179.738968,17.5095165 Z M195.435914,6.96690723 C195.125774,5.79890065 194.211002,4.87955727 193.049398,4.5669521 C190.943858,4 182.500356,4 182.500356,4 C182.500356,4 174.057565,4 171.952025,4.5669521 C170.789709,4.87955727 169.874937,5.79890065 169.564086,6.96690723 C169,9.08338631 169,13.4996448 169,13.4996448 C169,13.4996448 169,17.9159032 169.564086,20.0330928 C169.874937,21.2003889 170.789709,22.1204427 171.952025,22.4323374 C174.057565,23 182.500356,23 182.500356,23 C182.500356,23 190.943858,23 193.049398,22.4323374 C194.211002,22.1204427 195.125774,21.2003889 195.435914,20.0330928 C196,17.9159032 196,13.4996448 196,13.4996448 C196,13.4996448 196,9.08338631 195.435914,6.96690723 L195.435914,6.96690723 Z" id="Fill-1"></path>
                        </g>
                    </g>
                </g>
            </g>
        </g>
    </g>
</svg>