<?xml version="1.0" encoding="UTF-8"?>
<svg width="51px" height="62px" viewBox="0 0 51 52" version="1.1" xmlns="http://www.w3.org/2000/svg" xmlns:xlink="http://www.w3.org/1999/xlink">
    <!-- Generator: sketchtool 64 (101010) - https://sketch.com -->
    <title>01200CCC-00D6-4D6A-8E66-71BF2D173CDB@3x</title>
    <desc>Created with sketchtool.</desc>
    <defs>
        <polygon id="path-1" points="0.00027 0.50814 50.7906 0.50814 50.7906 51.3 0.00027 51.3"></polygon>
        <polygon id="path-3" points="0.00027 0.50814 50.7906 0.50814 50.7906 51.3 0.00027 51.3"></polygon>
    </defs>
    <g id="Girls-Code-III" stroke="none" stroke-width="1" fill="none" fill-rule="evenodd">
        <g id="About" transform="translate(-594.000000, -1902.000000)">
            <g id="Valores" transform="translate(255.000000, 1376.000000)">
                <g id="Resiliencia" transform="translate(339.000000, 526.000000)">
                    <g id="icon/resilience">
                        <g id="Group-15">
                            <path d="M25.39557,23.121 C23.64147,23.121 22.22037,24.543 22.22037,26.2962 C22.22037,28.0503 23.64147,29.4714 25.39557,29.4714 C27.14877,29.4714 28.57077,28.0503 28.57077,26.2962 C28.57077,24.543 27.14877,23.121 25.39557,23.121" id="Fill-1" fill="#5D0F85"></path>
                            <g id="Group-5" transform="translate(0.000000, 0.392220)">
                                <mask id="mask-2" fill="white">
                                    <use xlink:href="#path-1"></use>
                                </mask>
                                <g id="Clip-4"></g>
                                <path d="M25.39557,44.95014 C14.89347,44.95014 6.34977,36.40554 6.34977,25.90344 C6.34977,15.40224 14.89347,6.85764 25.39557,6.85764 C35.89677,6.85764 44.44047,15.40224 44.44047,25.90434 C44.44047,36.40554 35.89677,44.95014 25.39557,44.95014 M25.39557,0.50814 C11.36997,0.50814 0.00027,11.87874 0.00027,25.90434 C0.00027,39.92904 11.36997,51.30054 25.39557,51.30054 C39.42117,51.30054 50.79087,39.92904 50.79087,25.90344 C50.79087,11.87874 39.42117,0.50814 25.39557,0.50814" id="Fill-3" fill="#5D0F85" mask="url(#mask-2)"></path>
                            </g>
                            <path d="M25.39557,33.96006 C21.17007,33.96006 17.73207,30.52206 17.73207,26.29656 C17.73207,22.07016 21.17007,18.63216 25.39557,18.63216 C29.62107,18.63216 33.05907,22.07016 33.05907,26.29656 C33.05907,30.52206 29.62107,33.96006 25.39557,33.96006 M25.39557,12.28266 C17.65557,12.28266 11.38167,18.55746 11.38167,26.29656 C11.38167,34.03476 17.65557,40.31046 25.39557,40.31046 C33.13467,40.31046 39.40857,34.03476 39.40857,26.29656 C39.40857,18.55746 33.13467,12.28266 25.39557,12.28266" id="Fill-6" fill="#5D0F85"></path>
                            <path d="M25.39557,23.121 C23.64147,23.121 22.22037,24.543 22.22037,26.2962 C22.22037,28.0503 23.64147,29.4714 25.39557,29.4714 C27.14877,29.4714 28.57077,28.0503 28.57077,26.2962 C28.57077,24.543 27.14877,23.121 25.39557,23.121" id="Fill-8" fill="#5D0F85"></path>
                            <g id="Group-12" transform="translate(0.000000, 0.392220)">
                                <mask id="mask-4" fill="white">
                                    <use xlink:href="#path-3"></use>
                                </mask>
                                <g id="Clip-11"></g>
                                <path d="M25.39557,44.95014 C14.89347,44.95014 6.34977,36.40554 6.34977,25.90344 C6.34977,15.40224 14.89347,6.85764 25.39557,6.85764 C35.89677,6.85764 44.44047,15.40224 44.44047,25.90434 C44.44047,36.40554 35.89677,44.95014 25.39557,44.95014 M25.39557,0.50814 C11.36997,0.50814 0.00027,11.87874 0.00027,25.90434 C0.00027,39.92904 11.36997,51.30054 25.39557,51.30054 C39.42117,51.30054 50.79087,39.92904 50.79087,25.90344 C50.79087,11.87874 39.42117,0.50814 25.39557,0.50814" id="Fill-10" fill="#5D0F85" mask="url(#mask-4)"></path>
                            </g>
                            <path d="M25.39557,33.96006 C21.17007,33.96006 17.73207,30.52206 17.73207,26.29656 C17.73207,22.07016 21.17007,18.63216 25.39557,18.63216 C29.62107,18.63216 33.05907,22.07016 33.05907,26.29656 C33.05907,30.52206 29.62107,33.96006 25.39557,33.96006 M25.39557,12.28266 C17.65557,12.28266 11.38167,18.55746 11.38167,26.29656 C11.38167,34.03476 17.65557,40.31046 25.39557,40.31046 C33.13467,40.31046 39.40857,34.03476 39.40857,26.29656 C39.40857,18.55746 33.13467,12.28266 25.39557,12.28266" id="Fill-13" fill="#5D0F85"></path>
                        </g>
                    </g>
                </g>
            </g>
        </g>
    </g>
</svg>