<?xml version="1.0" encoding="UTF-8"?>
<svg width="71px" height="62px" viewBox="0 0 71 56" version="1.1" xmlns="http://www.w3.org/2000/svg" xmlns:xlink="http://www.w3.org/1999/xlink">
    <!-- Generator: sketchtool 64 (101010) - https://sketch.com -->
    <title>AFB1F663-CF27-4005-9AEE-9825FEF62A7C@3x</title>
    <desc>Created with sketchtool.</desc>
    <defs>
        <polygon id="path-1" points="2.65998388e-05 0.492530185 70.6229176 0.492530185 70.6229176 54.9 2.65998388e-05 54.9"></polygon>
        <polygon id="path-3" points="2.65998388e-05 0.492530185 70.6229176 0.492530185 70.6229176 54.9 2.65998388e-05 54.9"></polygon>
    </defs>
    <g id="Girls-Code-III" stroke="none" stroke-width="1" fill="none" fill-rule="evenodd">
        <g id="About" transform="translate(-256.000000, -1901.000000)">
            <g id="Valores" transform="translate(255.000000, 1376.000000)">
                <g id="Asertividad" transform="translate(1.000000, 525.000000)">
                    <g id="icon/comments">
                        <g id="Group-19">
                            <g id="Group-3" transform="translate(0.000000, 0.407700)">
                                <mask id="mask-2" fill="white">
                                    <use xlink:href="#path-1"></use>
                                </mask>
                                <g id="Clip-2"></g>
                                <path d="M55.98018,40.42521 C55.31148,40.20291 54.57438,40.36491 54.06138,40.84731 C50.21658,44.33391 45.20988,46.26261 40.01958,46.2565868 C39.34728,46.25991 38.67408,46.22841 38.00538,46.16091 C26.47908,45.04851 18.03708,34.80201 19.15038,23.27571 C19.69938,17.58771 22.54698,12.37041 27.03258,8.83071 C36.08928,1.61541 49.28148,3.10941 56.49588,12.16701 C59.45778,15.88401 61.06788,20.49831 61.06248,25.25121 L61.08228,25.25121 C61.07958,27.77301 60.62508,30.27501 59.73948,32.63661 C59.53878,33.16491 59.58108,33.75441 59.85468,34.24851 L64.74618,43.05321 L55.98018,40.42521 Z M70.38648,45.14391 L63.63378,33.03981 C67.91058,20.02581 60.82758,6.00921 47.81358,1.73241 C40.24638,-0.75429 31.94388,0.54441 25.49808,5.22441 L25.21098,5.22441 C11.76588,5.23341 0.87408,16.13961 0.88308,29.58381 C0.88668,34.04421 2.11518,38.41911 4.43538,42.22791 L0.15678,52.22241 C-0.26172,53.19531 0.18648,54.32391 1.15938,54.74331 C1.63458,54.94851 2.17278,54.95211 2.65068,54.75501 L12.81798,50.55381 C16.57008,52.77501 20.84958,53.94771 25.21098,53.94861 C29.89008,53.93601 34.46388,52.55631 38.36988,49.97781 L40.09698,49.97781 C45.86958,49.96341 51.45588,47.92671 55.88388,44.22321 L68.16078,47.90691 C69.17688,48.20661 70.24428,47.62611 70.54488,46.61001 C70.68888,46.12041 70.63218,45.59211 70.38648,45.14391 L70.38648,45.14391 Z" id="Fill-1" fill="#5D0F85" mask="url(#mask-2)"></path>
                            </g>
                            <path d="M49.63005,32.21964 L30.54285,32.21964 C29.48355,32.21964 28.62495,33.07824 28.62495,34.13754 C28.62495,35.19774 29.48355,36.05634 30.54285,36.05634 L49.63005,36.05634 C50.69025,36.05634 51.54885,35.19774 51.54885,34.13754 C51.54885,33.07824 50.69025,32.21964 49.63005,32.21964" id="Fill-4" fill="#5D0F85"></path>
                            <path d="M49.63005,16.87302 L30.54285,16.87302 C29.48355,16.87302 28.62495,17.73162 28.62495,18.79182 C28.62495,19.85112 29.48355,20.70972 30.54285,20.70972 L49.63005,20.70972 C50.69025,20.70972 51.54885,19.85112 51.54885,18.79182 C51.54885,17.73162 50.69025,16.87302 49.63005,16.87302" id="Fill-6" fill="#5D0F85"></path>
                            <path d="M49.63005,24.54633 L30.54285,24.54633 C29.48355,24.54633 28.62495,25.40583 28.62495,26.46423 C28.62495,27.52443 29.48355,28.38303 30.54285,28.38303 L49.63005,28.38303 C50.69025,28.38303 51.54885,27.52443 51.54885,26.46423 C51.54885,25.40583 50.69025,24.54633 49.63005,24.54633" id="Fill-8" fill="#5D0F85"></path>
                            <g id="Group-12" transform="translate(0.000000, 0.407700)">
                                <mask id="mask-4" fill="white">
                                    <use xlink:href="#path-3"></use>
                                </mask>
                                <g id="Clip-11"></g>
                                <path d="M55.98018,40.42521 C55.31148,40.20291 54.57438,40.36491 54.06138,40.84731 C50.21658,44.33391 45.20988,46.26261 40.01958,46.2565868 C39.34728,46.25991 38.67408,46.22841 38.00538,46.16091 C26.47908,45.04851 18.03708,34.80201 19.15038,23.27571 C19.69938,17.58771 22.54698,12.37041 27.03258,8.83071 C36.08928,1.61541 49.28148,3.10941 56.49588,12.16701 C59.45778,15.88401 61.06788,20.49831 61.06248,25.25121 L61.08228,25.25121 C61.07958,27.77301 60.62508,30.27501 59.73948,32.63661 C59.53878,33.16491 59.58108,33.75441 59.85468,34.24851 L64.74618,43.05321 L55.98018,40.42521 Z M70.38648,45.14391 L63.63378,33.03981 C67.91058,20.02581 60.82758,6.00921 47.81358,1.73241 C40.24638,-0.75429 31.94388,0.54441 25.49808,5.22441 L25.21098,5.22441 C11.76588,5.23341 0.87408,16.13961 0.88308,29.58381 C0.88668,34.04421 2.11518,38.41911 4.43538,42.22791 L0.15678,52.22241 C-0.26172,53.19531 0.18648,54.32391 1.15938,54.74331 C1.63458,54.94851 2.17278,54.95211 2.65068,54.75501 L12.81798,50.55381 C16.57008,52.77501 20.84958,53.94771 25.21098,53.94861 C29.89008,53.93601 34.46388,52.55631 38.36988,49.97781 L40.09698,49.97781 C45.86958,49.96341 51.45588,47.92671 55.88388,44.22321 L68.16078,47.90691 C69.17688,48.20661 70.24428,47.62611 70.54488,46.61001 C70.68888,46.12041 70.63218,45.59211 70.38648,45.14391 L70.38648,45.14391 Z" id="Fill-10" fill="#5D0F85" mask="url(#mask-4)"></path>
                            </g>
                            <path d="M49.63005,32.21964 L30.54285,32.21964 C29.48355,32.21964 28.62495,33.07824 28.62495,34.13754 C28.62495,35.19774 29.48355,36.05634 30.54285,36.05634 L49.63005,36.05634 C50.69025,36.05634 51.54885,35.19774 51.54885,34.13754 C51.54885,33.07824 50.69025,32.21964 49.63005,32.21964" id="Fill-13" fill="#5D0F85"></path>
                            <path d="M49.63005,16.87302 L30.54285,16.87302 C29.48355,16.87302 28.62495,17.73162 28.62495,18.79182 C28.62495,19.85112 29.48355,20.70972 30.54285,20.70972 L49.63005,20.70972 C50.69025,20.70972 51.54885,19.85112 51.54885,18.79182 C51.54885,17.73162 50.69025,16.87302 49.63005,16.87302" id="Fill-15" fill="#5D0F85"></path>
                            <path d="M49.63005,24.54633 L30.54285,24.54633 C29.48355,24.54633 28.62495,25.40583 28.62495,26.46423 C28.62495,27.52443 29.48355,28.38303 30.54285,28.38303 L49.63005,28.38303 C50.69025,28.38303 51.54885,27.52443 51.54885,26.46423 C51.54885,25.40583 50.69025,24.54633 49.63005,24.54633" id="Fill-17" fill="#5D0F85"></path>
                        </g>
                    </g>
                </g>
            </g>
        </g>
    </g>
</svg>