<?xml version="1.0" encoding="UTF-8"?>
<svg width="53px" height="62px" viewBox="0 0 53 53" version="1.1" xmlns="http://www.w3.org/2000/svg" xmlns:xlink="http://www.w3.org/1999/xlink">
    <!-- Generator: sketchtool 64 (101010) - https://sketch.com -->
    <title>E46A30AC-4C75-4766-97D4-CCF7CDC080ED@3x</title>
    <desc>Created with sketchtool.</desc>
    <g id="Girls-Code-III" stroke="none" stroke-width="1" fill="none" fill-rule="evenodd">
        <g id="About" transform="translate(-930.000000, -1902.000000)" fill="#5D0F85">
            <g id="Valores" transform="translate(255.000000, 1376.000000)">
                <g id="Integridad" transform="translate(675.000000, 526.000000)">
                    <g id="icon/int">
                        <path d="M0,53 L53,53 L53,0 L0,0 L0,53 Z M31.1858874,3.68196246 L40.5033959,3.68196246 L40.5033959,9.87464164 L37.880529,12.4966041 L31.1858874,12.4966041 L31.1858874,3.68196246 Z M12.5526792,3.68196246 L21.8692833,3.68196246 L21.8692833,12.5526792 L31.1858874,12.5526792 L31.1858874,19.1912457 L28.5639249,21.8132082 L21.8692833,21.8132082 L21.8692833,28.5087543 L19.2473208,31.1307167 L12.5526792,31.1307167 L12.5526792,21.8132082 L21.8132082,21.8132082 L21.8132082,12.4966041 L12.5526792,12.4966041 L12.5526792,3.68196246 Z M43.5712457,12.0507167 L49.3180375,6.30392491 L49.3180375,17.7966041 L43.5712457,12.0507167 Z M3.68196246,21.8132082 L12.4966041,21.8132082 L12.4966041,12.4966041 L3.68196246,12.4966041 L3.68196246,21.8132082 Z M36.3746416,19.2473208 L40.9492833,14.6726792 L49.3180375,23.0414334 L49.3180375,32.2467918 L36.3746416,19.2473208 Z M29.1219625,26.5009044 L33.6966041,21.9253584 L49.3180375,37.5458874 L49.3180375,46.6951706 L29.1219625,26.5009044 Z M21.9253584,33.7526792 L26.5,29.1780375 L46.6951706,49.3732082 L37.5458874,49.3732082 L21.9253584,33.7526792 Z M3.68196246,31.1858874 L12.5526792,31.1858874 L12.5526792,37.8244539 L9.93071672,40.4473208 L3.68196246,40.4473208 L3.68196246,31.1858874 Z M14.6726792,40.9492833 L19.2473208,36.3746416 L32.2467918,49.3732082 L23.040529,49.3732082 L14.6726792,40.9492833 Z M12.0507167,43.5712457 L17.7975085,49.3171331 L6.30482935,49.3171331 L12.0507167,43.5712457 Z" id="Fill-1"></path>
                    </g>
                </g>
            </g>
        </g>
    </g>
</svg>