<?xml version="1.0" encoding="UTF-8"?>
<svg width="266px" height="171px" viewBox="0 0 266 171" version="1.1" xmlns="http://www.w3.org/2000/svg" xmlns:xlink="http://www.w3.org/1999/xlink">
    <!-- Generator: sketchtool 64 (101010) - https://sketch.com -->
    <title>57580D7C-1612-429F-B5A5-CEE4EF9FDBA6@3x</title>
    <desc>Created with sketchtool.</desc>
    <defs>
        <polygon id="path-1" points="0.0261403993 0.9174 23.68499 0.9174 23.68499 36.04898 0.0261403993 36.04898"></polygon>
        <polygon id="path-3" points="0.0362007131 0.76923 96.0986048 0.76923 96.0986048 96.8 0.0362007131 96.8"></polygon>
        <polygon id="path-5" points="0 171.7826 265.0186 171.7826 265.0186 1.1 0 1.1"></polygon>
    </defs>
    <g id="Girls-Code-III" stroke="none" stroke-width="1" fill="none" fill-rule="evenodd">
        <g id="About" transform="translate(-885.000000, -789.000000)">
            <g id="Vision-y-Mision" transform="translate(-185.000000, -502.000000)">
                <g id="ilustracion/proposito" transform="translate(1070.000000, 1290.000000)">
                    <g id="Group-228">
                        <path d="M251.34153,171.78238 L17.01513,171.78238 C16.32873,171.78238 15.78863,171.24338 15.78863,170.55698 C15.78863,169.87058 16.32873,169.33048 17.01513,169.33048 L251.34153,169.33048 C252.02793,169.33048 252.56693,169.87058 252.56693,170.55698 C252.56693,171.24338 252.00373,171.78238 251.34153,171.78238" id="Fill-1" fill="#5D0F85"></path>
                        <path d="M70.06813,93.45303 C69.38173,93.45303 68.84163,92.91403 68.84163,92.22653 L68.84163,6.98423 C68.84163,6.29783 69.38173,5.75773 70.06813,5.75773 C70.75453,5.75773 71.29353,6.29783 71.29353,6.98423 L71.29353,92.25183 C71.29353,92.91403 70.75453,93.45303 70.06813,93.45303" id="Fill-3" fill="#5D0F85"></path>
                        <path d="M80.6590219,12.94139 C80.63473,18.80109 69.99443,35.00629 69.99443,35.00629 C69.99443,35.00629 59.42783,18.75159 59.4519885,12.89189 C59.47623,7.03219 64.23263,2.30109 70.09233,2.32519757 C75.92673,2.32519757 80.68313,7.08169 80.6590219,12.94139" id="Fill-5" fill="#F6ED29"></path>
                        <g id="Group-9" transform="translate(58.200000, 0.182600)">
                            <mask id="mask-2" fill="white">
                                <use xlink:href="#path-1"></use>
                            </mask>
                            <g id="Clip-8"></g>
                            <path d="M11.84349,3.36908 C6.69439,3.36908 2.47809,7.56118 2.47809,12.73448 C2.47809,16.77918 8.48409,27.24788 11.81929,32.56748 C15.15339,27.27208 21.23309,16.80338 21.23309,12.78288 C21.23309,10.28258 20.27719,7.92968 18.51169,6.13888 C16.74619,4.34918 14.39219,3.36908 11.84349,3.36908 C11.86769,3.36908 11.86769,3.36908 11.84349,3.36908 M11.79399,36.04898 L11.79399,36.04898 C11.37709,36.04898 10.98549,35.82898 10.76549,35.48578 C9.66219,33.79398 0.000889999999,18.74048 0.0261403993,12.70918 C0.05039,6.18838 5.34689,0.91718 11.84349,0.91718 L11.86769,0.91718 C15.03019,0.91718 17.99689,2.16788 20.22769,4.39868 C22.45849,6.62948 23.68499,9.62038 23.68499,12.78288 C23.68499,15.43058 21.82159,20.06488 18.19269,26.60988 C15.54499,31.36628 12.84779,35.48578 12.82469,35.53418 C12.60249,35.85318 12.21089,36.04898 11.79399,36.04898" id="Fill-7" fill="#5D0F85" mask="url(#mask-2)"></path>
                        </g>
                        <path d="M94.51101,37.84979 C89.19031,40.30169 70.01841,37.43289 70.01841,37.43289 C70.01841,37.43289 80.33971,21.03079 85.68571,18.57999 C91.02951,16.12809 97.30501,18.48209 99.73271,23.80169 C102.15931,29.09709 99.83061,35.39789 94.51101,37.84979" id="Fill-10" fill="#F6ED29"></path>
                        <path d="M72.07805,36.47699 C78.30515,37.28549 90.31825,38.41409 93.99555,36.74649 C98.70245,34.58939 100.76165,28.99919 98.60455,24.31649 C97.55075,22.03729 95.68735,20.29599 93.33335,19.43799 C90.98045,18.55579 88.43065,18.65369 86.15035,19.70749 C82.49835,21.37509 75.51005,31.22999 72.07805,36.47699 M86.86095,40.05639 C84.92495,40.05639 82.69305,39.95849 80.16745,39.76159 C74.72575,39.34469 69.87145,38.63409 69.82195,38.63409 C69.40505,38.58569 69.06295,38.31509 68.89135,37.92349 C68.71865,37.55499 68.74395,37.11499 68.96505,36.77179 C70.04305,35.05469 79.65375,19.97809 85.14495,17.45249 C88.01375,16.12809 91.22465,16.00599 94.19245,17.10929 C97.15805,18.21259 99.51095,20.39389 100.83645,23.26269 C103.55675,29.19499 100.95855,36.23169 95.02515,38.95309 C93.43125,39.68789 90.68565,40.05639 86.86095,40.05639" id="Fill-12" fill="#5D0F85"></path>
                        <path d="M45.50183,37.84979 C50.82253,40.30169 69.99443,37.43289 69.99443,37.43289 C69.99443,37.43289 59.67313,21.03079 54.32823,18.57999 C48.98333,16.12809 42.70783,18.48209 40.28013,23.80169 C37.85353,29.09709 40.18223,35.39789 45.50183,37.84979" id="Fill-14" fill="#F6ED29"></path>
                        <path d="M49.93945,18.82485 C48.83615,18.82485 47.73285,19.02175 46.67905,19.41335 C44.32505,20.29555 42.46165,22.01155 41.40785,24.29185 C40.35405,26.57215 40.25505,29.12195 41.13835,31.47485 C42.02165,33.82885 43.73655,35.69225 46.01795,36.74605 C49.69415,38.43785 61.73255,37.31035 67.93435,36.47655 C64.50235,31.23065 57.51515,21.37465 53.83785,19.68285 C52.58715,19.11965 51.26385,18.82485 49.93945,18.82485 M53.24935,40.05595 C49.84155,40.05595 46.77695,39.76225 44.98725,38.95265 C42.11955,37.62935 39.93715,35.27535 38.83385,32.30865 C37.73055,29.34305 37.85375,26.13105 39.17705,23.26225 C40.50145,20.39455 42.85545,18.21215 45.82105,17.10885 C48.78775,16.00555 51.99865,16.12765 54.86745,17.45205 C57.26985,18.55535 60.72715,22.15895 65.16455,28.19025 C68.40075,32.57815 71.02425,36.72185 71.04735,36.77135 C71.26955,37.11455 71.29375,37.55565 71.12215,37.92305 C70.95055,38.29155 70.60735,38.56105 70.19045,38.63475 C68.84185,38.83055 60.33445,40.05595 53.24935,40.05595" id="Fill-16" fill="#5D0F85"></path>
                        <path d="M59.28087,59.44862 C63.86457,55.82082 70.01907,37.40792 70.01907,37.40792 C70.01907,37.40792 50.69977,39.17342 46.11497,42.82652 C41.53017,46.47962 40.74587,53.12362 44.39897,57.73262 C48.00257,62.31742 54.67187,63.10172 59.28087,59.44862" id="Fill-18" fill="#F6ED29"></path>
                        <path d="M68.22915,38.83055 C62.00205,39.51695 50.03845,41.28245 46.87595,43.78275 C44.91465,45.32715 43.66395,47.55795 43.39445,50.05935 C43.09965,52.53435 43.81135,54.98735 45.35575,56.97285 C48.56665,61.01755 54.47475,61.70395 58.52055,58.49305 C61.68305,55.99165 66.12045,44.73865 68.22915,38.83055 M52.71035,62.97885 C49.22885,62.97885 45.74845,61.43445 43.41865,58.49305 C39.37395,53.36815 40.23195,45.91565 45.35575,41.87095 C47.41495,40.22755 52.21975,38.78105 59.57545,37.55565 C64.96875,36.67345 69.84725,36.20705 69.89675,36.20705 C70.31365,36.15755 70.70525,36.35445 70.97475,36.67345 C71.24425,36.99135 71.31905,37.43245 71.17165,37.82515 C71.14635,37.87465 69.60195,42.53205 67.49325,47.55795 C64.62555,54.44725 62.09995,58.78675 60.04075,60.42905 C57.85835,62.12085 55.26015,62.97885 52.71035,62.97885" id="Fill-20" fill="#5D0F85"></path>
                        <path d="M80.83075,59.44862 C76.24595,55.82082 70.09145,37.40792 70.09145,37.40792 C70.09145,37.40792 89.41185,39.17342 93.99555,42.82652 C98.58035,46.47962 99.36465,53.12362 95.71155,57.73262 C92.10795,62.31742 85.43865,63.10172 80.83075,59.44862" id="Fill-22" fill="#F6ED29"></path>
                        <path d="M71.88148,38.83055 C73.96598,44.73865 78.42758,55.96745 81.59008,58.49305 C85.63588,61.70395 91.54398,61.01755 94.75598,56.97285 C96.30038,55.01045 97.01208,52.55965 96.71728,50.05935 C96.42358,47.58325 95.19708,45.35135 93.23578,43.78275 C90.07328,41.28245 78.13388,39.51695 71.88148,38.83055 M87.40028,62.97885 C84.82738,62.97885 82.22808,62.14505 80.06988,60.42905 C78.01068,58.78675 75.48508,54.47145 72.61738,47.55795 C70.50868,42.53205 68.96538,37.87465 68.94008,37.82515 C68.81798,37.43245 68.89058,36.99135 69.13588,36.67345 C69.38228,36.35445 69.79808,36.18285 70.21498,36.20705 C70.26338,36.20705 75.14298,36.67345 80.53628,37.55565 C87.91508,38.78105 92.69678,40.22755 94.75598,41.87095 C97.23208,43.83115 98.80178,46.65045 99.16918,49.78875 C99.53658,52.92705 98.65438,56.01695 96.69308,58.49305 C94.36328,61.43445 90.90708,62.97885 87.40028,62.97885" id="Fill-24" fill="#5D0F85"></path>
                        <polygon id="Fill-26" fill="#8851FC" points="116.86972 76.95347 23.26522 76.95347 32.36222 170.55687 107.77382 170.55687"></polygon>
                        <g id="Group-30" transform="translate(22.000000, 74.982600)">
                            <mask id="mask-4" fill="white">
                                <use xlink:href="#path-3"></use>
                            </mask>
                            <g id="Clip-29"></g>
                            <path d="M11.48884,94.34843 L84.64654,94.34843 L93.52024,3.19693 L2.61514,3.19693 L11.48884,94.34843 Z M85.77404,96.80033 L10.36244,96.80033 C9.72444,96.80033 9.20964,96.30973 9.13484,95.69703 L0.04004,2.09363 C0.01474,1.75043 0.11374,1.40723 0.35904,1.16193 C0.57904,0.91663 0.92334,0.76923 1.26544,0.76923 L94.86994,0.76923 C95.21204,0.76923 95.55634,0.91663 95.77634,1.16193 C95.99744,1.40723 96.12064,1.75043 96.09534,2.09363 L86.99944,95.69703 C86.92574,96.33393 86.38674,96.80033 85.77404,96.80033 L85.77404,96.80033 Z" id="Fill-28" fill="#5D0F85" mask="url(#mask-4)"></path>
                        </g>
                        <path d="M107.96984,153.41964 C108.64634,153.41964 109.19524,153.96854 109.19524,154.64614 C109.19524,155.32264 108.64634,155.87154 107.96984,155.87154 C107.29334,155.87154 106.74444,155.32264 106.74444,154.64614 C106.74444,153.96854 107.29334,153.41964 107.96984,153.41964" id="Fill-31" fill="#5D0F85"></path>
                        <path d="M107.96984,159.47558 C108.64634,159.47558 109.19524,160.02448 109.19524,160.70098 C109.19524,161.37748 108.64634,161.92748 107.96984,161.92748 C107.29334,161.92748 106.74444,161.37748 106.74444,160.70098 C106.74444,160.02448 107.29334,159.47558 107.96984,159.47558" id="Fill-33" fill="#5D0F85"></path>
                        <path d="M107.96984,165.50622 C108.64634,165.50622 109.19524,166.05512 109.19524,166.73272 C109.19524,167.40922 108.64634,167.95812 107.96984,167.95812 C107.29334,167.95812 106.74444,167.40922 106.74444,166.73272 C106.74444,166.05512 107.29334,165.50622 107.96984,165.50622" id="Fill-35" fill="#5D0F85"></path>
                        <path d="M101.91445,153.41964 C102.59095,153.41964 103.13985,153.96854 103.13985,154.64614 C103.13985,155.32264 102.59095,155.87154 101.91445,155.87154 C101.23795,155.87154 100.68905,155.32264 100.68905,154.64614 C100.68905,153.96854 101.23795,153.41964 101.91445,153.41964" id="Fill-37" fill="#5D0F85"></path>
                        <path d="M101.91445,159.47558 C102.59095,159.47558 103.13985,160.02448 103.13985,160.70098 C103.13985,161.37748 102.59095,161.92748 101.91445,161.92748 C101.23795,161.92748 100.68905,161.37748 100.68905,160.70098 C100.68905,160.02448 101.23795,159.47558 101.91445,159.47558" id="Fill-39" fill="#5D0F85"></path>
                        <path d="M101.91445,165.50622 C102.59095,165.50622 103.13985,166.05512 103.13985,166.73272 C103.13985,167.40922 102.59095,167.95812 101.91445,167.95812 C101.23795,167.95812 100.68905,167.40922 100.68905,166.73272 C100.68905,166.05512 101.23795,165.50622 101.91445,165.50622" id="Fill-41" fill="#5D0F85"></path>
                        <path d="M95.85906,153.41964 C96.53556,153.41964 97.08446,153.96854 97.08446,154.64614 C97.08446,155.32264 96.53556,155.87154 95.85906,155.87154 C95.18256,155.87154 94.63366,155.32264 94.63366,154.64614 C94.63366,153.96854 95.18256,153.41964 95.85906,153.41964" id="Fill-43" fill="#5D0F85"></path>
                        <path d="M95.85906,159.47558 C96.53556,159.47558 97.08446,160.02448 97.08446,160.70098 C97.08446,161.37748 96.53556,161.92748 95.85906,161.92748 C95.18256,161.92748 94.63366,161.37748 94.63366,160.70098 C94.63366,160.02448 95.18256,159.47558 95.85906,159.47558" id="Fill-45" fill="#5D0F85"></path>
                        <path d="M95.85906,165.50622 C96.53556,165.50622 97.08446,166.05512 97.08446,166.73272 C97.08446,167.40922 96.53556,167.95812 95.85906,167.95812 C95.18256,167.95812 94.63366,167.40922 94.63366,166.73272 C94.63366,166.05512 95.18256,165.50622 95.85906,165.50622" id="Fill-47" fill="#5D0F85"></path>
                        <path d="M89.82842,153.41964 C90.50492,153.41964 91.05382,153.96854 91.05382,154.64614 C91.05382,155.32264 90.50492,155.87154 89.82842,155.87154 C89.15082,155.87154 88.60192,155.32264 88.60192,154.64614 C88.60192,153.96854 89.15082,153.41964 89.82842,153.41964" id="Fill-49" fill="#5D0F85"></path>
                        <path d="M89.82842,159.47558 C90.50492,159.47558 91.05382,160.02448 91.05382,160.70098 C91.05382,161.37748 90.50492,161.92748 89.82842,161.92748 C89.15082,161.92748 88.60192,161.37748 88.60192,160.70098 C88.60192,160.02448 89.15082,159.47558 89.82842,159.47558" id="Fill-51" fill="#5D0F85"></path>
                        <path d="M89.82842,165.50622 C90.50492,165.50622 91.05382,166.05512 91.05382,166.73272 C91.05382,167.40922 90.50492,167.95812 89.82842,167.95812 C89.15082,167.95812 88.60192,167.40922 88.60192,166.73272 C88.60192,166.05512 89.15082,165.50622 89.82842,165.50622" id="Fill-53" fill="#5D0F85"></path>
                        <path d="M83.77204,153.41964 C84.44964,153.41964 84.99744,153.96854 84.99744,154.64614 C84.99744,155.32264 84.44964,155.87154 83.77204,155.87154 C83.09554,155.87154 82.54664,155.32264 82.54664,154.64614 C82.54664,153.96854 83.09554,153.41964 83.77204,153.41964" id="Fill-55" fill="#5D0F85"></path>
                        <path d="M83.77204,159.47558 C84.44964,159.47558 84.99744,160.02448 84.99744,160.70098 C84.99744,161.37748 84.44964,161.92748 83.77204,161.92748 C83.09554,161.92748 82.54664,161.37748 82.54664,160.70098 C82.54664,160.02448 83.09554,159.47558 83.77204,159.47558" id="Fill-57" fill="#5D0F85"></path>
                        <path d="M83.77204,165.50622 C84.44964,165.50622 84.99744,166.05512 84.99744,166.73272 C84.99744,167.40922 84.44964,167.95812 83.77204,167.95812 C83.09554,167.95812 82.54664,167.40922 82.54664,166.73272 C82.54664,166.05512 83.09554,165.50622 83.77204,165.50622" id="Fill-59" fill="#5D0F85"></path>
                        <path d="M77.71665,153.41964 C78.39315,153.41964 78.94205,153.96854 78.94205,154.64614 C78.94205,155.32264 78.39315,155.87154 77.71665,155.87154 C77.04015,155.87154 76.49125,155.32264 76.49125,154.64614 C76.49125,153.96854 77.04015,153.41964 77.71665,153.41964" id="Fill-61" fill="#5D0F85"></path>
                        <path d="M77.71665,159.47558 C78.39315,159.47558 78.94205,160.02448 78.94205,160.70098 C78.94205,161.37748 78.39315,161.92748 77.71665,161.92748 C77.04015,161.92748 76.49125,161.37748 76.49125,160.70098 C76.49125,160.02448 77.04015,159.47558 77.71665,159.47558" id="Fill-63" fill="#5D0F85"></path>
                        <path d="M77.71665,165.50622 C78.39315,165.50622 78.94205,166.05512 78.94205,166.73272 C78.94205,167.40922 78.39315,167.95812 77.71665,167.95812 C77.04015,167.95812 76.49125,167.40922 76.49125,166.73272 C76.49125,166.05512 77.04015,165.50622 77.71665,165.50622" id="Fill-65" fill="#5D0F85"></path>
                        <path d="M71.68601,153.41964 C72.36251,153.41964 72.91141,153.96854 72.91141,154.64614 C72.91141,155.32264 72.36251,155.87154 71.68601,155.87154 C71.00951,155.87154 70.46061,155.32264 70.46061,154.64614 C70.46061,153.96854 71.00951,153.41964 71.68601,153.41964" id="Fill-67" fill="#5D0F85"></path>
                        <path d="M71.68601,159.47558 C72.36251,159.47558 72.91141,160.02448 72.91141,160.70098 C72.91141,161.37748 72.36251,161.92748 71.68601,161.92748 C71.00951,161.92748 70.46061,161.37748 70.46061,160.70098 C70.46061,160.02448 71.00951,159.47558 71.68601,159.47558" id="Fill-69" fill="#5D0F85"></path>
                        <path d="M71.68601,165.50622 C72.36251,165.50622 72.91141,166.05512 72.91141,166.73272 C72.91141,167.40922 72.36251,167.95812 71.68601,167.95812 C71.00951,167.95812 70.46061,167.40922 70.46061,166.73272 C70.46061,166.05512 71.00951,165.50622 71.68601,165.50622" id="Fill-71" fill="#5D0F85"></path>
                        <path d="M65.63062,153.41964 C66.30712,153.41964 66.85602,153.96854 66.85602,154.64614 C66.85602,155.32264 66.30712,155.87154 65.63062,155.87154 C64.95302,155.87154 64.40522,155.32264 64.40522,154.64614 C64.40522,153.96854 64.95302,153.41964 65.63062,153.41964" id="Fill-73" fill="#5D0F85"></path>
                        <path d="M65.63062,159.47558 C66.30712,159.47558 66.85602,160.02448 66.85602,160.70098 C66.85602,161.37748 66.30712,161.92748 65.63062,161.92748 C64.95302,161.92748 64.40522,161.37748 64.40522,160.70098 C64.40522,160.02448 64.95302,159.47558 65.63062,159.47558" id="Fill-75" fill="#5D0F85"></path>
                        <path d="M65.63062,165.50622 C66.30712,165.50622 66.85602,166.05512 66.85602,166.73272 C66.85602,167.40922 66.30712,167.95812 65.63062,167.95812 C64.95302,167.95812 64.40522,167.40922 64.40522,166.73272 C64.40522,166.05512 64.95302,165.50622 65.63062,165.50622" id="Fill-77" fill="#5D0F85"></path>
                        <path d="M59.57523,153.41964 C60.25173,153.41964 60.80063,153.96854 60.80063,154.64614 C60.80063,155.32264 60.25173,155.87154 59.57523,155.87154 C58.89763,155.87154 58.34873,155.32264 58.34873,154.64614 C58.34873,153.96854 58.89763,153.41964 59.57523,153.41964" id="Fill-79" fill="#5D0F85"></path>
                        <path d="M59.57523,159.47558 C60.25173,159.47558 60.80063,160.02448 60.80063,160.70098 C60.80063,161.37748 60.25173,161.92748 59.57523,161.92748 C58.89763,161.92748 58.34873,161.37748 58.34873,160.70098 C58.34873,160.02448 58.89763,159.47558 59.57523,159.47558" id="Fill-81" fill="#5D0F85"></path>
                        <path d="M59.57523,165.50622 C60.25173,165.50622 60.80063,166.05512 60.80063,166.73272 C60.80063,167.40922 60.25173,167.95812 59.57523,167.95812 C58.89763,167.95812 58.34873,167.40922 58.34873,166.73272 C58.34873,166.05512 58.89763,165.50622 59.57523,165.50622" id="Fill-83" fill="#5D0F85"></path>
                        <path d="M53.54349,153.41964 C54.21999,153.41964 54.76889,153.96854 54.76889,154.64614 C54.76889,155.32264 54.21999,155.87154 53.54349,155.87154 C52.86699,155.87154 52.31809,155.32264 52.31809,154.64614 C52.31809,153.96854 52.86699,153.41964 53.54349,153.41964" id="Fill-85" fill="#5D0F85"></path>
                        <path d="M53.54349,159.47558 C54.21999,159.47558 54.76889,160.02448 54.76889,160.70098 C54.76889,161.37748 54.21999,161.92748 53.54349,161.92748 C52.86699,161.92748 52.31809,161.37748 52.31809,160.70098 C52.31809,160.02448 52.86699,159.47558 53.54349,159.47558" id="Fill-87" fill="#5D0F85"></path>
                        <path d="M53.54349,165.50622 C54.21999,165.50622 54.76889,166.05512 54.76889,166.73272 C54.76889,167.40922 54.21999,167.95812 53.54349,167.95812 C52.86699,167.95812 52.31809,167.40922 52.31809,166.73272 C52.31809,166.05512 52.86699,165.50622 53.54349,165.50622" id="Fill-89" fill="#5D0F85"></path>
                        <path d="M47.4881,153.41964 C48.1646,153.41964 48.7135,153.96854 48.7135,154.64614 C48.7135,155.32264 48.1646,155.87154 47.4881,155.87154 C46.8116,155.87154 46.2627,155.32264 46.2627,154.64614 C46.2627,153.96854 46.8116,153.41964 47.4881,153.41964" id="Fill-91" fill="#5D0F85"></path>
                        <path d="M47.4881,159.47558 C48.1646,159.47558 48.7135,160.02448 48.7135,160.70098 C48.7135,161.37748 48.1646,161.92748 47.4881,161.92748 C46.8116,161.92748 46.2627,161.37748 46.2627,160.70098 C46.2627,160.02448 46.8116,159.47558 47.4881,159.47558" id="Fill-93" fill="#5D0F85"></path>
                        <path d="M47.4881,165.50622 C48.1646,165.50622 48.7135,166.05512 48.7135,166.73272 C48.7135,167.40922 48.1646,167.95812 47.4881,167.95812 C46.8116,167.95812 46.2627,167.40922 46.2627,166.73272 C46.2627,166.05512 46.8116,165.50622 47.4881,165.50622" id="Fill-95" fill="#5D0F85"></path>
                        <path d="M41.43271,111.08042 C42.10921,111.08042 42.65811,111.62932 42.65811,112.30582 C42.65811,112.98232 42.10921,113.53232 41.43271,113.53232 C40.75621,113.53232 40.20731,112.98232 40.20731,112.30582 C40.20731,111.62932 40.75621,111.08042 41.43271,111.08042" id="Fill-97" fill="#5D0F85"></path>
                        <path d="M41.43271,117.1357 C42.10921,117.1357 42.65811,117.6846 42.65811,118.3611 C42.65811,119.0387 42.10921,119.5876 41.43271,119.5876 C40.75621,119.5876 40.20731,119.0387 40.20731,118.3611 C40.20731,117.6846 40.75621,117.1357 41.43271,117.1357" id="Fill-99" fill="#5D0F85"></path>
                        <path d="M41.43271,123.19109 C42.10921,123.19109 42.65811,123.73999 42.65811,124.41649 C42.65811,125.09409 42.10921,125.64299 41.43271,125.64299 C40.75621,125.64299 40.20731,125.09409 40.20731,124.41649 C40.20731,123.73999 40.75621,123.19109 41.43271,123.19109" id="Fill-101" fill="#5D0F85"></path>
                        <path d="M41.43271,129.22228 C42.10921,129.22228 42.65811,129.77118 42.65811,130.44768 C42.65811,131.12418 42.10921,131.67418 41.43271,131.67418 C40.75621,131.67418 40.20731,131.12418 40.20731,130.44768 C40.20731,129.77118 40.75621,129.22228 41.43271,129.22228" id="Fill-103" fill="#5D0F85"></path>
                        <path d="M41.43271,135.27767 C42.10921,135.27767 42.65811,135.82657 42.65811,136.50307 C42.65811,137.18067 42.10921,137.72957 41.43271,137.72957 C40.75621,137.72957 40.20731,137.18067 40.20731,136.50307 C40.20731,135.82657 40.75621,135.27767 41.43271,135.27767" id="Fill-105" fill="#5D0F85"></path>
                        <path d="M41.43271,141.33306 C42.10921,141.33306 42.65811,141.88196 42.65811,142.55956 C42.65811,143.23606 42.10921,143.78496 41.43271,143.78496 C40.75621,143.78496 40.20731,143.23606 40.20731,142.55956 C40.20731,141.88196 40.75621,141.33306 41.43271,141.33306" id="Fill-107" fill="#5D0F85"></path>
                        <path d="M41.43271,147.36425 C42.10921,147.36425 42.65811,147.91315 42.65811,148.58965 C42.65811,149.26725 42.10921,149.81615 41.43271,149.81615 C40.75621,149.81615 40.20731,149.26725 40.20731,148.58965 C40.20731,147.91315 40.75621,147.36425 41.43271,147.36425" id="Fill-109" fill="#5D0F85"></path>
                        <path d="M41.43271,153.41964 C42.10921,153.41964 42.65811,153.96854 42.65811,154.64614 C42.65811,155.32264 42.10921,155.87154 41.43271,155.87154 C40.75621,155.87154 40.20731,155.32264 40.20731,154.64614 C40.20731,153.96854 40.75621,153.41964 41.43271,153.41964" id="Fill-111" fill="#5D0F85"></path>
                        <path d="M41.43271,159.47558 C42.10921,159.47558 42.65811,160.02448 42.65811,160.70098 C42.65811,161.37748 42.10921,161.92748 41.43271,161.92748 C40.75621,161.92748 40.20731,161.37748 40.20731,160.70098 C40.20731,160.02448 40.75621,159.47558 41.43271,159.47558" id="Fill-113" fill="#5D0F85"></path>
                        <path d="M41.43271,165.50622 C42.10921,165.50622 42.65811,166.05512 42.65811,166.73272 C42.65811,167.40922 42.10921,167.95812 41.43271,167.95812 C40.75621,167.95812 40.20731,167.40922 40.20731,166.73272 C40.20731,166.05512 40.75621,165.50622 41.43271,165.50622" id="Fill-115" fill="#5D0F85"></path>
                        <path d="M35.40207,111.08042 C36.07857,111.08042 36.62747,111.62932 36.62747,112.30582 C36.62747,112.98232 36.07857,113.53232 35.40207,113.53232 C34.72447,113.53232 34.17557,112.98232 34.17557,112.30582 C34.17557,111.62932 34.72447,111.08042 35.40207,111.08042" id="Fill-117" fill="#5D0F85"></path>
                        <path d="M35.40207,117.1357 C36.07857,117.1357 36.62747,117.6846 36.62747,118.3611 C36.62747,119.0387 36.07857,119.5876 35.40207,119.5876 C34.72447,119.5876 34.17557,119.0387 34.17557,118.3611 C34.17557,117.6846 34.72447,117.1357 35.40207,117.1357" id="Fill-119" fill="#5D0F85"></path>
                        <path d="M35.40207,123.19109 C36.07857,123.19109 36.62747,123.73999 36.62747,124.41649 C36.62747,125.09409 36.07857,125.64299 35.40207,125.64299 C34.72447,125.64299 34.17557,125.09409 34.17557,124.41649 C34.17557,123.73999 34.72447,123.19109 35.40207,123.19109" id="Fill-121" fill="#5D0F85"></path>
                        <path d="M35.40207,129.22228 C36.07857,129.22228 36.62747,129.77118 36.62747,130.44768 C36.62747,131.12418 36.07857,131.67418 35.40207,131.67418 C34.72447,131.67418 34.17557,131.12418 34.17557,130.44768 C34.17557,129.77118 34.72447,129.22228 35.40207,129.22228" id="Fill-123" fill="#5D0F85"></path>
                        <path d="M35.40207,135.27767 C36.07857,135.27767 36.62747,135.82657 36.62747,136.50307 C36.62747,137.18067 36.07857,137.72957 35.40207,137.72957 C34.72447,137.72957 34.17557,137.18067 34.17557,136.50307 C34.17557,135.82657 34.72447,135.27767 35.40207,135.27767" id="Fill-125" fill="#5D0F85"></path>
                        <path d="M35.40207,141.33306 C36.07857,141.33306 36.62747,141.88196 36.62747,142.55956 C36.62747,143.23606 36.07857,143.78496 35.40207,143.78496 C34.72447,143.78496 34.17557,143.23606 34.17557,142.55956 C34.17557,141.88196 34.72447,141.33306 35.40207,141.33306" id="Fill-127" fill="#5D0F85"></path>
                        <path d="M35.40207,147.36425 C36.07857,147.36425 36.62747,147.91315 36.62747,148.58965 C36.62747,149.26725 36.07857,149.81615 35.40207,149.81615 C34.72447,149.81615 34.17557,149.26725 34.17557,148.58965 C34.17557,147.91315 34.72447,147.36425 35.40207,147.36425" id="Fill-129" fill="#5D0F85"></path>
                        <path d="M35.40207,153.41964 C36.07857,153.41964 36.62747,153.96854 36.62747,154.64614 C36.62747,155.32264 36.07857,155.87154 35.40207,155.87154 C34.72447,155.87154 34.17557,155.32264 34.17557,154.64614 C34.17557,153.96854 34.72447,153.41964 35.40207,153.41964" id="Fill-131" fill="#5D0F85"></path>
                        <path d="M35.40207,159.47558 C36.07857,159.47558 36.62747,160.02448 36.62747,160.70098 C36.62747,161.37748 36.07857,161.92748 35.40207,161.92748 C34.72447,161.92748 34.17557,161.37748 34.17557,160.70098 C34.17557,160.02448 34.72447,159.47558 35.40207,159.47558" id="Fill-133" fill="#5D0F85"></path>
                        <path d="M35.40207,165.50622 C36.07857,165.50622 36.62747,166.05512 36.62747,166.73272 C36.62747,167.40922 36.07857,167.95812 35.40207,167.95812 C34.72447,167.95812 34.17557,167.40922 34.17557,166.73272 C34.17557,166.05512 34.72447,165.50622 35.40207,165.50622" id="Fill-135" fill="#5D0F85"></path>
                        <path d="M29.34558,111.08042 C30.02318,111.08042 30.57208,111.62932 30.57208,112.30582 C30.57208,112.98232 30.02318,113.53232 29.34558,113.53232 C28.66908,113.53232 28.12018,112.98232 28.12018,112.30582 C28.12018,111.62932 28.66908,111.08042 29.34558,111.08042" id="Fill-137" fill="#5D0F85"></path>
                        <path d="M29.34558,117.1357 C30.02318,117.1357 30.57208,117.6846 30.57208,118.3611 C30.57208,119.0387 30.02318,119.5876 29.34558,119.5876 C28.66908,119.5876 28.12018,119.0387 28.12018,118.3611 C28.12018,117.6846 28.66908,117.1357 29.34558,117.1357" id="Fill-139" fill="#5D0F85"></path>
                        <path d="M29.34558,123.19109 C30.02318,123.19109 30.57208,123.73999 30.57208,124.41649 C30.57208,125.09409 30.02318,125.64299 29.34558,125.64299 C28.66908,125.64299 28.12018,125.09409 28.12018,124.41649 C28.12018,123.73999 28.66908,123.19109 29.34558,123.19109" id="Fill-141" fill="#5D0F85"></path>
                        <path d="M29.34558,129.22228 C30.02318,129.22228 30.57208,129.77118 30.57208,130.44768 C30.57208,131.12418 30.02318,131.67418 29.34558,131.67418 C28.66908,131.67418 28.12018,131.12418 28.12018,130.44768 C28.12018,129.77118 28.66908,129.22228 29.34558,129.22228" id="Fill-143" fill="#5D0F85"></path>
                        <polygon id="Fill-145" fill="#5D0F85" points="25.98761 104.8531 26.94351 114.7333 113.19121 114.7333 114.14821 104.8531"></polygon>
                        <path d="M28.04692,113.50702 L112.08802,113.50702 L112.79972,106.10402 L27.33632,106.10402 L28.04692,113.50702 Z M113.19132,115.95892 L26.94362,115.95892 C26.30562,115.95892 25.79082,115.46832 25.71822,114.85562 L24.76232,105.00072 C24.73702,104.65752 24.83492,104.31322 25.08022,104.06792 C25.30132,103.82372 25.64342,103.67632 25.98772,103.67632 L114.17252,103.67632 C114.51572,103.67632 114.85892,103.82372 115.08002,104.06792 C115.30002,104.31322 115.42322,104.65752 115.39792,105.00072 L114.44202,114.85562 C114.34412,115.46832 113.82932,115.95892 113.19132,115.95892 L113.19132,115.95892 Z" id="Fill-147" fill="#5D0F85"></path>
                        <mask id="mask-6" fill="white">
                            <use xlink:href="#path-5"></use>
                        </mask>
                        <g id="Clip-150"></g>
                        <polygon id="Fill-149" fill="#8851FC" mask="url(#mask-6)" points="17.039 104.8531 123.0966 104.8531 123.0966 76.659 17.039 76.659"></polygon>
                        <path d="M18.2655,103.6266 L121.8723,103.6266 L121.8723,77.8844 L18.2655,77.8844 L18.2655,103.6266 Z M123.1208,106.0785 L17.039,106.0785 C16.3526,106.0785 15.8125,105.5395 15.8125,104.8531 L15.8125,76.659 C15.8125,75.9726 16.3526,75.4336 17.039,75.4336 L123.0966,75.4336 C123.783,75.4336 124.323851,75.9726 124.323851,76.659 L124.323851,104.8531 C124.3473,105.5395 123.783,106.0785 123.1208,106.0785 L123.1208,106.0785 Z" id="Fill-151" fill="#5D0F85" mask="url(#mask-6)"></path>
                        <path d="M161.53786,115.95892 C160.85146,115.95892 160.31246,115.41992 160.31246,114.73352 L160.31246,49.91162 C160.31246,49.22522 160.85146,48.68622 161.53786,48.68622 C162.22426,48.68622 162.76326,49.22522 162.76326,49.91162 L162.76326,114.73352 C162.76326,115.39462 162.22426,115.95892 161.53786,115.95892" id="Fill-152" fill="#5D0F85" mask="url(#mask-6)"></path>
                        <path d="M171.49165,43.31701 C171.46745,48.75981 161.58725,63.83751 161.58725,63.83751 C161.58725,63.83751 151.75655,48.71031 151.780705,43.26751 C151.80605,37.82471 156.21815,33.41261 161.65985,33.4367109 C167.10375,33.46101 171.49165,37.87421 171.49165,43.31701" id="Fill-153" fill="#D636B5" mask="url(#mask-6)"></path>
                        <path d="M161.63675,34.66265 C159.33115,34.66265 157.17405,35.54485 155.53175,37.18715 C153.88945,38.80635 152.98195,40.98765 152.98195,43.29215 C152.98195,46.99365 158.47315,56.60435 161.58725,61.58185 C164.70025,56.62965 170.26625,47.04315 170.26625,43.31745 C170.26625,41.01185 169.38405,38.83055 167.74065,37.21245 C166.09835,35.59435 163.96545,34.66265 161.63675,34.66265 M161.58725,65.08755 C161.58725,65.08755 161.56305,65.08755 161.58725,65.08755 C161.17035,65.08755 160.77875,64.86645 160.55765,64.52325 C159.52805,62.95465 150.53005,48.93075 150.53005,43.26795 C150.53005,40.30125 151.70705,37.53145 153.79045,35.42275 C155.87495,33.33825 158.67005,32.18655 161.61255,32.18655 L161.63675,32.18655 C164.60235,32.18655 167.37325,33.36355 169.48195,35.44695 C171.56535,37.55565 172.71705,40.32545 172.71705,43.29215 C172.69395,48.93075 163.64645,62.93045 162.59265,64.49905 C162.37155,64.86645 161.97995,65.08755 161.58725,65.08755" id="Fill-154" fill="#5D0F85" mask="url(#mask-6)"></path>
                        <path d="M184.36286,66.48477 C179.41066,68.76507 161.56206,66.09317 161.56206,66.09317 C161.56206,66.09317 171.17386,50.81857 176.12606,48.56357 C181.07826,46.28327 186.93686,48.46567 189.21716,53.41787 C191.49636,58.37007 189.31506,64.22977 184.36286,66.48477" id="Fill-155" fill="#D636B5" mask="url(#mask-6)"></path>
                        <path d="M163.64656,65.1607 C169.45676,65.9208 180.48976,66.9262 183.87336,65.3818 C185.98096,64.4259 187.57486,62.7088 188.35916,60.5275 C189.16766,58.3704 189.06976,56.0164 188.11386,53.9077 C187.15796,51.8001 185.41666,50.2062 183.25956,49.4208 C181.10246,48.6123 178.74846,48.7102 176.64086,49.6672 C173.28146,51.2358 166.85856,60.2569 163.64656,65.1607 M177.15456,68.6422 C170.56006,68.6422 162.66536,67.4905 161.39046,67.3178 C160.97356,67.2694 160.63146,66.9999 160.45986,66.6072 C160.28716,66.2398 160.31246,65.7987 160.53356,65.4555 C161.53786,63.8616 170.48746,49.8135 175.63436,47.4606 C178.33266,46.2341 181.34776,46.112 184.11756,47.1416 C186.88846,48.1712 189.09506,50.2304 190.34466,52.9023 C191.57116,55.5995 191.69326,58.6146 190.66366,61.3855 C189.63406,64.1553 187.57486,66.3619 184.90186,67.6126 C183.21006,68.3727 180.34236,68.6422 177.15456,68.6422" id="Fill-156" fill="#5D0F85" mask="url(#mask-6)"></path>
                        <path d="M138.787,66.48477 C143.7392,68.76507 161.5878,66.09317 161.5878,66.09317 C161.5878,66.09317 151.9771,50.81857 147.0238,48.56357 C142.0716,46.28327 136.213,48.46567 133.9327,53.41787 C131.6535,58.37007 133.8348,64.22977 138.787,66.48477" id="Fill-157" fill="#D636B5" mask="url(#mask-6)"></path>
                        <path d="M142.90562,48.88202 C141.90132,48.88202 140.87062,49.05362 139.89052,49.42102 C137.73342,50.23062 136.01632,51.82452 135.03622,53.90792 C133.05072,58.24742 134.96252,63.37122 139.27672,65.35782 C142.66032,66.90112 153.66802,65.87152 159.50352,65.13672 C156.29152,60.23292 149.86862,51.21072 146.48502,49.66632 C145.35752,49.15152 144.13102,48.88202 142.90562,48.88202 M145.99552,68.64242 C142.80772,68.64242 139.94002,68.37292 138.27242,67.61282 C132.70752,65.06302 130.25562,58.46742 132.82962,52.90252 C134.05502,50.20642 136.28582,48.17142 139.05672,47.14072 C141.82762,46.11112 144.84272,46.23432 147.53992,47.46082 C152.66372,49.81372 161.63642,63.86182 162.64072,65.45462 C162.86292,65.79782 162.88712,66.24002 162.71552,66.60742 C162.54392,66.97482 162.20072,67.24432 161.78382,67.31802 C160.50892,67.51382 152.59002,68.64242 145.99552,68.64242" id="Fill-158" fill="#5D0F85" mask="url(#mask-6)"></path>
                        <polygon id="Fill-159" fill="#7A4DE0" mask="url(#mask-6)" points="193.85036 104.24029 127.53466 104.24029 133.98176 170.55709 187.40326 170.55709"></polygon>
                        <path d="M135.11003,169.33103 L186.29963,169.33103 L192.50253,105.46613 L128.88293,105.46613 L135.11003,169.33103 Z M187.40293,171.78293 L133.98253,171.78293 C133.34453,171.78293 132.82973,171.29233 132.75603,170.67963 L126.30783,104.36283 C126.28473,104.01963 126.38153,103.67643 126.62683,103.43113 C126.84683,103.18583 127.19113,103.03843 127.53433,103.03843 L193.85003,103.03843 C194.19433,103.03843 194.53643,103.18583 194.75863,103.43113 C194.97863,103.67643 195.10073,104.01963 195.07653,104.36283 L188.62833,170.67963 C188.55573,171.31653 188.03983,171.78293 187.40293,171.78293 L187.40293,171.78293 Z" id="Fill-160" fill="#5D0F85" mask="url(#mask-6)"></path>
                        <path d="M186.56935,159.47558 C187.24585,159.47558 187.79475,160.02448 187.79475,160.70098 C187.79475,161.37748 187.24585,161.92748 186.56935,161.92748 C185.89285,161.92748 185.34395,161.37748 185.34395,160.70098 C185.34395,160.02448 185.89285,159.47558 186.56935,159.47558" id="Fill-161" fill="#5D0F85" mask="url(#mask-6)"></path>
                        <path d="M186.56935,165.50622 C187.24585,165.50622 187.79475,166.05512 187.79475,166.73272 C187.79475,167.40922 187.24585,167.95812 186.56935,167.95812 C185.89285,167.95812 185.34395,167.40922 185.34395,166.73272 C185.34395,166.05512 185.89285,165.50622 186.56935,165.50622" id="Fill-162" fill="#5D0F85" mask="url(#mask-6)"></path>
                        <path d="M180.53871,159.47558 C181.21521,159.47558 181.76411,160.02448 181.76411,160.70098 C181.76411,161.37748 181.21521,161.92748 180.53871,161.92748 C179.86221,161.92748 179.31331,161.37748 179.31331,160.70098 C179.31331,160.02448 179.86221,159.47558 180.53871,159.47558" id="Fill-163" fill="#5D0F85" mask="url(#mask-6)"></path>
                        <path d="M180.53871,165.50622 C181.21521,165.50622 181.76411,166.05512 181.76411,166.73272 C181.76411,167.40922 181.21521,167.95812 180.53871,167.95812 C179.86221,167.95812 179.31331,167.40922 179.31331,166.73272 C179.31331,166.05512 179.86221,165.50622 180.53871,165.50622" id="Fill-164" fill="#5D0F85" mask="url(#mask-6)"></path>
                        <path d="M174.48332,159.47558 C175.15982,159.47558 175.70872,160.02448 175.70872,160.70098 C175.70872,161.37748 175.15982,161.92748 174.48332,161.92748 C173.80572,161.92748 173.25682,161.37748 173.25682,160.70098 C173.25682,160.02448 173.80572,159.47558 174.48332,159.47558" id="Fill-165" fill="#5D0F85" mask="url(#mask-6)"></path>
                        <path d="M174.48332,165.50622 C175.15982,165.50622 175.70872,166.05512 175.70872,166.73272 C175.70872,167.40922 175.15982,167.95812 174.48332,167.95812 C173.80572,167.95812 173.25682,167.40922 173.25682,166.73272 C173.25682,166.05512 173.80572,165.50622 174.48332,165.50622" id="Fill-166" fill="#5D0F85" mask="url(#mask-6)"></path>
                        <path d="M168.42683,159.47558 C169.10443,159.47558 169.65333,160.02448 169.65333,160.70098 C169.65333,161.37748 169.10443,161.92748 168.42683,161.92748 C167.75033,161.92748 167.20143,161.37748 167.20143,160.70098 C167.20143,160.02448 167.75033,159.47558 168.42683,159.47558" id="Fill-167" fill="#5D0F85" mask="url(#mask-6)"></path>
                        <path d="M168.42683,165.50622 C169.10443,165.50622 169.65333,166.05512 169.65333,166.73272 C169.65333,167.40922 169.10443,167.95812 168.42683,167.95812 C167.75033,167.95812 167.20143,167.40922 167.20143,166.73272 C167.20143,166.05512 167.75033,165.50622 168.42683,165.50622" id="Fill-168" fill="#5D0F85" mask="url(#mask-6)"></path>
                        <path d="M161.19312,160.50518 C161.30202,159.83748 161.93122,159.38318 162.59892,159.49208 C163.26772,159.59988 163.72202,160.23018 163.61312,160.89788 C163.50532,161.56668 162.87502,162.01988 162.20732,161.91208 C161.53852,161.80318 161.08422,161.17288 161.19312,160.50518" id="Fill-169" fill="#5D0F85" mask="url(#mask-6)"></path>
                        <path d="M161.19312,166.53637 C161.30202,165.86867 161.93122,165.41437 162.59892,165.52327 C163.26882,165.63107 163.72202,166.26137 163.61312,166.92907 C163.50532,167.59677 162.87502,168.05107 162.20732,167.94217 C161.53852,167.83437 161.08422,167.20407 161.19312,166.53637" id="Fill-170" fill="#5D0F85" mask="url(#mask-6)"></path>
                        <path d="M156.3408,159.47558 C157.0173,159.47558 157.5662,160.02448 157.5662,160.70098 C157.5662,161.37748 157.0173,161.92748 156.3408,161.92748 C155.6643,161.92748 155.1154,161.37748 155.1154,160.70098 C155.1154,160.02448 155.6643,159.47558 156.3408,159.47558" id="Fill-171" fill="#5D0F85" mask="url(#mask-6)"></path>
                        <path d="M156.3408,165.50622 C157.0173,165.50622 157.5662,166.05512 157.5662,166.73272 C157.5662,167.40922 157.0173,167.95812 156.3408,167.95812 C155.6643,167.95812 155.1154,167.40922 155.1154,166.73272 C155.1154,166.05512 155.6643,165.50622 156.3408,165.50622" id="Fill-172" fill="#5D0F85" mask="url(#mask-6)"></path>
                        <path d="M150.28552,159.47558 C150.96202,159.47558 151.51092,160.02448 151.51092,160.70098 C151.51092,161.37748 150.96202,161.92748 150.28552,161.92748 C149.60902,161.92748 149.06012,161.37748 149.06012,160.70098 C149.06012,160.02448 149.60902,159.47558 150.28552,159.47558" id="Fill-173" fill="#5D0F85" mask="url(#mask-6)"></path>
                        <path d="M150.28552,165.50622 C150.96202,165.50622 151.51092,166.05512 151.51092,166.73272 C151.51092,167.40922 150.96202,167.95812 150.28552,167.95812 C149.60902,167.95812 149.06012,167.40922 149.06012,166.73272 C149.06012,166.05512 149.60902,165.50622 150.28552,165.50622" id="Fill-174" fill="#5D0F85" mask="url(#mask-6)"></path>
                        <path d="M144.25378,159.47558 C144.93138,159.47558 145.48028,160.02448 145.48028,160.70098 C145.48028,161.37748 144.93138,161.92748 144.25378,161.92748 C143.57728,161.92748 143.02838,161.37748 143.02838,160.70098 C143.02838,160.02448 143.57728,159.47558 144.25378,159.47558" id="Fill-175" fill="#5D0F85" mask="url(#mask-6)"></path>
                        <path d="M144.25378,165.50622 C144.93138,165.50622 145.48028,166.05512 145.48028,166.73272 C145.48028,167.40922 144.93138,167.95812 144.25378,167.95812 C143.57728,167.95812 143.02838,167.40922 143.02838,166.73272 C143.02838,166.05512 143.57728,165.50622 144.25378,165.50622" id="Fill-176" fill="#5D0F85" mask="url(#mask-6)"></path>
                        <path d="M138.19839,129.22228 C138.87599,129.22228 139.42379,129.77118 139.42379,130.44768 C139.42379,131.12418 138.87599,131.67418 138.19839,131.67418 C137.52189,131.67418 136.97299,131.12418 136.97299,130.44768 C136.97299,129.77118 137.52189,129.22228 138.19839,129.22228" id="Fill-177" fill="#5D0F85" mask="url(#mask-6)"></path>
                        <path d="M138.19839,135.27767 C138.87599,135.27767 139.42379,135.82657 139.42379,136.50307 C139.42379,137.18067 138.87599,137.72957 138.19839,137.72957 C137.52189,137.72957 136.97299,137.18067 136.97299,136.50307 C136.97299,135.82657 137.52189,135.27767 138.19839,135.27767" id="Fill-178" fill="#5D0F85" mask="url(#mask-6)"></path>
                        <path d="M138.19839,141.33306 C138.87599,141.33306 139.42379,141.88196 139.42379,142.55956 C139.42379,143.23606 138.87599,143.78496 138.19839,143.78496 C137.52189,143.78496 136.97299,143.23606 136.97299,142.55956 C136.97299,141.88196 137.52189,141.33306 138.19839,141.33306" id="Fill-179" fill="#5D0F85" mask="url(#mask-6)"></path>
                        <path d="M138.19839,147.36425 C138.87599,147.36425 139.42379,147.91315 139.42379,148.58965 C139.42379,149.26725 138.87599,149.81615 138.19839,149.81615 C137.52189,149.81615 136.97299,149.26725 136.97299,148.58965 C136.97299,147.91315 137.52189,147.36425 138.19839,147.36425" id="Fill-180" fill="#5D0F85" mask="url(#mask-6)"></path>
                        <path d="M138.19839,153.41964 C138.87599,153.41964 139.42379,153.96854 139.42379,154.64614 C139.42379,155.32264 138.87599,155.87154 138.19839,155.87154 C137.52189,155.87154 136.97299,155.32264 136.97299,154.64614 C136.97299,153.96854 137.52189,153.41964 138.19839,153.41964" id="Fill-181" fill="#5D0F85" mask="url(#mask-6)"></path>
                        <path d="M138.19839,159.47558 C138.87599,159.47558 139.42379,160.02448 139.42379,160.70098 C139.42379,161.37748 138.87599,161.92748 138.19839,161.92748 C137.52189,161.92748 136.97299,161.37748 136.97299,160.70098 C136.97299,160.02448 137.52189,159.47558 138.19839,159.47558" id="Fill-182" fill="#5D0F85" mask="url(#mask-6)"></path>
                        <path d="M138.19839,165.50622 C138.87599,165.50622 139.42379,166.05512 139.42379,166.73272 C139.42379,167.40922 138.87599,167.95812 138.19839,167.95812 C137.52189,167.95812 136.97299,167.40922 136.97299,166.73272 C136.97299,166.05512 137.52189,165.50622 138.19839,165.50622" id="Fill-183" fill="#5D0F85" mask="url(#mask-6)"></path>
                        <path d="M132.143,129.22228 C132.8195,129.22228 133.3684,129.77118 133.3684,130.44768 C133.3684,131.12418 132.8195,131.67418 132.143,131.67418 C131.4665,131.67418 130.9176,131.12418 130.9176,130.44768 C130.9176,129.77118 131.4665,129.22228 132.143,129.22228" id="Fill-184" fill="#5D0F85" mask="url(#mask-6)"></path>
                        <path d="M132.143,135.27767 C132.8195,135.27767 133.3684,135.82657 133.3684,136.50307 C133.3684,137.18067 132.8195,137.72957 132.143,137.72957 C131.4665,137.72957 130.9176,137.18067 130.9176,136.50307 C130.9176,135.82657 131.4665,135.27767 132.143,135.27767" id="Fill-185" fill="#5D0F85" mask="url(#mask-6)"></path>
                        <path d="M132.143,141.33306 C132.8195,141.33306 133.3684,141.88196 133.3684,142.55956 C133.3684,143.23606 132.8195,143.78496 132.143,143.78496 C131.4665,143.78496 130.9176,143.23606 130.9176,142.55956 C130.9176,141.88196 131.4665,141.33306 132.143,141.33306" id="Fill-186" fill="#5D0F85" mask="url(#mask-6)"></path>
                        <path d="M132.143,147.36425 C132.8195,147.36425 133.3684,147.91315 133.3684,148.58965 C133.3684,149.26725 132.8195,149.81615 132.143,149.81615 C131.4665,149.81615 130.9176,149.26725 130.9176,148.58965 C130.9176,147.91315 131.4665,147.36425 132.143,147.36425" id="Fill-187" fill="#5D0F85" mask="url(#mask-6)"></path>
                        <path d="M132.143,153.41964 C132.8195,153.41964 133.3684,153.96854 133.3684,154.64614 C133.3684,155.32264 132.8195,155.87154 132.143,155.87154 C131.4665,155.87154 130.9176,155.32264 130.9176,154.64614 C130.9176,153.96854 131.4665,153.41964 132.143,153.41964" id="Fill-188" fill="#5D0F85" mask="url(#mask-6)"></path>
                        <polygon id="Fill-189" fill="#5D0F85" mask="url(#mask-6)" points="129.47033 124.02467 130.13363 130.98767 191.25183 130.98767 191.93823 124.02467"></polygon>
                        <path d="M131.26102,129.76161 L190.14842,129.76161 L190.59062,125.22631 L130.81992,125.22631 L131.26102,129.76161 Z M191.25172,132.21351 L130.13352,132.21351 C129.49552,132.21351 128.98072,131.72291 128.90702,131.11021 L128.22062,124.12301 C128.19642,123.77981 128.29432,123.43661 128.53852,123.19131 C128.76072,122.94601 129.10282,122.79861 129.44712,122.79861 L191.91392,122.79861 C192.25712,122.79861 192.60032,122.94601 192.82142,123.19131 C193.04142,123.43661 193.16352,123.77981 193.14042,124.12301 L192.45292,131.11021 C192.40452,131.74711 191.88972,132.21351 191.25172,132.21351 L191.25172,132.21351 Z" id="Fill-190" fill="#5D0F85" mask="url(#mask-6)"></path>
                        <polygon id="Fill-191" fill="#7A4DE0" mask="url(#mask-6)" points="123.1208 124.025 198.2882 124.025 198.2882 104.0435 123.1208 104.0435"></polygon>
                        <path d="M124.3473,122.7985 L197.0628,122.7985 L197.0628,105.2689 L124.3473,105.2689 L124.3473,122.7985 Z M198.2882,125.2504 L123.1208,125.2504 C122.4344,125.2504 121.8954,124.7114 121.8954,124.025 L121.8954,104.0435 C121.8954,103.3571 122.4344,102.8181 123.1208,102.8181 L198.2882,102.8181 C198.9746,102.8181 199.5136,103.3571 199.5136,104.0435 L199.5136,124.025 C199.5136,124.6861 198.9493,125.2504 198.2882,125.2504 L198.2882,125.2504 Z" id="Fill-192" fill="#5D0F85" mask="url(#mask-6)"></path>
                        <path d="M225.45281,132.43373 C224.76641,132.43373 224.22631,131.89473 224.22631,131.20833 L224.22631,85.55833 C224.22631,84.87193 224.76641,84.33293 225.45281,84.33293 C226.13921,84.33293 226.67821,84.87193 226.67821,85.55833 L226.67821,131.23253 C226.67821,131.89473 226.13921,132.43373 225.45281,132.43373" id="Fill-193" fill="#5D0F85" mask="url(#mask-6)"></path>
                        <path d="M232.46432,80.90071 C232.46432,84.74961 225.47602,95.36461 225.47602,95.36461 C225.47602,95.36461 218.53942,84.70121 218.562462,80.87651 C218.562462,77.02761 221.70192,73.93771 225.52552,73.93771 C229.35022,73.93771 232.46432,77.07601 232.46432,80.90071" id="Fill-194" fill="#8851FC" mask="url(#mask-6)"></path>
                        <path d="M225.50121,75.16388 C222.33871,75.16388 219.79001,77.71368 219.76471,80.87618 C219.76471,83.08278 222.92721,88.96668 225.45281,93.08508 C228.00151,88.99088 231.21351,83.13118 231.21351,80.90038 C231.23881,77.76208 228.68791,75.18808 225.50121,75.16388 C225.52541,75.16388 225.52541,75.16388 225.50121,75.16388 M225.47701,96.61498 L225.47701,96.61498 C225.06011,96.61498 224.66741,96.39498 224.44741,96.05178 C223.71151,94.92318 217.31391,84.97038 217.336948,80.87618 C217.336948,76.36508 221.01541,72.71198 225.52541,72.71198 L225.55071,72.71198 C230.06181,72.71198 233.71491,76.38928 233.71491,80.90038 C233.71491,84.99458 227.26561,94.92318 226.53191,96.02648 C226.28661,96.39498 225.89281,96.61498 225.47701,96.61498" id="Fill-195" fill="#5D0F85" mask="url(#mask-6)"></path>
                        <polygon id="Fill-196" fill="#F6F5F2" mask="url(#mask-6)" points="248.22842 123.82865 201.50042 123.82865 206.03572 170.55665 243.66782 170.55665"></polygon>
                        <path d="M207.13847,169.33103 L242.54087,169.33103 L246.85507,125.05493 L202.82317,125.05493 L207.13847,169.33103 Z M243.66837,171.78293 L206.03517,171.78293 C205.39827,171.78293 204.88237,171.29233 204.80977,170.67963 L200.27447,123.95163 C200.24917,123.60843 200.34707,123.26523 200.59347,123.01993 C200.81347,122.77463 201.15667,122.62723 201.49987,122.62723 L248.22787,122.62723 C248.57107,122.62723 248.91537,122.77463 249.13537,123.01993 C249.35537,123.26523 249.47857,123.60843 249.45437,123.95163 L244.91907,170.67963 C244.84427,171.31653 244.30527,171.78293 243.66837,171.78293 L243.66837,171.78293 Z" id="Fill-197" fill="#5D0F85" mask="url(#mask-6)"></path>
                        <path d="M240.9957,159.47558 C241.6722,159.47558 242.2211,160.02448 242.2211,160.70098 C242.2211,161.37748 241.6722,161.92748 240.9957,161.92748 C240.3192,161.92748 239.7703,161.37748 239.7703,160.70098 C239.7703,160.02448 240.3192,159.47558 240.9957,159.47558" id="Fill-198" fill="#5D0F85" mask="url(#mask-6)"></path>
                        <path d="M240.9957,165.50622 C241.6722,165.50622 242.2211,166.05512 242.2211,166.73272 C242.2211,167.40922 241.6722,167.95812 240.9957,167.95812 C240.3192,167.95812 239.7703,167.40922 239.7703,166.73272 C239.7703,166.05512 240.3192,165.50622 240.9957,165.50622" id="Fill-199" fill="#5D0F85" mask="url(#mask-6)"></path>
                        <path d="M234.96506,159.47558 C235.64156,159.47558 236.19046,160.02448 236.19046,160.70098 C236.19046,161.37748 235.64156,161.92748 234.96506,161.92748 C234.28746,161.92748 233.73966,161.37748 233.73966,160.70098 C233.73966,160.02448 234.28746,159.47558 234.96506,159.47558" id="Fill-200" fill="#5D0F85" mask="url(#mask-6)"></path>
                        <path d="M234.96506,165.50622 C235.64156,165.50622 236.19046,166.05512 236.19046,166.73272 C236.19046,167.40922 235.64156,167.95812 234.96506,167.95812 C234.28746,167.95812 233.73966,167.40922 233.73966,166.73272 C233.73966,166.05512 234.28746,165.50622 234.96506,165.50622" id="Fill-201" fill="#5D0F85" mask="url(#mask-6)"></path>
                        <path d="M228.90967,159.47558 C229.58617,159.47558 230.13507,160.02448 230.13507,160.70098 C230.13507,161.37748 229.58617,161.92748 228.90967,161.92748 C228.23207,161.92748 227.68317,161.37748 227.68317,160.70098 C227.68317,160.02448 228.23207,159.47558 228.90967,159.47558" id="Fill-202" fill="#5D0F85" mask="url(#mask-6)"></path>
                        <path d="M228.90967,165.50622 C229.58617,165.50622 230.13507,166.05512 230.13507,166.73272 C230.13507,167.40922 229.58617,167.95812 228.90967,167.95812 C228.23207,167.95812 227.68317,167.40922 227.68317,166.73272 C227.68317,166.05512 228.23207,165.50622 228.90967,165.50622" id="Fill-203" fill="#5D0F85" mask="url(#mask-6)"></path>
                        <path d="M222.85329,159.47558 C223.53089,159.47558 224.07979,160.02448 224.07979,160.70098 C224.07979,161.37748 223.53089,161.92748 222.85329,161.92748 C222.17679,161.92748 221.62789,161.37748 221.62789,160.70098 C221.62789,160.02448 222.17679,159.47558 222.85329,159.47558" id="Fill-204" fill="#5D0F85" mask="url(#mask-6)"></path>
                        <path d="M222.85329,165.50622 C223.53089,165.50622 224.07979,166.05512 224.07979,166.73272 C224.07979,167.40922 223.53089,167.95812 222.85329,167.95812 C222.17679,167.95812 221.62789,167.40922 221.62789,166.73272 C221.62789,166.05512 222.17679,165.50622 222.85329,165.50622" id="Fill-205" fill="#5D0F85" mask="url(#mask-6)"></path>
                        <path d="M216.82254,159.47558 C217.49904,159.47558 218.04794,160.02448 218.04794,160.70098 C218.04794,161.37748 217.49904,161.92748 216.82254,161.92748 C216.14604,161.92748 215.59714,161.37748 215.59714,160.70098 C215.59714,160.02448 216.14604,159.47558 216.82254,159.47558" id="Fill-206" fill="#5D0F85" mask="url(#mask-6)"></path>
                        <path d="M216.82254,165.50622 C217.49904,165.50622 218.04794,166.05512 218.04794,166.73272 C218.04794,167.40922 217.49904,167.95812 216.82254,167.95812 C216.14604,167.95812 215.59714,167.40922 215.59714,166.73272 C215.59714,166.05512 216.14604,165.50622 216.82254,165.50622" id="Fill-207" fill="#5D0F85" mask="url(#mask-6)"></path>
                        <path d="M210.76726,147.36425 C211.44376,147.36425 211.99266,147.91315 211.99266,148.58965 C211.99266,149.26725 211.44376,149.81615 210.76726,149.81615 C210.09076,149.81615 209.54186,149.26725 209.54186,148.58965 C209.54186,147.91315 210.09076,147.36425 210.76726,147.36425" id="Fill-208" fill="#5D0F85" mask="url(#mask-6)"></path>
                        <path d="M210.76726,153.41964 C211.44376,153.41964 211.99266,153.96854 211.99266,154.64614 C211.99266,155.32264 211.44376,155.87154 210.76726,155.87154 C210.09076,155.87154 209.54186,155.32264 209.54186,154.64614 C209.54186,153.96854 210.09076,153.41964 210.76726,153.41964" id="Fill-209" fill="#5D0F85" mask="url(#mask-6)"></path>
                        <path d="M210.76726,159.47558 C211.44376,159.47558 211.99266,160.02448 211.99266,160.70098 C211.99266,161.37748 211.44376,161.92748 210.76726,161.92748 C210.09076,161.92748 209.54186,161.37748 209.54186,160.70098 C209.54186,160.02448 210.09076,159.47558 210.76726,159.47558" id="Fill-210" fill="#5D0F85" mask="url(#mask-6)"></path>
                        <path d="M210.76726,165.50622 C211.44376,165.50622 211.99266,166.05512 211.99266,166.73272 C211.99266,167.40922 211.44376,167.95812 210.76726,167.95812 C210.09076,167.95812 209.54186,167.40922 209.54186,166.73272 C209.54186,166.05512 210.09076,165.50622 210.76726,165.50622" id="Fill-211" fill="#5D0F85" mask="url(#mask-6)"></path>
                        <path d="M204.71187,147.36425 C205.38837,147.36425 205.93727,147.91315 205.93727,148.58965 C205.93727,149.26725 205.38837,149.81615 204.71187,149.81615 C204.03537,149.81615 203.48647,149.26725 203.48647,148.58965 C203.48647,147.91315 204.03537,147.36425 204.71187,147.36425" id="Fill-212" fill="#5D0F85" mask="url(#mask-6)"></path>
                        <path d="M204.71187,153.41964 C205.38837,153.41964 205.93727,153.96854 205.93727,154.64614 C205.93727,155.32264 205.38837,155.87154 204.71187,155.87154 C204.03537,155.87154 203.48647,155.32264 203.48647,154.64614 C203.48647,153.96854 204.03537,153.41964 204.71187,153.41964" id="Fill-213" fill="#5D0F85" mask="url(#mask-6)"></path>
                        <polygon id="Fill-214" fill="#5D0F85" mask="url(#mask-6)" points="202.84803 137.75377 203.31443 142.68177 246.38933 142.68177 246.85573 137.75377"></polygon>
                        <path d="M204.44226,141.45604 L245.28636,141.45604 L245.53166,138.97994 L204.22116,138.97994 L204.44226,141.45604 Z M246.38966,143.90794 L203.33896,143.90794 C202.70096,143.90794 202.18616,143.41734 202.11356,142.80464 L201.62296,137.87664 C201.59766,137.53344 201.69666,137.19024 201.94196,136.94494 C202.16196,136.69964 202.50516,136.55224 202.84836,136.55224 L246.85606,136.55224 C247.19816,136.55224 247.54246,136.69964 247.76246,136.94494 C247.98246,137.19024 248.10566,137.53344 248.08146,137.87664 L247.59086,142.80464 C247.54246,143.44154 247.02656,143.90794 246.38966,143.90794 L246.38966,143.90794 Z" id="Fill-215" fill="#5D0F85" mask="url(#mask-6)"></path>
                        <polygon id="Fill-216" fill="#F6F5F2" mask="url(#mask-6)" points="198.3619 137.7541 251.317 137.7541 251.317 123.6818 198.3619 123.6818"></polygon>
                        <path d="M199.5873,136.5276 L250.0905,136.5276 L250.0905,124.9072 L199.5873,124.9072 L199.5873,136.5276 Z M251.3412,138.9795 L198.3872,138.9795 C197.6997,138.9795 197.1596,138.4405 197.1596,137.7541 L197.1596,123.6818 C197.1596,122.9954 197.6997,122.4553 198.3872,122.4553 L251.3412,122.4553 C252.0276,122.4553 252.5677,122.9954 252.5677,123.6818 L252.5677,137.7541 C252.5677,138.4405 252.0034,138.9795 251.3412,138.9795 L251.3412,138.9795 Z" id="Fill-217" fill="#5D0F85" mask="url(#mask-6)"></path>
                        <path d="M140.40477,33.04488 C139.98787,33.04488 139.59627,32.84798 139.35097,32.45638 L136.40847,27.69998 C136.06637,27.11148 136.23797,26.37668 136.80117,26.00818 C137.38967,25.66498 138.12557,25.83658 138.49297,26.40088 L141.43547,31.15728 C141.77757,31.74468 141.60707,32.48058 141.04277,32.84798 C140.84587,32.99538 140.62587,33.04488 140.40477,33.04488" id="Fill-218" fill="#F6F5F2" mask="url(#mask-6)"></path>
                        <path d="M125.42585,49.54433 C125.25425,49.54433 125.05735,49.49483 124.88685,49.42113 L119.85985,46.94503 C119.24825,46.65133 119.00185,45.91543 119.29665,45.30273 C119.59035,44.69003 120.32625,44.44473 120.93895,44.73843 L125.96485,47.21453 C126.57755,47.50933 126.82395,48.24413 126.52915,48.85793 C126.30805,49.29903 125.89115,49.54433 125.42585,49.54433" id="Fill-219" fill="#F6F5F2" mask="url(#mask-6)"></path>
                        <path d="M182.74509,33.04488 C182.52399,33.04488 182.30399,32.99538 182.10709,32.87328 C181.51969,32.53008 181.34699,31.76998 181.71439,31.18148 L184.65689,26.42508 C185.02429,25.83658 185.76019,25.66498 186.34869,26.03348 C186.93719,26.37668 187.10879,27.13568 186.74139,27.72528 L183.79889,32.48058 C183.55359,32.84798 183.16199,33.04488 182.74509,33.04488" id="Fill-220" fill="#F6F5F2" mask="url(#mask-6)"></path>
                        <path d="M197.72401,49.54433 C197.28401,49.54433 196.84181,49.29903 196.62071,48.85793 C196.32591,48.24413 196.57231,47.50933 197.18501,47.21453 L202.21091,44.73843 C202.82361,44.44473 203.55951,44.69003 203.85321,45.30273 C204.14801,45.91543 203.90271,46.65133 203.29001,46.94503 L198.26301,49.42113 C198.09251,49.49483 197.89561,49.54433 197.72401,49.54433" id="Fill-221" fill="#F6F5F2" mask="url(#mask-6)"></path>
                        <polygon id="Fill-222" fill="#5D0F85" mask="url(#mask-6)" points="256.9281 114.7575 265.0175 114.7575 265.0175 112.3056 256.9281 112.3056"></polygon>
                        <polygon id="Fill-223" fill="#5D0F85" mask="url(#mask-6)" points="259.7485 117.5757 262.2004 117.5757 262.2004 109.4863 259.7485 109.4863"></polygon>
                        <polygon id="Fill-224" fill="#5D0F85" mask="url(#mask-6)" points="6.6462 40.5284 25.5541 40.5284 25.5541 34.7985 6.6462 34.7985"></polygon>
                        <polygon id="Fill-225" fill="#5D0F85" mask="url(#mask-6)" points="13.1791 47.1174 18.9079 47.1174 18.9079 28.2095 13.1791 28.2095"></polygon>
                        <polygon id="Fill-226" fill="#5D0F85" mask="url(#mask-6)" points="0 117.8221 8.0894 117.8221 8.0894 115.3702 0 115.3702"></polygon>
                        <polygon id="Fill-227" fill="#5D0F85" mask="url(#mask-6)" points="2.7951 120.6414 5.247 120.6414 5.247 112.5509 2.7951 112.5509"></polygon>
                    </g>
                </g>
            </g>
        </g>
    </g>
</svg>