<?xml version="1.0" encoding="UTF-8"?>
<svg width="119px" height="117px" viewBox="0 0 119 117" version="1.1" xmlns="http://www.w3.org/2000/svg" xmlns:xlink="http://www.w3.org/1999/xlink">
    <!-- Generator: sketchtool 64 (101010) - https://sketch.com -->
    <title>478AC767-0E00-4917-B28B-4013B7B6ED2B@3x</title>
    <desc>Created with sketchtool.</desc>
    <g id="Girls-Code-III" stroke="none" stroke-width="1" fill="none" fill-rule="evenodd">
        <g id="Index" transform="translate(-662.000000, -2042.000000)">
            <g id="Seccion-3" transform="translate(291.000000, 1846.000000)">
                <g id="T2" transform="translate(306.000000, 162.000000)">
                    <g id="ilustracion/T2" transform="translate(65.000000, 34.000000)">
                        <g id="Group-81">
                            <path d="M114.0277,52.7223 L54.8067,111.9423 C52.3007,114.4493 48.9037,115.8473 45.3827,115.8473 C44.9527,115.8473 44.5377,115.8323 44.1067,115.7863 C40.1397,115.4023 36.5577,113.2803 34.3437,109.9743 L5.1337,66.6663 L3.0437,63.5763 C-1.0773,57.4723 0.5377,49.2013 6.6407,45.0813 C12.5747,41.0843 20.5697,42.4983 24.7817,48.1873 C24.9047,48.3413 25.0117,48.5103 25.1347,48.6793 L47.3967,81.6873 L95.1947,33.8893 C100.3907,28.6933 108.8307,28.6933 114.0277,33.8893 C119.2237,39.0863 119.2237,47.5113 114.0277,52.7223" id="Fill-1" fill="#D636B5"></path>
                            <path d="M14.097,43.544 C11.683,43.544 9.239,44.252 7.071,45.696 C1.336,49.571 -0.185,57.38 3.689,63.115 L5.78,66.205 L34.99,109.514 C37.096,112.634 40.448,114.633 44.199,114.987 C44.599,115.033 44.998,115.048 45.398,115.048 C48.703,115.048 51.932,113.711 54.269,111.374 L113.49,52.153 C115.857,49.786 117.163,46.634 117.163,43.283 C117.163,39.931 115.857,36.78 113.49,34.412 C111.121,32.044 107.97,30.738 104.618,30.738 C101.267,30.738 98.116,32.044 95.747,34.412 L47.935,82.21 C47.766,82.378 47.55,82.456 47.32,82.425 C47.089,82.409 46.889,82.286 46.751,82.086 L24.505,49.094 C24.398,48.925 24.289,48.787 24.182,48.633 C21.722,45.312 17.941,43.544 14.097,43.544 M45.383,116.601 C44.921,116.601 44.476,116.586 44.03,116.54 C39.832,116.14 36.066,113.895 33.699,110.39 L4.489,67.082 L2.398,63.991 C-1.938,57.55 -0.231,48.772 6.21,44.436 C12.483,40.208 20.908,41.653 25.397,47.726 C25.52,47.879 25.643,48.064 25.766,48.249 L47.504,80.472 L94.641,33.336 C97.3,30.676 100.836,29.216 104.603,29.216 C108.369,29.216 111.906,30.676 114.566,33.336 C117.225,35.996 118.686,39.532 118.686,43.298 C118.686,47.065 117.225,50.601 114.566,53.26 L55.345,112.481 C52.732,115.109 49.088,116.601 45.383,116.601" id="Fill-3" fill="#5D0F85"></path>
                            <polygon id="Fill-5" fill="#5D0F85" points="47.3968 81.6715 50.8718 86.5905 58.9268 70.1415"></polygon>
                            <path d="M48.3958,81.7486 L50.7488,85.0846 L56.2068,73.9386 L48.3958,81.7486 Z M50.8718,87.3596 C50.6248,87.3596 50.3948,87.2366 50.2408,87.0376 L46.7508,82.1176 C46.5358,81.8096 46.5668,81.3946 46.8278,81.1336 L58.3588,69.6026 C58.6198,69.3416 59.0498,69.2956 59.3418,69.5256 C59.6498,69.7416 59.7568,70.1566 59.5878,70.4946 L51.5328,86.9446 C51.4098,87.1906 51.1788,87.3446 50.9018,87.3746 C50.9168,87.3596 50.9018,87.3596 50.8718,87.3596 L50.8718,87.3596 Z" id="Fill-7" fill="#5D0F85"></path>
                            <path d="M73.0111,40.3077 C81.1841,40.3077 87.8101,46.9327 87.8101,55.1067 C87.8101,63.2797 81.1841,69.9057 73.0111,69.9057 C64.8371,69.9057 58.2111,63.2797 58.2111,55.1067 C58.2111,46.9327 64.8371,40.3077 73.0111,40.3077" id="Fill-9" fill="#5D0F85"></path>
                            <path d="M73.0111,41.422 C69.3561,41.422 65.9231,42.848 63.3381,45.434 C58.0111,50.76 58.0111,59.453 63.3381,64.779 C68.6641,70.106 77.3571,70.106 82.6841,64.779 C85.2691,62.194 86.6961,58.762 86.6961,55.107 C86.6961,51.451 85.2691,48.019 82.6841,45.434 C80.0981,42.848 76.6651,41.422 73.0111,41.422 M73.0111,70.998 C68.9321,70.998 64.8531,69.438 61.7551,66.339 C55.5601,60.144 55.5601,50.047 61.7551,43.851 C64.7641,40.842 68.7541,39.193 73.0111,39.193 C77.2681,39.193 81.2571,40.842 84.2661,43.851 C87.2751,46.86 88.9241,50.85 88.9241,55.107 C88.9241,59.363 87.2751,63.353 84.2661,66.362 C81.1681,69.46 77.0891,70.998 73.0111,70.998" id="Fill-11" fill="#5D0F85"></path>
                            <path d="M88.2552,55.5299 C96.4292,55.5299 103.0542,62.1549 103.0542,70.3289 C103.0542,78.5019 96.4292,85.1279 88.2552,85.1279 C80.0822,85.1279 73.4562,78.5019 73.4562,70.3289 C73.4562,62.1549 80.0822,55.5299 88.2552,55.5299" id="Fill-13" fill="#5D0F85"></path>
                            <path d="M88.2552,56.6666 C84.7562,56.6666 81.2572,58.0036 78.5822,60.6566 C73.2562,65.9826 73.2562,74.6746 78.5822,80.0016 C83.9092,85.3286 92.6022,85.3286 97.9282,80.0016 C103.2552,74.6746 103.2552,65.9826 97.9282,60.6566 C95.2532,58.0036 91.7542,56.6666 88.2552,56.6666 M88.2552,86.2426 C84.1772,86.2426 80.0982,84.6826 77.0002,81.5836 C70.8042,75.3886 70.8042,65.2916 77.0002,59.0956 C83.1952,52.8996 93.2922,52.8996 99.4882,59.0956 C105.6842,65.2916 105.6842,75.3886 99.4882,81.5836 C96.3902,84.6826 92.3122,86.2426 88.2552,86.2426" id="Fill-15" fill="#5D0F85"></path>
                            <path d="M45.1956,1.1261 C53.3686,1.1261 59.9946,7.7511 59.9946,15.9251 C59.9946,24.0981 53.3686,30.7241 45.1956,30.7241 C37.0226,30.7241 30.3966,24.0981 30.3966,15.9251 C30.3966,7.7511 37.0226,1.1261 45.1956,1.1261" id="Fill-17" fill="#F6ED29"></path>
                            <path d="M45.1956,2.2403 C41.6966,2.2403 38.1976,3.5773 35.5226,6.2293 C32.9376,8.8153 31.5106,12.2473 31.5106,15.9023 C31.5106,19.5573 32.9376,22.9903 35.5226,25.5753 C40.8496,30.9023 49.5426,30.9023 54.8686,25.5753 C57.4546,22.9903 58.8806,19.5573 58.8806,15.9023 C58.8806,12.2473 57.4546,8.8153 54.8686,6.2293 C52.1936,3.5773 48.6946,2.2403 45.1956,2.2403 M45.1956,31.8163 C41.1176,31.8163 37.0386,30.2563 33.9406,27.1573 C30.9316,24.1493 29.2826,20.1593 29.2826,15.9023 C29.2826,11.6453 30.9316,7.6563 33.9406,4.6473 C40.1356,-1.5487 50.2326,-1.5487 56.4286,4.6473 C59.4376,7.6563 61.0866,11.6453 61.0866,15.9023 C61.0866,20.1593 59.4376,24.1493 56.4286,27.1573 C53.3526,30.2783 49.2746,31.8163 45.1956,31.8163" id="Fill-19" fill="#5D0F85"></path>
                            <path d="M53.554,6.5641 C54.169,6.5641 54.668,7.0631 54.668,7.6781 C54.668,8.2941 54.169,8.7931 53.554,8.7931 C52.938,8.7931 52.439,8.2941 52.439,7.6781 C52.439,7.0631 52.938,6.5641 53.554,6.5641" id="Fill-21" fill="#5D0F85"></path>
                            <path d="M53.554,12.047 C54.169,12.047 54.668,12.546 54.668,13.161 C54.668,13.777 54.169,14.276 53.554,14.276 C52.938,14.276 52.439,13.777 52.439,13.161 C52.439,12.546 52.938,12.047 53.554,12.047" id="Fill-23" fill="#5D0F85"></path>
                            <path d="M53.554,17.5519 C54.169,17.5519 54.668,18.0509 54.668,18.6659 C54.668,19.2819 54.169,19.7809 53.554,19.7809 C52.938,19.7809 52.439,19.2819 52.439,18.6659 C52.439,18.0509 52.938,17.5519 53.554,17.5519" id="Fill-25" fill="#5D0F85"></path>
                            <path d="M53.554,23.0567 C54.169,23.0567 54.668,23.5557 54.668,24.1717 C54.668,24.7867 54.169,25.2857 53.554,25.2857 C52.938,25.2857 52.439,24.7867 52.439,24.1717 C52.439,23.5557 52.938,23.0567 53.554,23.0567" id="Fill-27" fill="#5D0F85"></path>
                            <path d="M48.0482,6.5641 C48.6642,6.5641 49.1632,7.0631 49.1632,7.6781 C49.1632,8.2941 48.6642,8.7931 48.0482,8.7931 C47.4332,8.7931 46.9342,8.2941 46.9342,7.6781 C46.9342,7.0631 47.4332,6.5641 48.0482,6.5641" id="Fill-29" fill="#5D0F85"></path>
                            <path d="M48.0482,12.047 C48.6642,12.047 49.1632,12.546 49.1632,13.161 C49.1632,13.777 48.6642,14.276 48.0482,14.276 C47.4332,14.276 46.9342,13.777 46.9342,13.161 C46.9342,12.546 47.4332,12.047 48.0482,12.047" id="Fill-31" fill="#5D0F85"></path>
                            <path d="M48.0482,17.5519 C48.6642,17.5519 49.1632,18.0509 49.1632,18.6659 C49.1632,19.2819 48.6642,19.7809 48.0482,19.7809 C47.4332,19.7809 46.9342,19.2819 46.9342,18.6659 C46.9342,18.0509 47.4332,17.5519 48.0482,17.5519" id="Fill-33" fill="#5D0F85"></path>
                            <path d="M48.0482,23.0567 C48.6642,23.0567 49.1632,23.5557 49.1632,24.1717 C49.1632,24.7867 48.6642,25.2857 48.0482,25.2857 C47.4332,25.2857 46.9342,24.7867 46.9342,24.1717 C46.9342,23.5557 47.4332,23.0567 48.0482,23.0567" id="Fill-35" fill="#5D0F85"></path>
                            <path d="M42.5433,6.5641 C43.1583,6.5641 43.6573,7.0631 43.6573,7.6781 C43.6573,8.2941 43.1583,8.7931 42.5433,8.7931 C41.9283,8.7931 41.4293,8.2941 41.4293,7.6781 C41.4293,7.0631 41.9283,6.5641 42.5433,6.5641" id="Fill-37" fill="#5D0F85"></path>
                            <path d="M42.5433,12.047 C43.1583,12.047 43.6573,12.546 43.6573,13.161 C43.6573,13.777 43.1583,14.276 42.5433,14.276 C41.9283,14.276 41.4293,13.777 41.4293,13.161 C41.4293,12.546 41.9283,12.047 42.5433,12.047" id="Fill-39" fill="#5D0F85"></path>
                            <path d="M42.5433,17.5519 C43.1583,17.5519 43.6573,18.0509 43.6573,18.6659 C43.6573,19.2819 43.1583,19.7809 42.5433,19.7809 C41.9283,19.7809 41.4293,19.2819 41.4293,18.6659 C41.4293,18.0509 41.9283,17.5519 42.5433,17.5519" id="Fill-41" fill="#5D0F85"></path>
                            <path d="M42.5433,23.0567 C43.1583,23.0567 43.6573,23.5557 43.6573,24.1717 C43.6573,24.7867 43.1583,25.2857 42.5433,25.2857 C41.9283,25.2857 41.4293,24.7867 41.4293,24.1717 C41.4293,23.5557 41.9283,23.0567 42.5433,23.0567" id="Fill-43" fill="#5D0F85"></path>
                            <path d="M37.0609,6.5641 C37.6759,6.5641 38.1749,7.0631 38.1749,7.6781 C38.1749,8.2941 37.6759,8.7931 37.0609,8.7931 C36.4459,8.7931 35.9469,8.2941 35.9469,7.6781 C35.9469,7.0631 36.4459,6.5641 37.0609,6.5641" id="Fill-45" fill="#5D0F85"></path>
                            <path d="M37.0609,12.047 C37.6759,12.047 38.1749,12.546 38.1749,13.161 C38.1749,13.777 37.6759,14.276 37.0609,14.276 C36.4459,14.276 35.9469,13.777 35.9469,13.161 C35.9469,12.546 36.4459,12.047 37.0609,12.047" id="Fill-47" fill="#5D0F85"></path>
                            <path d="M37.0609,17.5519 C37.6759,17.5519 38.1749,18.0509 38.1749,18.6659 C38.1749,19.2819 37.6759,19.7809 37.0609,19.7809 C36.4459,19.7809 35.9469,19.2819 35.9469,18.6659 C35.9469,18.0509 36.4459,17.5519 37.0609,17.5519" id="Fill-49" fill="#5D0F85"></path>
                            <path d="M37.0609,23.0567 C37.6759,23.0567 38.1749,23.5557 38.1749,24.1717 C38.1749,24.7867 37.6759,25.2857 37.0609,25.2857 C36.4459,25.2857 35.9469,24.7867 35.9469,24.1717 C35.9469,23.5557 36.4459,23.0567 37.0609,23.0567" id="Fill-51" fill="#5D0F85"></path>
                            <path d="M60.4183,16.3482 C68.5913,16.3482 75.2173,22.9742 75.2173,31.1472 C75.2173,39.3202 68.5913,45.9462 60.4183,45.9462 C52.2443,45.9462 45.6193,39.3202 45.6193,31.1472 C45.6193,22.9742 52.2443,16.3482 60.4183,16.3482" id="Fill-53" fill="#F6ED29"></path>
                            <path d="M60.4183,17.485 C56.9193,17.485 53.4203,18.822 50.7453,21.475 C45.4183,26.801 45.4183,35.493 50.7453,40.82 C53.3303,43.405 56.7633,44.832 60.4183,44.832 C64.0733,44.832 67.5053,43.405 70.0913,40.82 C75.4173,35.493 75.4173,26.801 70.0913,21.475 C67.4393,18.822 63.9393,17.485 60.4183,17.485 M60.4183,47.061 C56.1613,47.061 52.1723,45.411 49.1633,42.402 C42.9673,36.207 42.9673,26.11 49.1633,19.914 C55.3583,13.718 65.4553,13.718 71.6503,19.914 C77.8473,26.11 77.8473,36.207 71.6503,42.402 C68.6643,45.411 64.6753,47.061 60.4183,47.061" id="Fill-55" fill="#5D0F85"></path>
                            <path d="M65.7669,25.1295 C66.3819,25.1295 66.8809,25.6285 66.8809,26.2445 C66.8809,26.8595 66.3819,27.3585 65.7669,27.3585 C65.1519,27.3585 64.6529,26.8595 64.6529,26.2445 C64.6529,25.6285 65.1519,25.1295 65.7669,25.1295" id="Fill-57" fill="#5D0F85"></path>
                            <path d="M65.7669,34.9361 C66.3819,34.9361 66.8809,35.4351 66.8809,36.0501 C66.8809,36.6661 66.3819,37.1651 65.7669,37.1651 C65.1519,37.1651 64.6529,36.6661 64.6529,36.0501 C64.6529,35.4351 65.1519,34.9361 65.7669,34.9361" id="Fill-59" fill="#5D0F85"></path>
                            <path d="M55.9603,25.1295 C56.5763,25.1295 57.0753,25.6285 57.0753,26.2445 C57.0753,26.8595 56.5763,27.3585 55.9603,27.3585 C55.3453,27.3585 54.8463,26.8595 54.8463,26.2445 C54.8463,25.6285 55.3453,25.1295 55.9603,25.1295" id="Fill-61" fill="#5D0F85"></path>
                            <path d="M55.9603,34.9361 C56.5763,34.9361 57.0753,35.4351 57.0753,36.0501 C57.0753,36.6661 56.5763,37.1651 55.9603,37.1651 C55.3453,37.1651 54.8463,36.6661 54.8463,36.0501 C54.8463,35.4351 55.3453,34.9361 55.9603,34.9361" id="Fill-63" fill="#5D0F85"></path>
                            <path d="M75.6624,31.5929 C83.8364,31.5929 90.4624,38.2189 90.4624,46.3919 C90.4624,54.5649 83.8364,61.1909 75.6624,61.1909 C67.4894,61.1909 60.8634,54.5649 60.8634,46.3919 C60.8634,38.2189 67.4894,31.5929 75.6624,31.5929" id="Fill-65" fill="#F6ED29"></path>
                            <path d="M75.6624,32.7076 C72.1634,32.7076 68.6644,34.0446 65.9894,36.6966 C60.6634,42.0236 60.6634,50.7156 65.9894,56.0426 C71.3164,61.3696 80.0094,61.3696 85.3354,56.0426 C90.6624,50.7156 90.6624,42.0236 85.3354,36.6966 C82.6614,34.0446 79.1624,32.7076 75.6624,32.7076 M75.6624,62.2836 C71.5844,62.2836 67.5054,60.7226 64.4074,57.6246 C58.2114,51.4286 58.2114,41.3326 64.4074,35.1366 C70.6034,28.9406 80.6994,28.9406 86.8954,35.1366 C93.0924,41.3326 93.0924,51.4286 86.8954,57.6246 C83.7984,60.7226 79.7194,62.2836 75.6624,62.2836" id="Fill-67" fill="#5D0F85"></path>
                            <path d="M82.3939,39.7501 C83.0089,39.7501 83.5079,40.2491 83.5079,40.8651 C83.5079,41.4801 83.0089,41.9791 82.3939,41.9791 C81.7789,41.9791 81.2799,41.4801 81.2799,40.8651 C81.2799,40.2491 81.7789,39.7501 82.3939,39.7501" id="Fill-69" fill="#5D0F85"></path>
                            <path d="M82.3939,51.2286 C83.0089,51.2286 83.5079,51.7276 83.5079,52.3426 C83.5079,52.9576 83.0089,53.4576 82.3939,53.4576 C81.7789,53.4576 81.2799,52.9576 81.2799,52.3426 C81.2799,51.7276 81.7789,51.2286 82.3939,51.2286" id="Fill-71" fill="#5D0F85"></path>
                            <path d="M70.9154,39.7501 C71.5304,39.7501 72.0294,40.2491 72.0294,40.8651 C72.0294,41.4801 71.5304,41.9791 70.9154,41.9791 C70.3004,41.9791 69.8014,41.4801 69.8014,40.8651 C69.8014,40.2491 70.3004,39.7501 70.9154,39.7501" id="Fill-73" fill="#5D0F85"></path>
                            <path d="M70.9154,51.2286 C71.5304,51.2286 72.0294,51.7276 72.0294,52.3426 C72.0294,52.9576 71.5304,53.4576 70.9154,53.4576 C70.3004,53.4576 69.8014,52.9576 69.8014,52.3426 C69.8014,51.7276 70.3004,51.2286 70.9154,51.2286" id="Fill-75" fill="#5D0F85"></path>
                            <path d="M90.8851,46.8155 C99.0591,46.8155 105.6841,53.4405 105.6841,61.6145 C105.6841,69.7875 99.0591,76.4135 90.8851,76.4135 C82.7121,76.4135 76.0861,69.7875 76.0861,61.6145 C76.0861,53.4405 82.7121,46.8155 90.8851,46.8155" id="Fill-77" fill="#F6ED29"></path>
                            <path d="M90.8851,47.9298 C87.3861,47.9298 83.8871,49.2668 81.2121,51.9198 C75.8861,57.2458 75.8861,65.9378 81.2121,71.2648 C83.7981,73.8498 87.2301,75.2768 90.8851,75.2768 C94.5401,75.2768 97.9731,73.8498 100.5581,71.2648 C105.8851,65.9378 105.8851,57.2458 100.5581,51.9198 C97.8831,49.2668 94.3841,47.9298 90.8851,47.9298 M90.8851,77.5278 C86.6281,77.5278 82.6391,75.8788 79.6301,72.8698 C73.4341,66.6738 73.4341,56.5768 79.6301,50.3818 C85.8261,44.1858 95.9221,44.1858 102.1181,50.3818 C108.3141,56.5768 108.3141,66.6738 102.1181,72.8698 C99.1321,75.8558 95.1421,77.5278 90.8851,77.5278" id="Fill-79" fill="#5D0F85"></path>
                        </g>
                    </g>
                </g>
            </g>
        </g>
    </g>
</svg>