<svg width="62" height="113" viewBox="0 0 62 113" fill="none" xmlns="http://www.w3.org/2000/svg">
<path fill-rule="evenodd" clip-rule="evenodd" d="M30.8116 71.2154C30.3124 71.2154 29.9204 70.8234 29.9204 70.3242V23.181C29.9204 22.6818 30.3124 22.2898 30.8116 22.2898C31.3108 22.2898 31.7028 22.6818 31.7028 23.181V70.3242C31.7028 70.805 31.3108 71.2154 30.8116 71.2154Z" fill="#5D0F85"/>
<path fill-rule="evenodd" clip-rule="evenodd" d="M38.0509 18.3849C38.0333 22.3433 30.8469 33.3089 30.8469 33.3089C30.8469 33.3089 23.6981 22.3073 23.7149 18.3489C23.7333 14.3905 26.9421 11.1817 30.9005 11.1993C34.8589 11.2177 38.0509 14.4265 38.0509 18.3849Z" fill="#D636B5"/>
<path fill-rule="evenodd" clip-rule="evenodd" d="M30.8828 12.0908C29.2068 12.0908 27.6372 12.7324 26.4428 13.9276C25.2484 15.1044 24.5892 16.6908 24.5892 18.3668C24.5892 21.0588 28.5828 28.0484 30.8468 31.6684C33.1116 28.0668 37.1596 21.0948 37.1596 18.3852C37.1596 16.7084 36.5172 15.122 35.3228 13.9452C34.1284 12.7684 32.5764 12.0908 30.8828 12.0908ZM30.8468 34.218C30.8468 34.218 30.83 34.218 30.8468 34.218C30.5436 34.218 30.2588 34.0572 30.0988 33.8076C29.3492 32.6668 22.8052 22.4676 22.8052 18.3492C22.8052 16.1916 23.662 14.1772 25.1772 12.6436C26.6932 11.1276 28.7252 10.29 30.8652 10.29H30.8828C33.0396 10.29 35.0548 11.146 36.5884 12.6612C38.1036 14.1948 38.942 16.2092 38.942 18.3668C38.9244 22.4676 32.3444 32.6492 31.578 33.79C31.418 34.0572 31.1324 34.218 30.8468 34.218Z" fill="#5D0F85"/>
<path fill-rule="evenodd" clip-rule="evenodd" d="M47.4115 35.2341C43.8091 36.8925 30.8291 34.9493 30.8291 34.9493C30.8291 34.9493 37.8187 23.8405 41.4203 22.2005C45.0219 20.5421 49.2835 22.1293 50.9411 25.7309C52.5995 29.3325 51.0131 33.5941 47.4115 35.2341Z" fill="#D636B5"/>
<path fill-rule="evenodd" clip-rule="evenodd" d="M32.3446 34.2714C36.5702 34.8242 44.5942 35.5554 47.055 34.4322C48.5886 33.737 49.747 32.4882 50.3182 30.9018C50.9062 29.333 50.8342 27.621 50.139 26.0874C49.4438 24.5546 48.1782 23.3954 46.6086 22.8242C45.0398 22.2362 43.3278 22.3074 41.795 23.0034C39.3526 24.1442 34.6806 30.705 32.3446 34.2714ZM42.1694 36.8034C37.3726 36.8034 31.6318 35.9658 30.7046 35.8402C30.4014 35.805 30.1518 35.609 30.027 35.3234C29.9022 35.0562 29.9206 34.7354 30.0806 34.4858C30.8118 33.3266 37.3198 23.1098 41.0638 21.3986C43.0254 20.5066 45.2182 20.4178 47.2326 21.1666C49.2478 21.9154 50.8526 23.413 51.7614 25.3562C52.6534 27.3178 52.7422 29.5106 51.9942 31.5258C51.2446 33.5402 49.747 35.145 47.8038 36.0546C46.5734 36.6074 44.4878 36.8034 42.1694 36.8034Z" fill="#5D0F85"/>
<path fill-rule="evenodd" clip-rule="evenodd" d="M14.2646 35.2341C17.867 36.8925 30.847 34.9493 30.847 34.9493C30.847 34.9493 23.8574 23.8405 20.2558 22.2005C16.6542 20.5421 12.3926 22.1293 10.735 25.7309C9.07662 29.3325 10.663 33.5941 14.2646 35.2341Z" fill="#D636B5"/>
<path fill-rule="evenodd" clip-rule="evenodd" d="M17.2608 22.4321C16.5296 22.4321 15.78 22.5569 15.068 22.8241C13.4984 23.4129 12.2496 24.5721 11.5376 26.0873C10.0928 29.2433 11.4832 32.9697 14.6216 34.4145C17.0816 35.5369 25.088 34.7881 29.3312 34.2537C26.996 30.6873 22.324 24.1257 19.864 23.0025C19.044 22.6281 18.152 22.4321 17.2608 22.4321ZM19.5072 36.8033C17.1888 36.8033 15.1032 36.6073 13.8904 36.0545C9.84319 34.2001 8.05999 29.4033 9.93279 25.3561C10.824 23.3953 12.4464 21.9153 14.4616 21.1657C16.476 20.4169 18.6696 20.5065 20.6304 21.3985C24.3568 23.1097 30.8824 33.3265 31.6136 34.4849C31.7744 34.7345 31.792 35.0561 31.6672 35.3233C31.5424 35.5905 31.2928 35.7865 30.9896 35.8401C30.0624 35.9825 24.3032 36.8033 19.5072 36.8033Z" fill="#5D0F85"/>
<path fill-rule="evenodd" clip-rule="evenodd" d="M54.3115 62.6924H6.08105L10.7699 110.923H49.6219L54.3115 62.6924Z" fill="#7A4DE0"/>
<mask id="mask0" mask-type="alpha" maskUnits="userSpaceOnUse" x="5" y="61" width="51" height="51">
<path fill-rule="evenodd" clip-rule="evenodd" d="M5.18701 61.8186H55.2054V111.814H5.18701V61.8186Z" fill="white"/>
</mask>
<g mask="url(#mask0)">
<path fill-rule="evenodd" clip-rule="evenodd" d="M11.5904 110.031H48.8192L53.3312 63.5842H7.06163L11.5904 110.031ZM49.6216 111.815H10.7704C10.3072 111.815 9.93283 111.458 9.87843 111.012L5.18963 62.7818C5.17203 62.5322 5.24243 62.2826 5.42163 62.1042C5.58163 61.9258 5.83123 61.8186 6.08083 61.8186H54.3112C54.5608 61.8186 54.8104 61.9258 54.9712 62.1042C55.132 62.2826 55.2208 62.5322 55.2032 62.7818L50.5136 111.012C50.46 111.475 50.0856 111.815 49.6216 111.815Z" fill="#5D0F85"/>
</g>
<path fill-rule="evenodd" clip-rule="evenodd" d="M49.0157 102.864C49.5085 102.864 49.9077 103.263 49.9077 103.755C49.9077 104.247 49.5085 104.647 49.0157 104.647C48.5237 104.647 48.1245 104.247 48.1245 103.755C48.1245 103.263 48.5237 102.864 49.0157 102.864Z" fill="#5D0F85"/>
<path fill-rule="evenodd" clip-rule="evenodd" d="M49.0157 107.25C49.5085 107.25 49.9077 107.649 49.9077 108.142C49.9077 108.634 49.5085 109.033 49.0157 109.033C48.5237 109.033 48.1245 108.634 48.1245 108.142C48.1245 107.649 48.5237 107.25 49.0157 107.25Z" fill="#5D0F85"/>
<path fill-rule="evenodd" clip-rule="evenodd" d="M44.6295 102.864C45.1215 102.864 45.5207 103.263 45.5207 103.755C45.5207 104.247 45.1215 104.647 44.6295 104.647C44.1375 104.647 43.7383 104.247 43.7383 103.755C43.7383 103.263 44.1375 102.864 44.6295 102.864Z" fill="#5D0F85"/>
<path fill-rule="evenodd" clip-rule="evenodd" d="M44.6295 107.25C45.1215 107.25 45.5207 107.649 45.5207 108.142C45.5207 108.634 45.1215 109.033 44.6295 109.033C44.1375 109.033 43.7383 108.634 43.7383 108.142C43.7383 107.649 44.1375 107.25 44.6295 107.25Z" fill="#5D0F85"/>
<path fill-rule="evenodd" clip-rule="evenodd" d="M40.2257 102.864C40.7177 102.864 41.1169 103.263 41.1169 103.755C41.1169 104.247 40.7177 104.647 40.2257 104.647C39.7337 104.647 39.3345 104.247 39.3345 103.755C39.3345 103.263 39.7337 102.864 40.2257 102.864Z" fill="#5D0F85"/>
<path fill-rule="evenodd" clip-rule="evenodd" d="M40.2257 107.25C40.7177 107.25 41.1169 107.649 41.1169 108.142C41.1169 108.634 40.7177 109.033 40.2257 109.033C39.7337 109.033 39.3345 108.634 39.3345 108.142C39.3345 107.649 39.7337 107.25 40.2257 107.25Z" fill="#5D0F85"/>
<path fill-rule="evenodd" clip-rule="evenodd" d="M35.8219 102.864C36.3139 102.864 36.7131 103.263 36.7131 103.755C36.7131 104.247 36.3139 104.647 35.8219 104.647C35.3299 104.647 34.9307 104.247 34.9307 103.755C34.9307 103.263 35.3299 102.864 35.8219 102.864Z" fill="#5D0F85"/>
<path fill-rule="evenodd" clip-rule="evenodd" d="M35.8219 107.25C36.3139 107.25 36.7131 107.649 36.7131 108.142C36.7131 108.634 36.3139 109.033 35.8219 109.033C35.3299 109.033 34.9307 108.634 34.9307 108.142C34.9307 107.649 35.3299 107.25 35.8219 107.25Z" fill="#5D0F85"/>
<path fill-rule="evenodd" clip-rule="evenodd" d="M30.5611 103.613C30.6403 103.127 31.0979 102.797 31.5835 102.876C32.0699 102.954 32.3995 103.413 32.3203 103.898C32.2419 104.385 31.7835 104.714 31.2979 104.635C30.8115 104.557 30.4819 104.098 30.5611 103.613Z" fill="#5D0F85"/>
<path fill-rule="evenodd" clip-rule="evenodd" d="M30.5611 107.999C30.6403 107.513 31.0979 107.183 31.5835 107.262C32.0699 107.341 32.3995 107.799 32.3203 108.285C32.2427 108.77 31.7835 109.101 31.2979 109.021C30.8115 108.943 30.4819 108.485 30.5611 107.999Z" fill="#5D0F85"/>
<path fill-rule="evenodd" clip-rule="evenodd" d="M27.0313 102.864C27.5241 102.864 27.9225 103.263 27.9225 103.755C27.9225 104.247 27.5241 104.647 27.0313 104.647C26.5393 104.647 26.1401 104.247 26.1401 103.755C26.1401 103.263 26.5393 102.864 27.0313 102.864Z" fill="#5D0F85"/>
<path fill-rule="evenodd" clip-rule="evenodd" d="M27.0313 107.25C27.5241 107.25 27.9225 107.649 27.9225 108.142C27.9225 108.634 27.5241 109.033 27.0313 109.033C26.5393 109.033 26.1401 108.634 26.1401 108.142C26.1401 107.649 26.5393 107.25 27.0313 107.25Z" fill="#5D0F85"/>
<path fill-rule="evenodd" clip-rule="evenodd" d="M22.627 102.864C23.119 102.864 23.5182 103.263 23.5182 103.755C23.5182 104.247 23.119 104.647 22.627 104.647C22.135 104.647 21.7358 104.247 21.7358 103.755C21.7358 103.263 22.135 102.864 22.627 102.864Z" fill="#5D0F85"/>
<path fill-rule="evenodd" clip-rule="evenodd" d="M22.627 107.25C23.119 107.25 23.5182 107.649 23.5182 108.142C23.5182 108.634 23.119 109.033 22.627 109.033C22.135 109.033 21.7358 108.634 21.7358 108.142C21.7358 107.649 22.135 107.25 22.627 107.25Z" fill="#5D0F85"/>
<path fill-rule="evenodd" clip-rule="evenodd" d="M18.2413 102.864C18.7333 102.864 19.1325 103.263 19.1325 103.755C19.1325 104.247 18.7333 104.647 18.2413 104.647C17.7493 104.647 17.3501 104.247 17.3501 103.755C17.3501 103.263 17.7493 102.864 18.2413 102.864Z" fill="#5D0F85"/>
<path fill-rule="evenodd" clip-rule="evenodd" d="M18.2413 107.25C18.7333 107.25 19.1325 107.649 19.1325 108.142C19.1325 108.634 18.7333 109.033 18.2413 109.033C17.7493 109.033 17.3501 108.634 17.3501 108.142C17.3501 107.649 17.7493 107.25 18.2413 107.25Z" fill="#5D0F85"/>
<path fill-rule="evenodd" clip-rule="evenodd" d="M13.8375 80.8616C14.3295 80.8616 14.7287 81.2608 14.7287 81.7528C14.7287 82.2448 14.3295 82.6448 13.8375 82.6448C13.3455 82.6448 12.9463 82.2448 12.9463 81.7528C12.9463 81.2608 13.3455 80.8616 13.8375 80.8616Z" fill="#5D0F85"/>
<path fill-rule="evenodd" clip-rule="evenodd" d="M13.8375 85.2654C14.3295 85.2654 14.7287 85.6646 14.7287 86.1566C14.7287 86.6494 14.3295 87.0486 13.8375 87.0486C13.3455 87.0486 12.9463 86.6494 12.9463 86.1566C12.9463 85.6646 13.3455 85.2654 13.8375 85.2654Z" fill="#5D0F85"/>
<path fill-rule="evenodd" clip-rule="evenodd" d="M13.8375 89.6694C14.3295 89.6694 14.7287 90.0686 14.7287 90.5614C14.7287 91.0534 14.3295 91.4526 13.8375 91.4526C13.3455 91.4526 12.9463 91.0534 12.9463 90.5614C12.9463 90.0686 13.3455 89.6694 13.8375 89.6694Z" fill="#5D0F85"/>
<path fill-rule="evenodd" clip-rule="evenodd" d="M13.8375 94.0557C14.3295 94.0557 14.7287 94.4549 14.7287 94.9469C14.7287 95.4397 14.3295 95.8389 13.8375 95.8389C13.3455 95.8389 12.9463 95.4397 12.9463 94.9469C12.9463 94.4549 13.3455 94.0557 13.8375 94.0557Z" fill="#5D0F85"/>
<path fill-rule="evenodd" clip-rule="evenodd" d="M13.8375 98.4597C14.3295 98.4597 14.7287 98.8589 14.7287 99.3517C14.7287 99.8437 14.3295 100.243 13.8375 100.243C13.3455 100.243 12.9463 99.8437 12.9463 99.3517C12.9463 98.8589 13.3455 98.4597 13.8375 98.4597Z" fill="#5D0F85"/>
<path fill-rule="evenodd" clip-rule="evenodd" d="M13.8375 102.864C14.3295 102.864 14.7287 103.263 14.7287 103.755C14.7287 104.247 14.3295 104.647 13.8375 104.647C13.3455 104.647 12.9463 104.247 12.9463 103.755C12.9463 103.263 13.3455 102.864 13.8375 102.864Z" fill="#5D0F85"/>
<path fill-rule="evenodd" clip-rule="evenodd" d="M13.8375 107.25C14.3295 107.25 14.7287 107.649 14.7287 108.142C14.7287 108.634 14.3295 109.033 13.8375 109.033C13.3455 109.033 12.9463 108.634 12.9463 108.142C12.9463 107.649 13.3455 107.25 13.8375 107.25Z" fill="#5D0F85"/>
<path fill-rule="evenodd" clip-rule="evenodd" d="M9.4335 80.8616C9.9255 80.8616 10.3247 81.2608 10.3247 81.7528C10.3247 82.2448 9.9255 82.6448 9.4335 82.6448C8.9407 82.6448 8.5415 82.2448 8.5415 81.7528C8.5415 81.2608 8.9407 80.8616 9.4335 80.8616Z" fill="#5D0F85"/>
<path fill-rule="evenodd" clip-rule="evenodd" d="M9.4335 85.2654C9.9255 85.2654 10.3247 85.6646 10.3247 86.1566C10.3247 86.6494 9.9255 87.0486 9.4335 87.0486C8.9407 87.0486 8.5415 86.6494 8.5415 86.1566C8.5415 85.6646 8.9407 85.2654 9.4335 85.2654Z" fill="#5D0F85"/>
<path fill-rule="evenodd" clip-rule="evenodd" d="M9.4335 89.6694C9.9255 89.6694 10.3247 90.0686 10.3247 90.5614C10.3247 91.0534 9.9255 91.4526 9.4335 91.4526C8.9407 91.4526 8.5415 91.0534 8.5415 90.5614C8.5415 90.0686 8.9407 89.6694 9.4335 89.6694Z" fill="#5D0F85"/>
<path fill-rule="evenodd" clip-rule="evenodd" d="M9.4335 94.0557C9.9255 94.0557 10.3247 94.4549 10.3247 94.9469C10.3247 95.4397 9.9255 95.8389 9.4335 95.8389C8.9407 95.8389 8.5415 95.4397 8.5415 94.9469C8.5415 94.4549 8.9407 94.0557 9.4335 94.0557Z" fill="#5D0F85"/>
<path fill-rule="evenodd" clip-rule="evenodd" d="M9.4335 98.4597C9.9255 98.4597 10.3247 98.8589 10.3247 99.3517C10.3247 99.8437 9.9255 100.243 9.4335 100.243C8.9407 100.243 8.5415 99.8437 8.5415 99.3517C8.5415 98.8589 8.9407 98.4597 9.4335 98.4597Z" fill="#5D0F85"/>
<path fill-rule="evenodd" clip-rule="evenodd" d="M7.48975 77.0815L7.97135 82.1455H52.4217L52.9209 77.0815H7.48975Z" fill="#5D0F85"/>
<path fill-rule="evenodd" clip-rule="evenodd" d="M8.79144 81.2537H51.6194L51.9402 77.9553H8.47064L8.79144 81.2537ZM52.4218 83.0369H7.97144C7.50824 83.0369 7.13304 82.6801 7.07944 82.2345L6.58024 77.1529C6.56264 76.9033 6.63384 76.6537 6.81224 76.4753C6.97304 76.2969 7.22264 76.1897 7.47224 76.1897H52.9034C53.1522 76.1897 53.4026 76.2969 53.5626 76.4753C53.7234 76.6537 53.8122 76.9033 53.7946 77.1529L53.2954 82.2345C53.2594 82.6977 52.885 83.0369 52.4218 83.0369Z" fill="#5D0F85"/>
<mask id="mask1" mask-type="alpha" maskUnits="userSpaceOnUse" x="0" y="0" width="62" height="112">
<path fill-rule="evenodd" clip-rule="evenodd" d="M0 111.814H61.6768V0H0V111.814Z" fill="white"/>
</mask>
<g mask="url(#mask1)">
<path fill-rule="evenodd" clip-rule="evenodd" d="M2.87207 77.0816H57.5393V62.5496H2.87207V77.0816Z" fill="#7A4DE0"/>
<path fill-rule="evenodd" clip-rule="evenodd" d="M3.76336 76.1904H56.6466V63.4416H3.76336V76.1904ZM57.5394 77.9728H2.87216C2.37296 77.9728 1.98096 77.5808 1.98096 77.0816V62.5496C1.98096 62.0504 2.37296 61.6584 2.87216 61.6584H57.5394C58.0386 61.6584 58.4306 62.0504 58.4306 62.5496V77.0816C58.4306 77.5624 58.0202 77.9728 57.5394 77.9728Z" fill="#5D0F85"/>
<path fill-rule="evenodd" clip-rule="evenodd" d="M15.4419 10.9144C15.1387 10.9144 14.8539 10.7712 14.6747 10.4864L12.5355 7.02716C12.2859 6.59916 12.4107 6.06476 12.8211 5.79676C13.2491 5.54716 13.7835 5.67196 14.0515 6.08236L16.1907 9.54156C16.4403 9.96876 16.3155 10.504 15.9051 10.7712C15.7627 10.8784 15.6019 10.9144 15.4419 10.9144Z" fill="#7A4DE0"/>
<path fill-rule="evenodd" clip-rule="evenodd" d="M15.4419 10.9144C15.1387 10.9144 14.8539 10.7712 14.6747 10.4864L12.5355 7.02716C12.2859 6.59916 12.4107 6.06476 12.8211 5.79676C13.2491 5.54716 13.7835 5.67196 14.0515 6.08236L16.1907 9.54156C16.4403 9.96876 16.3155 10.504 15.9051 10.7712C15.7627 10.8784 15.6019 10.9144 15.4419 10.9144Z" fill="#7A4DE0"/>
<path fill-rule="evenodd" clip-rule="evenodd" d="M4.54781 22.9138C4.42301 22.9138 4.28061 22.8778 4.15581 22.8242L0.499812 21.0234C0.055012 20.8098 -0.123388 20.2746 0.091012 19.829C0.303812 19.3834 0.839012 19.205 1.28541 19.4186L4.93981 21.2194C5.38621 21.4338 5.56461 21.9682 5.35021 22.4146C5.19021 22.7354 4.88701 22.9138 4.54781 22.9138Z" fill="#5D0F85"/>
<path fill-rule="evenodd" clip-rule="evenodd" d="M4.54781 22.9138C4.42301 22.9138 4.28061 22.8778 4.15581 22.8242L0.499812 21.0234C0.055012 20.8098 -0.123388 20.2746 0.091012 19.829C0.303812 19.3834 0.839012 19.205 1.28541 19.4186L4.93981 21.2194C5.38621 21.4338 5.56461 21.9682 5.35021 22.4146C5.19021 22.7354 4.88701 22.9138 4.54781 22.9138Z" fill="#7A4DE0"/>
<path fill-rule="evenodd" clip-rule="evenodd" d="M46.2342 10.9142C46.0742 10.9142 45.9134 10.8782 45.771 10.7894C45.343 10.5398 45.2174 9.98699 45.4854 9.55899L47.6246 6.09979C47.8926 5.67179 48.427 5.54699 48.855 5.81499C49.2838 6.06459 49.4086 6.61659 49.1406 7.04539L47.0014 10.5038C46.8222 10.771 46.5374 10.9142 46.2342 10.9142Z" fill="#7A4DE0"/>
<path fill-rule="evenodd" clip-rule="evenodd" d="M46.2342 10.9142C46.0742 10.9142 45.9134 10.8782 45.771 10.7894C45.343 10.5398 45.2174 9.98699 45.4854 9.55899L47.6246 6.09979C47.8926 5.67179 48.427 5.54699 48.855 5.81499C49.2838 6.06459 49.4086 6.61659 49.1406 7.04539L47.0014 10.5038C46.8222 10.771 46.5374 10.9142 46.2342 10.9142Z" fill="#7A4DE0"/>
<path fill-rule="evenodd" clip-rule="evenodd" d="M57.1287 22.9138C56.8079 22.9138 56.4863 22.7354 56.3263 22.4146C56.1119 21.9682 56.2903 21.4338 56.7367 21.2194L60.3911 19.4186C60.8375 19.205 61.3719 19.3834 61.5855 19.829C61.7999 20.2746 61.6215 20.8098 61.1759 21.0234L57.5207 22.8242C57.3959 22.8778 57.2527 22.9138 57.1287 22.9138Z" fill="#7A4DE0"/>
<path fill-rule="evenodd" clip-rule="evenodd" d="M57.1287 22.9138C56.8079 22.9138 56.4863 22.7354 56.3263 22.4146C56.1119 21.9682 56.2903 21.4338 56.7367 21.2194L60.3911 19.4186C60.8375 19.205 61.3719 19.3834 61.5855 19.829C61.7999 20.2746 61.6215 20.8098 61.1759 21.0234L57.5207 22.8242C57.3959 22.8778 57.2527 22.9138 57.1287 22.9138Z" fill="#7A4DE0"/>
<path fill-rule="evenodd" clip-rule="evenodd" d="M12.375 53.5281H18.259V51.7449H12.375V53.5281Z" fill="#5D0F85"/>
<path fill-rule="evenodd" clip-rule="evenodd" d="M14.4258 55.5783H16.209V49.6943H14.4258V55.5783Z" fill="#5D0F85"/>
<path fill-rule="evenodd" clip-rule="evenodd" d="M49.5566 40.9936H55.4398V39.2104H49.5566V40.9936Z" fill="#5D0F85"/>
<path fill-rule="evenodd" clip-rule="evenodd" d="M51.6074 43.0439H53.3906V37.1599H51.6074V43.0439Z" fill="#5D0F85"/>
<path fill-rule="evenodd" clip-rule="evenodd" d="M30.2056 6.3896C29.6792 6.3896 29.2656 5.976 29.2656 5.4504V0.94C29.2656 0.4136 29.6792 0 30.2056 0C30.7312 0 31.1456 0.4136 31.1456 0.94V5.4504C31.1456 5.9576 30.7128 6.3896 30.2056 6.3896Z" fill="#7A4DE0"/>
<path fill-rule="evenodd" clip-rule="evenodd" d="M30.2056 6.3896C29.6792 6.3896 29.2656 5.976 29.2656 5.4504V0.94C29.2656 0.4136 29.6792 0 30.2056 0C30.7312 0 31.1456 0.4136 31.1456 0.94V5.4504C31.1456 5.9576 30.7128 6.3896 30.2056 6.3896Z" fill="#7A4DE0"/>
</g>
</svg>
