<?xml version="1.0" encoding="UTF-8"?>
<svg width="147px" height="19px" viewBox="0 0 147 19" version="1.1" xmlns="http://www.w3.org/2000/svg" xmlns:xlink="http://www.w3.org/1999/xlink">
    <!-- Generator: sketchtool 64 (101010) - https://sketch.com -->
    <title>C16DCD2C-66F4-405F-8BDF-A15226517AF9@3x</title>
    <desc>Created with sketchtool.</desc>
    <g id="Girls-Code-III" stroke="none" stroke-width="1" fill="none" fill-rule="evenodd">
        <g id="Index" transform="translate(-1055.000000, -5548.000000)" fill="#FFFFFF">
            <g id="footer" transform="translate(0.000000, 4681.000000)">
                <g id="Group-10">
                    <g transform="translate(759.000000, 852.000000)">
                        <g id="Group-5" transform="translate(0.000000, 7.000000)">
                            <g id="Group-2" transform="translate(296.000000, 8.000000)">
                                <g id="Group-21">
                                    <path d="M18.8265,8.0346 L18.5175,9.8496 C18.0825,12.5646 16.9305,14.7126 15.0645,16.2996 C13.1955,17.8866 10.9185,18.6786 8.2065,18.6786 C5.4165,18.6786 3.2655,17.7576 1.7595,15.9156 C0.2475,14.0466 -0.2895,11.7696 0.1455,9.0846 C0.5805,6.4476 1.8075,4.2726 3.7785,2.5596 C5.7495,0.8436 8.0775,0.0006 10.7415,0.0006 C14.2455,0.0006 16.8825,1.5876 18.2385,4.2216 L14.0385,6.4716 C13.2975,5.1426 12.0435,4.4766 10.2765,4.4766 C8.8725,4.4766 7.6665,4.9386 6.6195,5.8356 C5.5965,6.7296 4.9575,7.8816 4.6995,9.3396 C4.4445,10.7736 4.6725,11.9736 5.3895,12.9216 C6.1095,13.8696 7.1805,14.3286 8.6175,14.3286 C10.8165,14.3286 12.3525,13.5366 13.2495,11.9736 L9.1035,11.9736 L9.7905,8.0346 L18.8265,8.0346 Z" id="Fill-1"></path>
                                    <polygon id="Fill-4" points="22.3158 0.3837 26.8968 0.3837 23.7528 18.2967 19.1688 18.2967"></polygon>
                                    <path d="M33.5541,4.6056 L32.8371,8.6226 L35.4741,8.6226 C36.5991,8.6496 37.4691,7.8306 37.6731,6.6276 C37.8771,5.4246 37.2381,4.6056 36.0081,4.6056 L33.5541,4.6056 Z M38.3661,11.7966 L40.8201,18.2946 L36.2151,18.2946 L34.1151,12.5136 L32.1711,12.5136 L31.1481,18.2946 L26.5671,18.2946 L29.7411,0.3846 L36.7491,0.3846 C38.5161,0.3846 39.9771,1.0236 41.0751,2.2776 C42.1761,3.5316 42.5871,5.0676 42.2511,6.8316 C41.8461,9.1086 40.4361,10.8756 38.3661,11.7966 L38.3661,11.7966 Z" id="Fill-6"></path>
                                    <polygon id="Fill-8" points="47.7894 13.8693 53.9574 13.8693 53.1894 18.2973 42.4404 18.2973 45.5874 0.3843 50.1684 0.3843"></polygon>
                                    <path d="M54.4224,14.2266 L58.4904,12.1296 C58.9794,13.6116 60.0504,14.3556 61.7664,14.3556 C63.1734,14.3556 63.9414,13.9446 64.0944,13.1256 C64.1964,12.5646 63.8124,12.1026 62.9184,11.7216 C62.7894,11.6436 62.1504,11.4366 61.0494,11.0526 C59.4864,10.5156 58.2864,9.7986 57.4914,8.9046 C56.6994,8.0106 56.4174,6.7566 56.6994,5.1936 C56.9814,3.5556 57.7734,2.2776 59.0274,1.3806 C60.3084,0.4596 61.8174,0.0006 63.5574,0.0006 C66.5514,0.0006 68.8044,1.4586 69.8274,4.0956 L65.9124,6.1926 C65.3484,4.9386 64.4544,4.3236 63.2004,4.3236 C62.1234,4.3236 61.5084,4.7076 61.3584,5.4756 C61.1514,6.3216 61.8654,6.7566 64.1184,7.5486 C65.6814,8.0856 66.5244,8.4456 67.5744,9.3636 C68.6754,10.2606 69.0324,11.6436 68.7264,13.5096 C68.1114,16.8876 65.3724,18.6786 61.3824,18.6786 C57.5694,18.6786 55.1634,16.9896 54.4224,14.2266" id="Fill-10"></path>
                                    <path d="M78.1527,15.9156 C76.6437,14.0736 76.1307,11.7966 76.5687,9.0846 C77.0007,6.4476 78.2067,4.2726 80.1747,2.5596 C82.1697,0.8436 84.4977,0.0006 87.1347,0.0006 C90.6387,0.0006 93.1467,1.6116 94.4547,4.2726 L90.2547,6.4986 C89.5677,5.1426 88.3887,4.4766 86.6997,4.4766 C85.2927,4.4766 84.0897,4.9386 83.0397,5.8356 C82.0167,6.7296 81.3777,7.8816 81.1197,9.3396 C80.8917,10.7466 81.0957,11.9226 81.7857,12.8466 C82.4757,13.7406 83.5017,14.2026 84.8547,14.2026 C86.5737,14.2026 87.9777,13.4856 89.0547,12.0516 L92.8167,14.4816 C90.8967,17.1456 87.9027,18.6786 84.5517,18.6786 C81.8127,18.6786 79.6617,17.7576 78.1527,15.9156" id="Fill-12"></path>
                                    <path d="M107.6898,5.8593 C106.9488,4.9383 105.8748,4.4793 104.4948,4.4793 C103.1118,4.4793 101.8818,4.9383 100.8078,5.8593 C99.7578,6.7563 99.0948,7.9323 98.8368,9.3393 C98.5818,10.7733 98.8098,11.9493 99.5268,12.8463 C100.2678,13.7403 101.3178,14.2023 102.7008,14.2023 C104.0838,14.2023 105.3108,13.7403 106.4118,12.8463 C107.5098,11.9223 108.2028,10.7463 108.4338,9.3393 C108.6888,7.9323 108.4338,6.7563 107.6898,5.8593 M94.2828,9.0573 C94.7178,6.4983 95.9208,4.3503 97.8888,2.6103 C99.8628,0.8703 102.2418,0.0003 105.0288,0.0003 C107.7438,0.0003 109.8408,0.9453 111.3498,2.8653 C112.8618,4.7583 113.4228,6.9843 112.9878,9.5703 C112.5528,12.1533 111.3498,14.3283 109.4058,16.0683 C107.4858,17.8083 105.1068,18.6783 102.2898,18.6783 C96.8148,18.7833 93.2568,13.9953 94.2828,9.0573" id="Fill-14"></path>
                                    <path d="M123.2613,4.8105 L120.6783,4.8105 L119.0643,13.8705 L121.5213,13.8705 C122.8233,13.8705 123.9273,13.4595 124.8723,12.6165 C125.8203,11.7705 126.4353,10.6455 126.6903,9.2625 C127.1253,6.5745 125.7423,4.8105 123.2613,4.8105 L123.2613,4.8105 Z M124.0293,0.3825 C126.3813,0.3825 128.2773,1.2795 129.6843,3.0975 C131.0883,4.9125 131.5743,7.0605 131.1423,9.5955 C130.6833,12.1545 129.5043,14.2515 127.6353,15.8655 C125.7693,17.4765 123.5163,18.2955 120.8793,18.2955 L113.5863,18.2955 L116.7333,0.3825 L124.0293,0.3825 Z" id="Fill-16"></path>
                                    <polygon id="Fill-18" points="145.5063 4.6566 138.7263 4.6566 138.2643 7.1646 144.4563 7.1646 143.6913 11.3616 137.5503 11.3616 137.0883 13.9956 143.9973 13.9956 143.2563 18.2946 131.7393 18.2946 134.8863 0.3846 146.2743 0.3846"></polygon>
                                </g>
                            </g>
                        </g>
                    </g>
                </g>
            </g>
        </g>
    </g>
</svg>