<?xml version="1.0" encoding="UTF-8"?>
<svg width="155px" height="100px" viewBox="0 0 155 100" version="1.1" xmlns="http://www.w3.org/2000/svg" xmlns:xlink="http://www.w3.org/1999/xlink">
    <!-- Generator: sketchtool 64 (101010) - https://sketch.com -->
    <title>0578EAE8-0D0E-475A-9732-4C7019A9DEA1@3x</title>
    <desc>Created with sketchtool.</desc>
    <defs>
        <polygon id="path-1" points="0.597029591 0.53376 14.362176 0.53376 14.362176 20.973952 0.597029591 20.973952"></polygon>
        <polygon id="path-3" points="0.0211262331 0.447552 55.9119795 0.447552 55.9119795 56.32 0.0211262331 56.32"></polygon>
        <polygon id="path-5" points="0 99.94624 154.19264 99.94624 154.19264 0.64 0 0.64"></polygon>
    </defs>
    <g id="Girls-Code-III" stroke="none" stroke-width="1" fill="none" fill-rule="evenodd">
        <g id="Index" transform="translate(-338.000000, -2050.000000)">
            <g id="Seccion-3" transform="translate(291.000000, 1846.000000)">
                <g id="T1" transform="translate(0.000000, 162.000000)">
                    <g id="Ilustracion/T1" transform="translate(47.000000, 42.000000)">
                        <g id="Group-228">
                            <path d="M146.235072,99.946112 L9.899712,99.946112 C9.500352,99.946112 9.186112,99.632512 9.186112,99.233152 C9.186112,98.833792 9.500352,98.519552 9.899712,98.519552 L146.235072,98.519552 C146.634432,98.519552 146.948032,98.833792 146.948032,99.233152 C146.948032,99.632512 146.620352,99.946112 146.235072,99.946112" id="Fill-1" fill="#5D0F85"></path>
                            <path d="M40.766976,54.372672 C40.367616,54.372672 40.053376,54.059072 40.053376,53.659072 L40.053376,4.063552 C40.053376,3.664192 40.367616,3.349952 40.766976,3.349952 C41.166336,3.349952 41.479936,3.664192 41.479936,4.063552 L41.479936,53.673792 C41.479936,54.059072 41.166336,54.372672 40.766976,54.372672" id="Fill-3" fill="#5D0F85"></path>
                            <path d="M46.9288855,7.529536 C46.914752,10.938816 40.724032,20.367296 40.724032,20.367296 C40.724032,20.367296 34.576192,10.910016 34.5902479,7.500736 C34.604352,4.091456 37.371712,1.338816 40.780992,1.35284222 C44.175552,1.35284222 46.942912,4.120256 46.9288855,7.529536" id="Fill-5" fill="#F6ED29"></path>
                            <g id="Group-9" transform="translate(33.280000, 0.106240)">
                                <mask id="mask-2" fill="white">
                                    <use xlink:href="#path-1"></use>
                                </mask>
                                <g id="Clip-8"></g>
                                <path d="M7.472576,1.960192 C4.476736,1.960192 2.023616,4.399232 2.023616,7.409152 C2.023616,9.762432 5.518016,15.853312 7.458496,18.948352 C9.398336,15.867392 12.935616,9.776512 12.935616,7.437312 C12.935616,5.982592 12.379456,4.613632 11.352256,3.571712 C10.325056,2.530432 8.955456,1.960192 7.472576,1.960192 C7.486656,1.960192 7.486656,1.960192 7.472576,1.960192 M7.443776,20.973952 L7.443776,20.973952 C7.201216,20.973952 6.973376,20.845952 6.845376,20.645632 C6.203456,19.661952 0.582976,10.903552 0.597029591,7.394432 C0.611136,3.600512 3.692736,0.533632 7.472576,0.533632 L7.486656,0.533632 C9.326656,0.533632 11.052736,1.261312 12.350656,2.559232 C13.648576,3.857152 14.362176,5.597312 14.362176,7.437312 C14.362176,8.977792 13.277376,11.674112 11.166656,15.482112 C9.626176,18.249472 8.057536,20.645632 8.043456,20.674432 C7.914176,20.860032 7.686336,20.973952 7.443776,20.973952" id="Fill-7" fill="#5D0F85" mask="url(#mask-2)"></path>
                            </g>
                            <path d="M54.988224,22.02176 C51.892544,23.44832 40.737984,21.7792 40.737984,21.7792 C40.737984,21.7792 46.743104,12.23616 49.853504,10.81024 C52.962624,9.38368 56.613824,10.75328 58.026304,13.84832 C59.438144,16.92928 58.083264,20.5952 54.988224,22.02176" id="Fill-10" fill="#F6ED29"></path>
                            <path d="M41.93632,21.222976 C45.55936,21.693376 52.5488,22.350016 54.68832,21.379776 C57.42688,20.124736 58.62496,16.872256 57.36992,14.147776 C56.7568,12.821696 55.67264,11.808576 54.30304,11.309376 C52.93408,10.796096 51.45056,10.853056 50.12384,11.466176 C47.99904,12.436416 43.93312,18.170176 41.93632,21.222976 M50.53728,23.305536 C49.41088,23.305536 48.11232,23.248576 46.64288,23.134016 C43.4768,22.891456 40.65248,22.478016 40.62368,22.478016 C40.38112,22.449856 40.18208,22.292416 40.08224,22.064576 C39.98176,21.850176 39.99648,21.594176 40.12512,21.394496 C40.75232,20.395456 46.344,11.623616 49.53888,10.154176 C51.208,9.383616 53.07616,9.312576 54.80288,9.954496 C56.52832,10.596416 57.89728,11.865536 58.66848,13.534656 C60.2512,16.986176 58.73952,21.080256 55.28736,22.663616 C54.36,23.091136 52.76256,23.305536 50.53728,23.305536" id="Fill-12" fill="#5D0F85"></path>
                            <path d="M26.473856,22.02176 C29.569536,23.44832 40.724096,21.7792 40.724096,21.7792 C40.724096,21.7792 34.718976,12.23616 31.609216,10.81024 C28.499456,9.38368 24.848256,10.75328 23.435776,13.84832 C22.023936,16.92928 23.378816,20.5952 26.473856,22.02176" id="Fill-14" fill="#F6ED29"></path>
                            <path d="M29.055744,10.952704 C28.413824,10.952704 27.771904,11.067264 27.158784,11.295104 C25.789184,11.808384 24.705664,12.806784 24.091904,14.133504 C23.478784,15.460224 23.421184,16.943744 23.935104,18.312704 C24.449024,19.682304 25.446784,20.766464 26.774144,21.379584 C28.913024,22.363904 35.917184,21.707904 39.525504,21.222784 C37.528704,18.170624 33.464064,12.436224 31.323904,11.451904 C30.596224,11.124224 29.826304,10.952704 29.055744,10.952704 M30.981504,23.305344 C28.998784,23.305344 27.215744,23.134464 26.174464,22.663424 C24.505984,21.893504 23.236224,20.523904 22.594304,18.797824 C21.952384,17.072384 22.024064,15.203584 22.793984,13.534464 C23.564544,11.865984 24.934144,10.596224 26.659584,9.954304 C28.385664,9.312384 30.253824,9.383424 31.922944,10.153984 C33.320704,10.795904 35.332224,12.892544 37.913984,16.401664 C39.796864,18.954624 41.323264,21.365504 41.337344,21.394304 C41.465984,21.593984 41.480064,21.850624 41.380224,22.064384 C41.280384,22.278784 41.080704,22.435584 40.838144,22.477824 C40.053504,22.592384 35.103744,23.305344 30.981504,23.305344" id="Fill-16" fill="#5D0F85"></path>
                            <path d="M34.490752,34.588288 C37.157632,32.477568 40.738432,21.764608 40.738432,21.764608 C40.738432,21.764608 29.498112,22.791808 26.830592,24.917248 C24.163072,27.042688 23.706752,30.908288 25.832192,33.589888 C27.928832,36.257408 31.809152,36.713728 34.490752,34.588288" id="Fill-18" fill="#F6ED29"></path>
                            <path d="M39.69696,22.592384 C36.07392,22.991744 29.11328,24.018944 27.27264,25.473664 C26.13216,26.372224 25.40448,27.670144 25.24768,29.125504 C25.07616,30.565504 25.49024,31.992704 26.3888,33.147904 C28.25696,35.501184 31.69504,35.900544 34.04832,34.032384 C35.88832,32.577024 38.47008,26.029824 39.69696,22.592384 M30.66784,36.642304 C28.64224,36.642304 26.61728,35.743744 25.26176,34.032384 C22.90848,31.050624 23.40768,26.714624 26.3888,24.361344 C27.58688,23.405184 30.3824,22.564224 34.66208,21.850624 C37.8,21.337344 40.6384,21.065984 40.6672,21.065984 C40.90976,21.037184 41.1376,21.151744 41.2944,21.337344 C41.4512,21.522304 41.49472,21.778944 41.40896,22.007424 C41.39424,22.036224 40.49568,24.745984 39.2688,27.670144 C37.60032,31.678464 36.13088,34.203264 34.9328,35.158784 C33.66304,36.143104 32.15136,36.642304 30.66784,36.642304" id="Fill-20" fill="#5D0F85"></path>
                            <path d="M47.028864,34.588288 C44.361344,32.477568 40.780544,21.764608 40.780544,21.764608 C40.780544,21.764608 52.021504,22.791808 54.688384,24.917248 C57.355904,27.042688 57.812864,30.908288 55.686784,33.589888 C53.590144,36.257408 49.709824,36.713728 47.028864,34.588288" id="Fill-22" fill="#F6ED29"></path>
                            <path d="M41.821952,22.592384 C43.034752,26.029824 45.630592,32.562944 47.470592,34.032384 C49.824512,35.900544 53.261952,35.501184 55.130752,33.147904 C56.029312,32.006144 56.442752,30.580224 56.271872,29.125504 C56.100992,27.684864 55.387392,26.386304 54.246272,25.473664 C52.406272,24.018944 45.459712,22.991744 41.821952,22.592384 M50.851072,36.642304 C49.354112,36.642304 47.841792,36.157184 46.586112,35.158784 C45.388032,34.203264 43.918592,31.692544 42.250112,27.670144 C41.023232,24.745984 40.125312,22.036224 40.110592,22.007424 C40.039552,21.778944 40.081792,21.522304 40.224512,21.337344 C40.367872,21.151744 40.609792,21.051904 40.852352,21.065984 C40.880512,21.065984 43.719552,21.337344 46.857472,21.850624 C51.150592,22.564224 53.932672,23.405184 55.130752,24.361344 C56.571392,25.501824 57.484672,27.142784 57.698432,28.968064 C57.912192,30.793984 57.398912,32.591744 56.257792,34.032384 C54.902272,35.743744 52.891392,36.642304 50.851072,36.642304" id="Fill-24" fill="#5D0F85"></path>
                            <polygon id="Fill-26" fill="#8851FC" points="67.996992 44.772992 13.536192 44.772992 18.828992 99.233152 62.704832 99.233152"></polygon>
                            <g id="Group-30" transform="translate(12.800000, 43.626240)">
                                <mask id="mask-4" fill="white">
                                    <use xlink:href="#path-3"></use>
                                </mask>
                                <g id="Clip-29"></g>
                                <path d="M6.68448,54.893632 L49.24896,54.893632 L54.41248,1.860032 L1.5216,1.860032 L6.68448,54.893632 Z M49.90496,56.320192 L6.02912,56.320192 C5.65792,56.320192 5.3584,56.034752 5.31488,55.678272 L0.02336,1.218112 C0.00864,1.018432 0.06624,0.818752 0.20896,0.676032 C0.33696,0.533312 0.53728,0.447552 0.73632,0.447552 L55.19712,0.447552 C55.39616,0.447552 55.59648,0.533312 55.72448,0.676032 C55.85312,0.818752 55.9248,1.018432 55.91008,1.218112 L50.61792,55.678272 C50.57504,56.048832 50.26144,56.320192 49.90496,56.320192 L49.90496,56.320192 Z" id="Fill-28" fill="#5D0F85" mask="url(#mask-4)"></path>
                            </g>
                            <path d="M62.818816,89.262336 C63.212416,89.262336 63.531776,89.581696 63.531776,89.975936 C63.531776,90.369536 63.212416,90.688896 62.818816,90.688896 C62.425216,90.688896 62.105856,90.369536 62.105856,89.975936 C62.105856,89.581696 62.425216,89.262336 62.818816,89.262336" id="Fill-31" fill="#5D0F85"></path>
                            <path d="M62.818816,92.785792 C63.212416,92.785792 63.531776,93.105152 63.531776,93.498752 C63.531776,93.892352 63.212416,94.212352 62.818816,94.212352 C62.425216,94.212352 62.105856,93.892352 62.105856,93.498752 C62.105856,93.105152 62.425216,92.785792 62.818816,92.785792" id="Fill-33" fill="#5D0F85"></path>
                            <path d="M62.818816,96.294592 C63.212416,96.294592 63.531776,96.613952 63.531776,97.008192 C63.531776,97.401792 63.212416,97.721152 62.818816,97.721152 C62.425216,97.721152 62.105856,97.401792 62.105856,97.008192 C62.105856,96.613952 62.425216,96.294592 62.818816,96.294592" id="Fill-35" fill="#5D0F85"></path>
                            <path d="M59.295744,89.262336 C59.689344,89.262336 60.008704,89.581696 60.008704,89.975936 C60.008704,90.369536 59.689344,90.688896 59.295744,90.688896 C58.902144,90.688896 58.582784,90.369536 58.582784,89.975936 C58.582784,89.581696 58.902144,89.262336 59.295744,89.262336" id="Fill-37" fill="#5D0F85"></path>
                            <path d="M59.295744,92.785792 C59.689344,92.785792 60.008704,93.105152 60.008704,93.498752 C60.008704,93.892352 59.689344,94.212352 59.295744,94.212352 C58.902144,94.212352 58.582784,93.892352 58.582784,93.498752 C58.582784,93.105152 58.902144,92.785792 59.295744,92.785792" id="Fill-39" fill="#5D0F85"></path>
                            <path d="M59.295744,96.294592 C59.689344,96.294592 60.008704,96.613952 60.008704,97.008192 C60.008704,97.401792 59.689344,97.721152 59.295744,97.721152 C58.902144,97.721152 58.582784,97.401792 58.582784,97.008192 C58.582784,96.613952 58.902144,96.294592 59.295744,96.294592" id="Fill-41" fill="#5D0F85"></path>
                            <path d="M55.772608,89.262336 C56.166208,89.262336 56.485568,89.581696 56.485568,89.975936 C56.485568,90.369536 56.166208,90.688896 55.772608,90.688896 C55.379008,90.688896 55.059648,90.369536 55.059648,89.975936 C55.059648,89.581696 55.379008,89.262336 55.772608,89.262336" id="Fill-43" fill="#5D0F85"></path>
                            <path d="M55.772608,92.785792 C56.166208,92.785792 56.485568,93.105152 56.485568,93.498752 C56.485568,93.892352 56.166208,94.212352 55.772608,94.212352 C55.379008,94.212352 55.059648,93.892352 55.059648,93.498752 C55.059648,93.105152 55.379008,92.785792 55.772608,92.785792" id="Fill-45" fill="#5D0F85"></path>
                            <path d="M55.772608,96.294592 C56.166208,96.294592 56.485568,96.613952 56.485568,97.008192 C56.485568,97.401792 56.166208,97.721152 55.772608,97.721152 C55.379008,97.721152 55.059648,97.401792 55.059648,97.008192 C55.059648,96.613952 55.379008,96.294592 55.772608,96.294592" id="Fill-47" fill="#5D0F85"></path>
                            <path d="M52.263872,89.262336 C52.657472,89.262336 52.976832,89.581696 52.976832,89.975936 C52.976832,90.369536 52.657472,90.688896 52.263872,90.688896 C51.869632,90.688896 51.550272,90.369536 51.550272,89.975936 C51.550272,89.581696 51.869632,89.262336 52.263872,89.262336" id="Fill-49" fill="#5D0F85"></path>
                            <path d="M52.263872,92.785792 C52.657472,92.785792 52.976832,93.105152 52.976832,93.498752 C52.976832,93.892352 52.657472,94.212352 52.263872,94.212352 C51.869632,94.212352 51.550272,93.892352 51.550272,93.498752 C51.550272,93.105152 51.869632,92.785792 52.263872,92.785792" id="Fill-51" fill="#5D0F85"></path>
                            <path d="M52.263872,96.294592 C52.657472,96.294592 52.976832,96.613952 52.976832,97.008192 C52.976832,97.401792 52.657472,97.721152 52.263872,97.721152 C51.869632,97.721152 51.550272,97.401792 51.550272,97.008192 C51.550272,96.613952 51.869632,96.294592 52.263872,96.294592" id="Fill-53" fill="#5D0F85"></path>
                            <path d="M48.740096,89.262336 C49.134336,89.262336 49.453056,89.581696 49.453056,89.975936 C49.453056,90.369536 49.134336,90.688896 48.740096,90.688896 C48.346496,90.688896 48.027136,90.369536 48.027136,89.975936 C48.027136,89.581696 48.346496,89.262336 48.740096,89.262336" id="Fill-55" fill="#5D0F85"></path>
                            <path d="M48.740096,92.785792 C49.134336,92.785792 49.453056,93.105152 49.453056,93.498752 C49.453056,93.892352 49.134336,94.212352 48.740096,94.212352 C48.346496,94.212352 48.027136,93.892352 48.027136,93.498752 C48.027136,93.105152 48.346496,92.785792 48.740096,92.785792" id="Fill-57" fill="#5D0F85"></path>
                            <path d="M48.740096,96.294592 C49.134336,96.294592 49.453056,96.613952 49.453056,97.008192 C49.453056,97.401792 49.134336,97.721152 48.740096,97.721152 C48.346496,97.721152 48.027136,97.401792 48.027136,97.008192 C48.027136,96.613952 48.346496,96.294592 48.740096,96.294592" id="Fill-59" fill="#5D0F85"></path>
                            <path d="M45.21696,89.262336 C45.61056,89.262336 45.92992,89.581696 45.92992,89.975936 C45.92992,90.369536 45.61056,90.688896 45.21696,90.688896 C44.82336,90.688896 44.504,90.369536 44.504,89.975936 C44.504,89.581696 44.82336,89.262336 45.21696,89.262336" id="Fill-61" fill="#5D0F85"></path>
                            <path d="M45.21696,92.785792 C45.61056,92.785792 45.92992,93.105152 45.92992,93.498752 C45.92992,93.892352 45.61056,94.212352 45.21696,94.212352 C44.82336,94.212352 44.504,93.892352 44.504,93.498752 C44.504,93.105152 44.82336,92.785792 45.21696,92.785792" id="Fill-63" fill="#5D0F85"></path>
                            <path d="M45.21696,96.294592 C45.61056,96.294592 45.92992,96.613952 45.92992,97.008192 C45.92992,97.401792 45.61056,97.721152 45.21696,97.721152 C44.82336,97.721152 44.504,97.401792 44.504,97.008192 C44.504,96.613952 44.82336,96.294592 45.21696,96.294592" id="Fill-65" fill="#5D0F85"></path>
                            <path d="M41.708224,89.262336 C42.101824,89.262336 42.421184,89.581696 42.421184,89.975936 C42.421184,90.369536 42.101824,90.688896 41.708224,90.688896 C41.314624,90.688896 40.995264,90.369536 40.995264,89.975936 C40.995264,89.581696 41.314624,89.262336 41.708224,89.262336" id="Fill-67" fill="#5D0F85"></path>
                            <path d="M41.708224,92.785792 C42.101824,92.785792 42.421184,93.105152 42.421184,93.498752 C42.421184,93.892352 42.101824,94.212352 41.708224,94.212352 C41.314624,94.212352 40.995264,93.892352 40.995264,93.498752 C40.995264,93.105152 41.314624,92.785792 41.708224,92.785792" id="Fill-69" fill="#5D0F85"></path>
                            <path d="M41.708224,96.294592 C42.101824,96.294592 42.421184,96.613952 42.421184,97.008192 C42.421184,97.401792 42.101824,97.721152 41.708224,97.721152 C41.314624,97.721152 40.995264,97.401792 40.995264,97.008192 C40.995264,96.613952 41.314624,96.294592 41.708224,96.294592" id="Fill-71" fill="#5D0F85"></path>
                            <path d="M38.185088,89.262336 C38.578688,89.262336 38.898048,89.581696 38.898048,89.975936 C38.898048,90.369536 38.578688,90.688896 38.185088,90.688896 C37.791488,90.688896 37.472128,90.369536 37.472128,89.975936 C37.472128,89.581696 37.791488,89.262336 38.185088,89.262336" id="Fill-73" fill="#5D0F85"></path>
                            <path d="M38.185088,92.785792 C38.578688,92.785792 38.898048,93.105152 38.898048,93.498752 C38.898048,93.892352 38.578688,94.212352 38.185088,94.212352 C37.791488,94.212352 37.472128,93.892352 37.472128,93.498752 C37.472128,93.105152 37.791488,92.785792 38.185088,92.785792" id="Fill-75" fill="#5D0F85"></path>
                            <path d="M38.185088,96.294592 C38.578688,96.294592 38.898048,96.613952 38.898048,97.008192 C38.898048,97.401792 38.578688,97.721152 38.185088,97.721152 C37.791488,97.721152 37.472128,97.401792 37.472128,97.008192 C37.472128,96.613952 37.791488,96.294592 38.185088,96.294592" id="Fill-77" fill="#5D0F85"></path>
                            <path d="M34.661952,89.262336 C35.055552,89.262336 35.374912,89.581696 35.374912,89.975936 C35.374912,90.369536 35.055552,90.688896 34.661952,90.688896 C34.267712,90.688896 33.948352,90.369536 33.948352,89.975936 C33.948352,89.581696 34.267712,89.262336 34.661952,89.262336" id="Fill-79" fill="#5D0F85"></path>
                            <path d="M34.661952,92.785792 C35.055552,92.785792 35.374912,93.105152 35.374912,93.498752 C35.374912,93.892352 35.055552,94.212352 34.661952,94.212352 C34.267712,94.212352 33.948352,93.892352 33.948352,93.498752 C33.948352,93.105152 34.267712,92.785792 34.661952,92.785792" id="Fill-81" fill="#5D0F85"></path>
                            <path d="M34.661952,96.294592 C35.055552,96.294592 35.374912,96.613952 35.374912,97.008192 C35.374912,97.401792 35.055552,97.721152 34.661952,97.721152 C34.267712,97.721152 33.948352,97.401792 33.948352,97.008192 C33.948352,96.613952 34.267712,96.294592 34.661952,96.294592" id="Fill-83" fill="#5D0F85"></path>
                            <path d="M31.152576,89.262336 C31.546176,89.262336 31.865536,89.581696 31.865536,89.975936 C31.865536,90.369536 31.546176,90.688896 31.152576,90.688896 C30.758976,90.688896 30.439616,90.369536 30.439616,89.975936 C30.439616,89.581696 30.758976,89.262336 31.152576,89.262336" id="Fill-85" fill="#5D0F85"></path>
                            <path d="M31.152576,92.785792 C31.546176,92.785792 31.865536,93.105152 31.865536,93.498752 C31.865536,93.892352 31.546176,94.212352 31.152576,94.212352 C30.758976,94.212352 30.439616,93.892352 30.439616,93.498752 C30.439616,93.105152 30.758976,92.785792 31.152576,92.785792" id="Fill-87" fill="#5D0F85"></path>
                            <path d="M31.152576,96.294592 C31.546176,96.294592 31.865536,96.613952 31.865536,97.008192 C31.865536,97.401792 31.546176,97.721152 31.152576,97.721152 C30.758976,97.721152 30.439616,97.401792 30.439616,97.008192 C30.439616,96.613952 30.758976,96.294592 31.152576,96.294592" id="Fill-89" fill="#5D0F85"></path>
                            <path d="M27.629504,89.262336 C28.023104,89.262336 28.342464,89.581696 28.342464,89.975936 C28.342464,90.369536 28.023104,90.688896 27.629504,90.688896 C27.235904,90.688896 26.916544,90.369536 26.916544,89.975936 C26.916544,89.581696 27.235904,89.262336 27.629504,89.262336" id="Fill-91" fill="#5D0F85"></path>
                            <path d="M27.629504,92.785792 C28.023104,92.785792 28.342464,93.105152 28.342464,93.498752 C28.342464,93.892352 28.023104,94.212352 27.629504,94.212352 C27.235904,94.212352 26.916544,93.892352 26.916544,93.498752 C26.916544,93.105152 27.235904,92.785792 27.629504,92.785792" id="Fill-93" fill="#5D0F85"></path>
                            <path d="M27.629504,96.294592 C28.023104,96.294592 28.342464,96.613952 28.342464,97.008192 C28.342464,97.401792 28.023104,97.721152 27.629504,97.721152 C27.235904,97.721152 26.916544,97.401792 26.916544,97.008192 C26.916544,96.613952 27.235904,96.294592 27.629504,96.294592" id="Fill-95" fill="#5D0F85"></path>
                            <path d="M24.106368,64.628608 C24.499968,64.628608 24.819328,64.947968 24.819328,65.341568 C24.819328,65.735168 24.499968,66.055168 24.106368,66.055168 C23.712768,66.055168 23.393408,65.735168 23.393408,65.341568 C23.393408,64.947968 23.712768,64.628608 24.106368,64.628608" id="Fill-97" fill="#5D0F85"></path>
                            <path d="M24.106368,68.151744 C24.499968,68.151744 24.819328,68.471104 24.819328,68.864704 C24.819328,69.258304 24.499968,69.578304 24.106368,69.578304 C23.712768,69.578304 23.393408,69.258304 23.393408,68.864704 C23.393408,68.471104 23.712768,68.151744 24.106368,68.151744" id="Fill-99" fill="#5D0F85"></path>
                            <path d="M24.106368,71.67488 C24.499968,71.67488 24.819328,71.99424 24.819328,72.38784 C24.819328,72.78208 24.499968,73.10144 24.106368,73.10144 C23.712768,73.10144 23.393408,72.78208 23.393408,72.38784 C23.393408,71.99424 23.712768,71.67488 24.106368,71.67488" id="Fill-101" fill="#5D0F85"></path>
                            <path d="M24.106368,75.183936 C24.499968,75.183936 24.819328,75.503296 24.819328,75.896896 C24.819328,76.290496 24.499968,76.610496 24.106368,76.610496 C23.712768,76.610496 23.393408,76.290496 23.393408,75.896896 C23.393408,75.503296 23.712768,75.183936 24.106368,75.183936" id="Fill-103" fill="#5D0F85"></path>
                            <path d="M24.106368,78.707072 C24.499968,78.707072 24.819328,79.026432 24.819328,79.420032 C24.819328,79.814272 24.499968,80.133632 24.106368,80.133632 C23.712768,80.133632 23.393408,79.814272 23.393408,79.420032 C23.393408,79.026432 23.712768,78.707072 24.106368,78.707072" id="Fill-105" fill="#5D0F85"></path>
                            <path d="M24.106368,82.230144 C24.499968,82.230144 24.819328,82.549504 24.819328,82.943744 C24.819328,83.337344 24.499968,83.656704 24.106368,83.656704 C23.712768,83.656704 23.393408,83.337344 23.393408,82.943744 C23.393408,82.549504 23.712768,82.230144 24.106368,82.230144" id="Fill-107" fill="#5D0F85"></path>
                            <path d="M24.106368,85.739264 C24.499968,85.739264 24.819328,86.058624 24.819328,86.452224 C24.819328,86.846464 24.499968,87.165824 24.106368,87.165824 C23.712768,87.165824 23.393408,86.846464 23.393408,86.452224 C23.393408,86.058624 23.712768,85.739264 24.106368,85.739264" id="Fill-109" fill="#5D0F85"></path>
                            <path d="M24.106368,89.262336 C24.499968,89.262336 24.819328,89.581696 24.819328,89.975936 C24.819328,90.369536 24.499968,90.688896 24.106368,90.688896 C23.712768,90.688896 23.393408,90.369536 23.393408,89.975936 C23.393408,89.581696 23.712768,89.262336 24.106368,89.262336" id="Fill-111" fill="#5D0F85"></path>
                            <path d="M24.106368,92.785792 C24.499968,92.785792 24.819328,93.105152 24.819328,93.498752 C24.819328,93.892352 24.499968,94.212352 24.106368,94.212352 C23.712768,94.212352 23.393408,93.892352 23.393408,93.498752 C23.393408,93.105152 23.712768,92.785792 24.106368,92.785792" id="Fill-113" fill="#5D0F85"></path>
                            <path d="M24.106368,96.294592 C24.499968,96.294592 24.819328,96.613952 24.819328,97.008192 C24.819328,97.401792 24.499968,97.721152 24.106368,97.721152 C23.712768,97.721152 23.393408,97.401792 23.393408,97.008192 C23.393408,96.613952 23.712768,96.294592 24.106368,96.294592" id="Fill-115" fill="#5D0F85"></path>
                            <path d="M20.597568,64.628608 C20.991168,64.628608 21.310528,64.947968 21.310528,65.341568 C21.310528,65.735168 20.991168,66.055168 20.597568,66.055168 C20.203328,66.055168 19.884608,65.735168 19.884608,65.341568 C19.884608,64.947968 20.203328,64.628608 20.597568,64.628608" id="Fill-117" fill="#5D0F85"></path>
                            <path d="M20.597568,68.151744 C20.991168,68.151744 21.310528,68.471104 21.310528,68.864704 C21.310528,69.258304 20.991168,69.578304 20.597568,69.578304 C20.203328,69.578304 19.884608,69.258304 19.884608,68.864704 C19.884608,68.471104 20.203328,68.151744 20.597568,68.151744" id="Fill-119" fill="#5D0F85"></path>
                            <path d="M20.597568,71.67488 C20.991168,71.67488 21.310528,71.99424 21.310528,72.38784 C21.310528,72.78208 20.991168,73.10144 20.597568,73.10144 C20.203328,73.10144 19.884608,72.78208 19.884608,72.38784 C19.884608,71.99424 20.203328,71.67488 20.597568,71.67488" id="Fill-121" fill="#5D0F85"></path>
                            <path d="M20.597568,75.183936 C20.991168,75.183936 21.310528,75.503296 21.310528,75.896896 C21.310528,76.290496 20.991168,76.610496 20.597568,76.610496 C20.203328,76.610496 19.884608,76.290496 19.884608,75.896896 C19.884608,75.503296 20.203328,75.183936 20.597568,75.183936" id="Fill-123" fill="#5D0F85"></path>
                            <path d="M20.597568,78.707072 C20.991168,78.707072 21.310528,79.026432 21.310528,79.420032 C21.310528,79.814272 20.991168,80.133632 20.597568,80.133632 C20.203328,80.133632 19.884608,79.814272 19.884608,79.420032 C19.884608,79.026432 20.203328,78.707072 20.597568,78.707072" id="Fill-125" fill="#5D0F85"></path>
                            <path d="M20.597568,82.230144 C20.991168,82.230144 21.310528,82.549504 21.310528,82.943744 C21.310528,83.337344 20.991168,83.656704 20.597568,83.656704 C20.203328,83.656704 19.884608,83.337344 19.884608,82.943744 C19.884608,82.549504 20.203328,82.230144 20.597568,82.230144" id="Fill-127" fill="#5D0F85"></path>
                            <path d="M20.597568,85.739264 C20.991168,85.739264 21.310528,86.058624 21.310528,86.452224 C21.310528,86.846464 20.991168,87.165824 20.597568,87.165824 C20.203328,87.165824 19.884608,86.846464 19.884608,86.452224 C19.884608,86.058624 20.203328,85.739264 20.597568,85.739264" id="Fill-129" fill="#5D0F85"></path>
                            <path d="M20.597568,89.262336 C20.991168,89.262336 21.310528,89.581696 21.310528,89.975936 C21.310528,90.369536 20.991168,90.688896 20.597568,90.688896 C20.203328,90.688896 19.884608,90.369536 19.884608,89.975936 C19.884608,89.581696 20.203328,89.262336 20.597568,89.262336" id="Fill-131" fill="#5D0F85"></path>
                            <path d="M20.597568,92.785792 C20.991168,92.785792 21.310528,93.105152 21.310528,93.498752 C21.310528,93.892352 20.991168,94.212352 20.597568,94.212352 C20.203328,94.212352 19.884608,93.892352 19.884608,93.498752 C19.884608,93.105152 20.203328,92.785792 20.597568,92.785792" id="Fill-133" fill="#5D0F85"></path>
                            <path d="M20.597568,96.294592 C20.991168,96.294592 21.310528,96.613952 21.310528,97.008192 C21.310528,97.401792 20.991168,97.721152 20.597568,97.721152 C20.203328,97.721152 19.884608,97.401792 19.884608,97.008192 C19.884608,96.613952 20.203328,96.294592 20.597568,96.294592" id="Fill-135" fill="#5D0F85"></path>
                            <path d="M17.073856,64.628608 C17.468096,64.628608 17.787456,64.947968 17.787456,65.341568 C17.787456,65.735168 17.468096,66.055168 17.073856,66.055168 C16.680256,66.055168 16.360896,65.735168 16.360896,65.341568 C16.360896,64.947968 16.680256,64.628608 17.073856,64.628608" id="Fill-137" fill="#5D0F85"></path>
                            <path d="M17.073856,68.151744 C17.468096,68.151744 17.787456,68.471104 17.787456,68.864704 C17.787456,69.258304 17.468096,69.578304 17.073856,69.578304 C16.680256,69.578304 16.360896,69.258304 16.360896,68.864704 C16.360896,68.471104 16.680256,68.151744 17.073856,68.151744" id="Fill-139" fill="#5D0F85"></path>
                            <path d="M17.073856,71.67488 C17.468096,71.67488 17.787456,71.99424 17.787456,72.38784 C17.787456,72.78208 17.468096,73.10144 17.073856,73.10144 C16.680256,73.10144 16.360896,72.78208 16.360896,72.38784 C16.360896,71.99424 16.680256,71.67488 17.073856,71.67488" id="Fill-141" fill="#5D0F85"></path>
                            <path d="M17.073856,75.183936 C17.468096,75.183936 17.787456,75.503296 17.787456,75.896896 C17.787456,76.290496 17.468096,76.610496 17.073856,76.610496 C16.680256,76.610496 16.360896,76.290496 16.360896,75.896896 C16.360896,75.503296 16.680256,75.183936 17.073856,75.183936" id="Fill-143" fill="#5D0F85"></path>
                            <polygon id="Fill-145" fill="#5D0F85" points="15.120064 61.005504 15.676224 66.753984 65.856704 66.753984 66.413504 61.005504"></polygon>
                            <path d="M16.318208,66.040512 L65.214848,66.040512 L65.628928,61.733312 L15.904768,61.733312 L16.318208,66.040512 Z M65.856768,67.467072 L15.676288,67.467072 C15.305088,67.467072 15.005568,67.181632 14.963328,66.825152 L14.407168,61.091392 C14.392448,60.891072 14.449408,60.691392 14.592128,60.548672 C14.720768,60.406592 14.919808,60.320832 15.120128,60.320832 L66.427648,60.320832 C66.627328,60.320832 66.827008,60.406592 66.955648,60.548672 C67.083648,60.691392 67.155328,60.891072 67.140608,61.091392 L66.584448,66.825152 C66.527488,67.181632 66.227968,67.467072 65.856768,67.467072 L65.856768,67.467072 Z" id="Fill-147" fill="#5D0F85"></path>
                            <mask id="mask-6" fill="white">
                                <use xlink:href="#path-5"></use>
                            </mask>
                            <g id="Clip-150"></g>
                            <polygon id="Fill-149" fill="#8851FC" mask="url(#mask-6)" points="9.9136 61.00544 71.61984 61.00544 71.61984 44.6016 9.9136 44.6016"></polygon>
                            <path d="M10.6272,60.29184 L70.90752,60.29184 L70.90752,45.31456 L10.6272,45.31456 L10.6272,60.29184 Z M71.63392,61.7184 L9.9136,61.7184 C9.51424,61.7184 9.2,61.4048 9.2,61.00544 L9.2,44.6016 C9.2,44.20224 9.51424,43.88864 9.9136,43.88864 L71.61984,43.88864 C72.0192,43.88864 72.3338768,44.20224 72.3338768,44.6016 L72.3338768,61.00544 C72.34752,61.4048 72.0192,61.7184 71.63392,61.7184 L71.63392,61.7184 Z" id="Fill-151" fill="#5D0F85" mask="url(#mask-6)"></path>
                            <path d="M93.985728,67.467072 C93.586368,67.467072 93.272768,67.153472 93.272768,66.754112 L93.272768,29.039552 C93.272768,28.640192 93.586368,28.326592 93.985728,28.326592 C94.385088,28.326592 94.698688,28.640192 94.698688,29.039552 L94.698688,66.754112 C94.698688,67.138752 94.385088,67.467072 93.985728,67.467072" id="Fill-152" fill="#5D0F85" mask="url(#mask-6)"></path>
                            <path d="M99.77696,25.202688 C99.76288,28.369408 94.0144,37.141888 94.0144,37.141888 C94.0144,37.141888 88.29472,28.340608 88.308774,25.173888 C88.32352,22.007168 90.89056,19.440128 94.05664,19.4541504 C97.224,19.468928 99.77696,22.035968 99.77696,25.202688" id="Fill-153" fill="#D636B5" mask="url(#mask-6)"></path>
                            <path d="M94.0432,20.16736 C92.70176,20.16736 91.44672,20.68064 90.4912,21.6368 C89.53568,22.57824 89.00768,23.84736 89.00768,25.18816 C89.00768,27.34176 92.20256,32.93344 94.0144,35.82944 C95.8256,32.94816 99.064,27.37056 99.064,25.20288 C99.064,23.86144 98.55008,22.59232 97.59456,21.65088 C96.63904,20.70944 95.39808,20.16736 94.0432,20.16736 M94.0144,37.86912 C94.0144,37.86912 94.00032,37.86912 94.0144,37.86912 C93.77184,37.86912 93.544,37.74048 93.41536,37.5408 C92.81632,36.62816 87.58112,28.4688 87.58112,25.17408 C87.58112,23.448 88.26656,21.83648 89.47808,20.6096 C90.69088,19.3968 92.31712,18.72672 94.02912,18.72672 L94.0432,18.72672 C95.76864,18.72672 97.3808,19.41152 98.60768,20.62368 C99.81984,21.85056 100.48992,23.46208 100.48992,25.18816 C100.47648,28.4688 95.21248,36.61408 94.59936,37.52672 C94.47072,37.74048 94.24288,37.86912 94.0144,37.86912" id="Fill-154" fill="#5D0F85" mask="url(#mask-6)"></path>
                            <path d="M107.265728,38.682048 C104.384448,40.008768 93.999808,38.454208 93.999808,38.454208 C93.999808,38.454208 99.592128,29.567168 102.473408,28.255168 C105.354688,26.928448 108.763328,28.198208 110.090048,31.079488 C111.416128,33.960768 110.147008,37.370048 107.265728,38.682048" id="Fill-155" fill="#D636B5" mask="url(#mask-6)"></path>
                            <path d="M95.212608,37.911744 C98.593088,38.353984 105.012288,38.938944 106.980928,38.040384 C108.207168,37.484224 109.134528,36.485184 109.590848,35.216064 C110.061248,33.961024 110.004288,32.591424 109.448128,31.364544 C108.891968,30.138304 107.878848,29.210944 106.623808,28.753984 C105.368768,28.283584 103.999168,28.340544 102.772928,28.897344 C100.818368,29.809984 97.081408,35.058624 95.212608,37.911744 M103.071808,39.937344 C99.235008,39.937344 94.641728,39.267264 93.899968,39.166784 C93.657408,39.138624 93.458368,38.981824 93.358528,38.753344 C93.258048,38.539584 93.272768,38.282944 93.401408,38.083264 C93.985728,37.155904 99.192768,28.982464 102.187328,27.613504 C103.757248,26.899904 105.511488,26.828864 107.123008,27.427904 C108.735168,28.026944 110.019008,29.225024 110.746048,30.779584 C111.459648,32.348864 111.530688,34.103104 110.931648,35.715264 C110.332608,37.326784 109.134528,38.610624 107.579328,39.338304 C106.595008,39.780544 104.926528,39.937344 103.071808,39.937344" id="Fill-156" fill="#5D0F85" mask="url(#mask-6)"></path>
                            <path d="M80.748864,38.682048 C83.630144,40.008768 94.014784,38.454208 94.014784,38.454208 C94.014784,38.454208 88.423104,29.567168 85.541184,28.255168 C82.659904,26.928448 79.251264,28.198208 77.924544,31.079488 C76.598464,33.960768 77.867584,37.370048 80.748864,38.682048" id="Fill-157" fill="#D636B5" mask="url(#mask-6)"></path>
                            <path d="M83.145088,28.440512 C82.560128,28.440512 81.961088,28.540352 81.390848,28.754112 C80.135808,29.225152 79.136768,30.152512 78.566528,31.364672 C77.411328,33.889472 78.523648,36.870592 81.034368,38.026432 C83.002368,38.924352 89.406848,38.325312 92.802048,37.897792 C90.933248,35.044672 87.196288,29.795392 85.227648,28.896832 C84.571648,28.597312 83.858048,28.440512 83.145088,28.440512 M84.942848,39.937472 C83.088128,39.937472 81.419648,39.780672 80.449408,39.338432 C77.211648,37.854912 75.785088,34.017472 77.282688,30.779712 C77.995648,29.211072 79.293568,28.027072 80.905728,27.427392 C82.517888,26.828352 84.272128,26.900032 85.841408,27.613632 C88.822528,28.982592 94.043008,37.156032 94.627328,38.082752 C94.756608,38.282432 94.770688,38.539712 94.670848,38.753472 C94.571008,38.967232 94.370688,39.124032 94.128768,39.166912 C93.387008,39.280832 88.779648,39.937472 84.942848,39.937472" id="Fill-158" fill="#5D0F85" mask="url(#mask-6)"></path>
                            <polygon id="Fill-159" fill="#7A4DE0" mask="url(#mask-6)" points="112.785728 60.64864 74.202048 60.64864 77.953088 99.23296 109.034688 99.23296"></polygon>
                            <path d="M78.609472,98.519872 L108.392512,98.519872 L112.001472,61.362112 L74.986432,61.362112 L78.609472,98.519872 Z M109.034432,99.946432 L77.953472,99.946432 C77.582272,99.946432 77.282752,99.660992 77.239872,99.304512 L73.488192,60.720192 C73.474752,60.520512 73.531072,60.320832 73.673792,60.178112 C73.802432,60.035392 74.002112,59.949632 74.201792,59.949632 L112.785472,59.949632 C112.985792,59.949632 113.184832,60.035392 113.314112,60.178112 C113.442112,60.320832 113.513152,60.520512 113.499072,60.720192 L109.747392,99.304512 C109.705152,99.675072 109.404992,99.946432 109.034432,99.946432 L109.034432,99.946432 Z" id="Fill-160" fill="#5D0F85" mask="url(#mask-6)"></path>
                            <path d="M108.54944,92.785792 C108.94304,92.785792 109.2624,93.105152 109.2624,93.498752 C109.2624,93.892352 108.94304,94.212352 108.54944,94.212352 C108.15584,94.212352 107.83648,93.892352 107.83648,93.498752 C107.83648,93.105152 108.15584,92.785792 108.54944,92.785792" id="Fill-161" fill="#5D0F85" mask="url(#mask-6)"></path>
                            <path d="M108.54944,96.294592 C108.94304,96.294592 109.2624,96.613952 109.2624,97.008192 C109.2624,97.401792 108.94304,97.721152 108.54944,97.721152 C108.15584,97.721152 107.83648,97.401792 107.83648,97.008192 C107.83648,96.613952 108.15584,96.294592 108.54944,96.294592" id="Fill-162" fill="#5D0F85" mask="url(#mask-6)"></path>
                            <path d="M105.040704,92.785792 C105.434304,92.785792 105.753664,93.105152 105.753664,93.498752 C105.753664,93.892352 105.434304,94.212352 105.040704,94.212352 C104.647104,94.212352 104.327744,93.892352 104.327744,93.498752 C104.327744,93.105152 104.647104,92.785792 105.040704,92.785792" id="Fill-163" fill="#5D0F85" mask="url(#mask-6)"></path>
                            <path d="M105.040704,96.294592 C105.434304,96.294592 105.753664,96.613952 105.753664,97.008192 C105.753664,97.401792 105.434304,97.721152 105.040704,97.721152 C104.647104,97.721152 104.327744,97.401792 104.327744,97.008192 C104.327744,96.613952 104.647104,96.294592 105.040704,96.294592" id="Fill-164" fill="#5D0F85" mask="url(#mask-6)"></path>
                            <path d="M101.517568,92.785792 C101.911168,92.785792 102.230528,93.105152 102.230528,93.498752 C102.230528,93.892352 101.911168,94.212352 101.517568,94.212352 C101.123328,94.212352 100.804608,93.892352 100.804608,93.498752 C100.804608,93.105152 101.123328,92.785792 101.517568,92.785792" id="Fill-165" fill="#5D0F85" mask="url(#mask-6)"></path>
                            <path d="M101.517568,96.294592 C101.911168,96.294592 102.230528,96.613952 102.230528,97.008192 C102.230528,97.401792 101.911168,97.721152 101.517568,97.721152 C101.123328,97.721152 100.804608,97.401792 100.804608,97.008192 C100.804608,96.613952 101.123328,96.294592 101.517568,96.294592" id="Fill-166" fill="#5D0F85" mask="url(#mask-6)"></path>
                            <path d="M97.993856,92.785792 C98.388096,92.785792 98.707456,93.105152 98.707456,93.498752 C98.707456,93.892352 98.388096,94.212352 97.993856,94.212352 C97.600256,94.212352 97.280896,93.892352 97.280896,93.498752 C97.280896,93.105152 97.600256,92.785792 97.993856,92.785792" id="Fill-167" fill="#5D0F85" mask="url(#mask-6)"></path>
                            <path d="M97.993856,96.294592 C98.388096,96.294592 98.707456,96.613952 98.707456,97.008192 C98.707456,97.401792 98.388096,97.721152 97.993856,97.721152 C97.600256,97.721152 97.280896,97.401792 97.280896,97.008192 C97.280896,96.613952 97.600256,96.294592 97.993856,96.294592" id="Fill-168" fill="#5D0F85" mask="url(#mask-6)"></path>
                            <path d="M93.785088,93.384896 C93.848448,92.996416 94.214528,92.732096 94.603008,92.795456 C94.992128,92.858176 95.256448,93.224896 95.193088,93.613376 C95.130368,94.002496 94.763648,94.266176 94.375168,94.202816 C93.986048,94.140096 93.721728,93.773376 93.785088,93.384896" id="Fill-169" fill="#5D0F85" mask="url(#mask-6)"></path>
                            <path d="M93.785088,96.893952 C93.848448,96.505472 94.214528,96.241152 94.603008,96.304512 C94.992768,96.367232 95.256448,96.733952 95.193088,97.122432 C95.130368,97.510912 94.763648,97.775232 94.375168,97.711872 C93.986048,97.649152 93.721728,97.282432 93.785088,96.893952" id="Fill-170" fill="#5D0F85" mask="url(#mask-6)"></path>
                            <path d="M90.961984,92.785792 C91.355584,92.785792 91.674944,93.105152 91.674944,93.498752 C91.674944,93.892352 91.355584,94.212352 90.961984,94.212352 C90.568384,94.212352 90.249024,93.892352 90.249024,93.498752 C90.249024,93.105152 90.568384,92.785792 90.961984,92.785792" id="Fill-171" fill="#5D0F85" mask="url(#mask-6)"></path>
                            <path d="M90.961984,96.294592 C91.355584,96.294592 91.674944,96.613952 91.674944,97.008192 C91.674944,97.401792 91.355584,97.721152 90.961984,97.721152 C90.568384,97.721152 90.249024,97.401792 90.249024,97.008192 C90.249024,96.613952 90.568384,96.294592 90.961984,96.294592" id="Fill-172" fill="#5D0F85" mask="url(#mask-6)"></path>
                            <path d="M87.438848,92.785792 C87.832448,92.785792 88.151808,93.105152 88.151808,93.498752 C88.151808,93.892352 87.832448,94.212352 87.438848,94.212352 C87.045248,94.212352 86.725888,93.892352 86.725888,93.498752 C86.725888,93.105152 87.045248,92.785792 87.438848,92.785792" id="Fill-173" fill="#5D0F85" mask="url(#mask-6)"></path>
                            <path d="M87.438848,96.294592 C87.832448,96.294592 88.151808,96.613952 88.151808,97.008192 C88.151808,97.401792 87.832448,97.721152 87.438848,97.721152 C87.045248,97.721152 86.725888,97.401792 86.725888,97.008192 C86.725888,96.613952 87.045248,96.294592 87.438848,96.294592" id="Fill-174" fill="#5D0F85" mask="url(#mask-6)"></path>
                            <path d="M83.929472,92.785792 C84.323712,92.785792 84.643072,93.105152 84.643072,93.498752 C84.643072,93.892352 84.323712,94.212352 83.929472,94.212352 C83.535872,94.212352 83.216512,93.892352 83.216512,93.498752 C83.216512,93.105152 83.535872,92.785792 83.929472,92.785792" id="Fill-175" fill="#5D0F85" mask="url(#mask-6)"></path>
                            <path d="M83.929472,96.294592 C84.323712,96.294592 84.643072,96.613952 84.643072,97.008192 C84.643072,97.401792 84.323712,97.721152 83.929472,97.721152 C83.535872,97.721152 83.216512,97.401792 83.216512,97.008192 C83.216512,96.613952 83.535872,96.294592 83.929472,96.294592" id="Fill-176" fill="#5D0F85" mask="url(#mask-6)"></path>
                            <path d="M80.406336,75.183936 C80.800576,75.183936 81.119296,75.503296 81.119296,75.896896 C81.119296,76.290496 80.800576,76.610496 80.406336,76.610496 C80.012736,76.610496 79.693376,76.290496 79.693376,75.896896 C79.693376,75.503296 80.012736,75.183936 80.406336,75.183936" id="Fill-177" fill="#5D0F85" mask="url(#mask-6)"></path>
                            <path d="M80.406336,78.707072 C80.800576,78.707072 81.119296,79.026432 81.119296,79.420032 C81.119296,79.814272 80.800576,80.133632 80.406336,80.133632 C80.012736,80.133632 79.693376,79.814272 79.693376,79.420032 C79.693376,79.026432 80.012736,78.707072 80.406336,78.707072" id="Fill-178" fill="#5D0F85" mask="url(#mask-6)"></path>
                            <path d="M80.406336,82.230144 C80.800576,82.230144 81.119296,82.549504 81.119296,82.943744 C81.119296,83.337344 80.800576,83.656704 80.406336,83.656704 C80.012736,83.656704 79.693376,83.337344 79.693376,82.943744 C79.693376,82.549504 80.012736,82.230144 80.406336,82.230144" id="Fill-179" fill="#5D0F85" mask="url(#mask-6)"></path>
                            <path d="M80.406336,85.739264 C80.800576,85.739264 81.119296,86.058624 81.119296,86.452224 C81.119296,86.846464 80.800576,87.165824 80.406336,87.165824 C80.012736,87.165824 79.693376,86.846464 79.693376,86.452224 C79.693376,86.058624 80.012736,85.739264 80.406336,85.739264" id="Fill-180" fill="#5D0F85" mask="url(#mask-6)"></path>
                            <path d="M80.406336,89.262336 C80.800576,89.262336 81.119296,89.581696 81.119296,89.975936 C81.119296,90.369536 80.800576,90.688896 80.406336,90.688896 C80.012736,90.688896 79.693376,90.369536 79.693376,89.975936 C79.693376,89.581696 80.012736,89.262336 80.406336,89.262336" id="Fill-181" fill="#5D0F85" mask="url(#mask-6)"></path>
                            <path d="M80.406336,92.785792 C80.800576,92.785792 81.119296,93.105152 81.119296,93.498752 C81.119296,93.892352 80.800576,94.212352 80.406336,94.212352 C80.012736,94.212352 79.693376,93.892352 79.693376,93.498752 C79.693376,93.105152 80.012736,92.785792 80.406336,92.785792" id="Fill-182" fill="#5D0F85" mask="url(#mask-6)"></path>
                            <path d="M80.406336,96.294592 C80.800576,96.294592 81.119296,96.613952 81.119296,97.008192 C81.119296,97.401792 80.800576,97.721152 80.406336,97.721152 C80.012736,97.721152 79.693376,97.401792 79.693376,97.008192 C79.693376,96.613952 80.012736,96.294592 80.406336,96.294592" id="Fill-183" fill="#5D0F85" mask="url(#mask-6)"></path>
                            <path d="M76.8832,75.183936 C77.2768,75.183936 77.59616,75.503296 77.59616,75.896896 C77.59616,76.290496 77.2768,76.610496 76.8832,76.610496 C76.4896,76.610496 76.17024,76.290496 76.17024,75.896896 C76.17024,75.503296 76.4896,75.183936 76.8832,75.183936" id="Fill-184" fill="#5D0F85" mask="url(#mask-6)"></path>
                            <path d="M76.8832,78.707072 C77.2768,78.707072 77.59616,79.026432 77.59616,79.420032 C77.59616,79.814272 77.2768,80.133632 76.8832,80.133632 C76.4896,80.133632 76.17024,79.814272 76.17024,79.420032 C76.17024,79.026432 76.4896,78.707072 76.8832,78.707072" id="Fill-185" fill="#5D0F85" mask="url(#mask-6)"></path>
                            <path d="M76.8832,82.230144 C77.2768,82.230144 77.59616,82.549504 77.59616,82.943744 C77.59616,83.337344 77.2768,83.656704 76.8832,83.656704 C76.4896,83.656704 76.17024,83.337344 76.17024,82.943744 C76.17024,82.549504 76.4896,82.230144 76.8832,82.230144" id="Fill-186" fill="#5D0F85" mask="url(#mask-6)"></path>
                            <path d="M76.8832,85.739264 C77.2768,85.739264 77.59616,86.058624 77.59616,86.452224 C77.59616,86.846464 77.2768,87.165824 76.8832,87.165824 C76.4896,87.165824 76.17024,86.846464 76.17024,86.452224 C76.17024,86.058624 76.4896,85.739264 76.8832,85.739264" id="Fill-187" fill="#5D0F85" mask="url(#mask-6)"></path>
                            <path d="M76.8832,89.262336 C77.2768,89.262336 77.59616,89.581696 77.59616,89.975936 C77.59616,90.369536 77.2768,90.688896 76.8832,90.688896 C76.4896,90.688896 76.17024,90.369536 76.17024,89.975936 C76.17024,89.581696 76.4896,89.262336 76.8832,89.262336" id="Fill-188" fill="#5D0F85" mask="url(#mask-6)"></path>
                            <polygon id="Fill-189" fill="#5D0F85" mask="url(#mask-6)" points="75.328192 72.159872 75.714112 76.211072 111.273792 76.211072 111.673152 72.159872"></polygon>
                            <path d="M76.370112,75.497664 L110.631872,75.497664 L110.889152,72.858944 L76.113472,72.858944 L76.370112,75.497664 Z M111.273792,76.924224 L75.714112,76.924224 C75.342912,76.924224 75.043392,76.638784 75.000512,76.282304 L74.601152,72.217024 C74.587072,72.017344 74.644032,71.817664 74.786112,71.674944 C74.915392,71.532224 75.114432,71.446464 75.314752,71.446464 L111.659072,71.446464 C111.858752,71.446464 112.058432,71.532224 112.187072,71.674944 C112.315072,71.817664 112.386112,72.017344 112.372672,72.217024 L111.972672,76.282304 C111.944512,76.652864 111.644992,76.924224 111.273792,76.924224 L111.273792,76.924224 Z" id="Fill-190" fill="#5D0F85" mask="url(#mask-6)"></path>
                            <polygon id="Fill-191" fill="#7A4DE0" mask="url(#mask-6)" points="71.63392 72.16 115.36768 72.16 115.36768 60.5344 71.63392 60.5344"></polygon>
                            <path d="M72.34752,71.44704 L114.65408,71.44704 L114.65408,61.248 L72.34752,61.248 L72.34752,71.44704 Z M115.36768,72.87296 L71.63392,72.87296 C71.23456,72.87296 70.92096,72.55936 70.92096,72.16 L70.92096,60.5344 C70.92096,60.13504 71.23456,59.82144 71.63392,59.82144 L115.36768,59.82144 C115.76704,59.82144 116.08064,60.13504 116.08064,60.5344 L116.08064,72.16 C116.08064,72.54464 115.75232,72.87296 115.36768,72.87296 L115.36768,72.87296 Z" id="Fill-192" fill="#5D0F85" mask="url(#mask-6)"></path>
                            <path d="M131.172608,77.052352 C130.773248,77.052352 130.459008,76.738752 130.459008,76.339392 L130.459008,49.779392 C130.459008,49.380032 130.773248,49.066432 131.172608,49.066432 C131.571968,49.066432 131.885568,49.380032 131.885568,49.779392 L131.885568,76.353472 C131.885568,76.738752 131.571968,77.052352 131.172608,77.052352" id="Fill-193" fill="#5D0F85" mask="url(#mask-6)"></path>
                            <path d="M135.251968,47.069568 C135.251968,49.308928 131.186048,55.484928 131.186048,55.484928 C131.186048,55.484928 127.150208,49.280128 127.163615,47.055488 C127.163615,44.816128 128.990208,43.018368 131.214848,43.018368 C133.440128,43.018368 135.251968,44.844288 135.251968,47.069568" id="Fill-194" fill="#8851FC" mask="url(#mask-6)"></path>
                            <path d="M131.200704,43.731456 C129.360704,43.731456 127.877824,45.214976 127.863104,47.054976 C127.863104,48.338816 129.703104,51.762176 131.172544,54.158336 C132.655424,51.776256 134.524224,48.367616 134.524224,47.069056 C134.538944,45.243776 133.054784,43.745536 131.200704,43.731456 C131.214784,43.731456 131.214784,43.731456 131.200704,43.731456 M131.186624,56.212736 L131.186624,56.212736 C130.944064,56.212736 130.715584,56.084096 130.587584,55.884416 C130.159424,55.228416 126.437184,49.437696 126.450588,47.054976 C126.450588,44.430336 128.590784,42.304896 131.214784,42.304896 L131.229504,42.304896 C133.854144,42.304896 135.979584,44.445056 135.979584,47.069696 C135.979584,49.451776 132.227264,55.228416 131.800384,55.870336 C131.657664,56.084096 131.428544,56.212736 131.186624,56.212736" id="Fill-195" fill="#5D0F85" mask="url(#mask-6)"></path>
                            <polygon id="Fill-196" fill="#F6F5F2" mask="url(#mask-6)" points="144.423808 72.045824 117.236608 72.045824 119.875328 99.233024 141.770368 99.233024"></polygon>
                            <path d="M120.516992,98.519872 L141.114752,98.519872 L143.624832,72.759232 L118.006272,72.759232 L120.516992,98.519872 Z M141.770752,99.946432 L119.875072,99.946432 C119.504512,99.946432 119.204992,99.660992 119.162112,99.304512 L116.523392,72.117312 C116.508672,71.917632 116.565632,71.717952 116.708992,71.575232 C116.836992,71.432512 117.037312,71.346752 117.236352,71.346752 L144.423552,71.346752 C144.623232,71.346752 144.823552,71.432512 144.951552,71.575232 C145.079552,71.717952 145.151232,71.917632 145.137152,72.117312 L142.498432,99.304512 C142.454912,99.675072 142.141312,99.946432 141.770752,99.946432 L141.770752,99.946432 Z" id="Fill-197" fill="#5D0F85" mask="url(#mask-6)"></path>
                            <path d="M140.215744,92.785792 C140.609344,92.785792 140.928704,93.105152 140.928704,93.498752 C140.928704,93.892352 140.609344,94.212352 140.215744,94.212352 C139.822144,94.212352 139.502784,93.892352 139.502784,93.498752 C139.502784,93.105152 139.822144,92.785792 140.215744,92.785792" id="Fill-198" fill="#5D0F85" mask="url(#mask-6)"></path>
                            <path d="M140.215744,96.294592 C140.609344,96.294592 140.928704,96.613952 140.928704,97.008192 C140.928704,97.401792 140.609344,97.721152 140.215744,97.721152 C139.822144,97.721152 139.502784,97.401792 139.502784,97.008192 C139.502784,96.613952 139.822144,96.294592 140.215744,96.294592" id="Fill-199" fill="#5D0F85" mask="url(#mask-6)"></path>
                            <path d="M136.706944,92.785792 C137.100544,92.785792 137.419904,93.105152 137.419904,93.498752 C137.419904,93.892352 137.100544,94.212352 136.706944,94.212352 C136.312704,94.212352 135.993984,93.892352 135.993984,93.498752 C135.993984,93.105152 136.312704,92.785792 136.706944,92.785792" id="Fill-200" fill="#5D0F85" mask="url(#mask-6)"></path>
                            <path d="M136.706944,96.294592 C137.100544,96.294592 137.419904,96.613952 137.419904,97.008192 C137.419904,97.401792 137.100544,97.721152 136.706944,97.721152 C136.312704,97.721152 135.993984,97.401792 135.993984,97.008192 C135.993984,96.613952 136.312704,96.294592 136.706944,96.294592" id="Fill-201" fill="#5D0F85" mask="url(#mask-6)"></path>
                            <path d="M133.183808,92.785792 C133.577408,92.785792 133.896768,93.105152 133.896768,93.498752 C133.896768,93.892352 133.577408,94.212352 133.183808,94.212352 C132.789568,94.212352 132.470208,93.892352 132.470208,93.498752 C132.470208,93.105152 132.789568,92.785792 133.183808,92.785792" id="Fill-202" fill="#5D0F85" mask="url(#mask-6)"></path>
                            <path d="M133.183808,96.294592 C133.577408,96.294592 133.896768,96.613952 133.896768,97.008192 C133.896768,97.401792 133.577408,97.721152 133.183808,97.721152 C132.789568,97.721152 132.470208,97.401792 132.470208,97.008192 C132.470208,96.613952 132.789568,96.294592 133.183808,96.294592" id="Fill-203" fill="#5D0F85" mask="url(#mask-6)"></path>
                            <path d="M129.660096,92.785792 C130.054336,92.785792 130.373696,93.105152 130.373696,93.498752 C130.373696,93.892352 130.054336,94.212352 129.660096,94.212352 C129.266496,94.212352 128.947136,93.892352 128.947136,93.498752 C128.947136,93.105152 129.266496,92.785792 129.660096,92.785792" id="Fill-204" fill="#5D0F85" mask="url(#mask-6)"></path>
                            <path d="M129.660096,96.294592 C130.054336,96.294592 130.373696,96.613952 130.373696,97.008192 C130.373696,97.401792 130.054336,97.721152 129.660096,97.721152 C129.266496,97.721152 128.947136,97.401792 128.947136,97.008192 C128.947136,96.613952 129.266496,96.294592 129.660096,96.294592" id="Fill-205" fill="#5D0F85" mask="url(#mask-6)"></path>
                            <path d="M126.15136,92.785792 C126.54496,92.785792 126.86432,93.105152 126.86432,93.498752 C126.86432,93.892352 126.54496,94.212352 126.15136,94.212352 C125.75776,94.212352 125.4384,93.892352 125.4384,93.498752 C125.4384,93.105152 125.75776,92.785792 126.15136,92.785792" id="Fill-206" fill="#5D0F85" mask="url(#mask-6)"></path>
                            <path d="M126.15136,96.294592 C126.54496,96.294592 126.86432,96.613952 126.86432,97.008192 C126.86432,97.401792 126.54496,97.721152 126.15136,97.721152 C125.75776,97.721152 125.4384,97.401792 125.4384,97.008192 C125.4384,96.613952 125.75776,96.294592 126.15136,96.294592" id="Fill-207" fill="#5D0F85" mask="url(#mask-6)"></path>
                            <path d="M122.628224,85.739264 C123.021824,85.739264 123.341184,86.058624 123.341184,86.452224 C123.341184,86.846464 123.021824,87.165824 122.628224,87.165824 C122.234624,87.165824 121.915264,86.846464 121.915264,86.452224 C121.915264,86.058624 122.234624,85.739264 122.628224,85.739264" id="Fill-208" fill="#5D0F85" mask="url(#mask-6)"></path>
                            <path d="M122.628224,89.262336 C123.021824,89.262336 123.341184,89.581696 123.341184,89.975936 C123.341184,90.369536 123.021824,90.688896 122.628224,90.688896 C122.234624,90.688896 121.915264,90.369536 121.915264,89.975936 C121.915264,89.581696 122.234624,89.262336 122.628224,89.262336" id="Fill-209" fill="#5D0F85" mask="url(#mask-6)"></path>
                            <path d="M122.628224,92.785792 C123.021824,92.785792 123.341184,93.105152 123.341184,93.498752 C123.341184,93.892352 123.021824,94.212352 122.628224,94.212352 C122.234624,94.212352 121.915264,93.892352 121.915264,93.498752 C121.915264,93.105152 122.234624,92.785792 122.628224,92.785792" id="Fill-210" fill="#5D0F85" mask="url(#mask-6)"></path>
                            <path d="M122.628224,96.294592 C123.021824,96.294592 123.341184,96.613952 123.341184,97.008192 C123.341184,97.401792 123.021824,97.721152 122.628224,97.721152 C122.234624,97.721152 121.915264,97.401792 121.915264,97.008192 C121.915264,96.613952 122.234624,96.294592 122.628224,96.294592" id="Fill-211" fill="#5D0F85" mask="url(#mask-6)"></path>
                            <path d="M119.105088,85.739264 C119.498688,85.739264 119.818048,86.058624 119.818048,86.452224 C119.818048,86.846464 119.498688,87.165824 119.105088,87.165824 C118.711488,87.165824 118.392128,86.846464 118.392128,86.452224 C118.392128,86.058624 118.711488,85.739264 119.105088,85.739264" id="Fill-212" fill="#5D0F85" mask="url(#mask-6)"></path>
                            <path d="M119.105088,89.262336 C119.498688,89.262336 119.818048,89.581696 119.818048,89.975936 C119.818048,90.369536 119.498688,90.688896 119.105088,90.688896 C118.711488,90.688896 118.392128,90.369536 118.392128,89.975936 C118.392128,89.581696 118.711488,89.262336 119.105088,89.262336" id="Fill-213" fill="#5D0F85" mask="url(#mask-6)"></path>
                            <polygon id="Fill-214" fill="#5D0F85" mask="url(#mask-6)" points="118.020736 80.147648 118.292096 83.014848 143.353856 83.014848 143.625216 80.147648"></polygon>
                            <path d="M118.948224,82.30176 L142.712064,82.30176 L142.854784,80.86112 L118.819584,80.86112 L118.948224,82.30176 Z M143.353984,83.72832 L118.306304,83.72832 C117.935104,83.72832 117.635584,83.44288 117.593344,83.0864 L117.307904,80.2192 C117.293184,80.01952 117.350784,79.81984 117.493504,79.67712 C117.621504,79.5344 117.821184,79.44864 118.020864,79.44864 L143.625344,79.44864 C143.824384,79.44864 144.024704,79.5344 144.152704,79.67712 C144.280704,79.81984 144.352384,80.01952 144.338304,80.2192 L144.052864,83.0864 C144.024704,83.45696 143.724544,83.72832 143.353984,83.72832 L143.353984,83.72832 Z" id="Fill-215" fill="#5D0F85" mask="url(#mask-6)"></path>
                            <polygon id="Fill-216" fill="#F6F5F2" mask="url(#mask-6)" points="115.41056 80.14784 146.2208 80.14784 146.2208 71.96032 115.41056 71.96032"></polygon>
                            <path d="M116.12352,79.43424 L145.5072,79.43424 L145.5072,72.67328 L116.12352,72.67328 L116.12352,79.43424 Z M146.23488,80.8608 L115.42464,80.8608 C115.02592,80.8608 114.71104,80.5472 114.71104,80.14784 L114.71104,71.96032 C114.71104,71.56096 115.02592,71.24736 115.42464,71.24736 L146.23488,71.24736 C146.63424,71.24736 146.94848,71.56096 146.94848,71.96032 L146.94848,80.14784 C146.94848,80.5472 146.62016,80.8608 146.23488,80.8608 L146.23488,80.8608 Z" id="Fill-217" fill="#5D0F85" mask="url(#mask-6)"></path>
                            <path d="M81.690112,19.226112 C81.447552,19.226112 81.219712,19.111552 81.076992,18.883712 L79.364992,16.116352 C79.165952,15.773952 79.265792,15.346432 79.593472,15.132032 C79.935872,14.932352 80.364032,15.032192 80.577792,15.360512 L82.289792,18.127872 C82.488832,18.469632 82.389632,18.897792 82.061312,19.111552 C81.946752,19.197312 81.818752,19.226112 81.690112,19.226112" id="Fill-218" fill="#F6F5F2" mask="url(#mask-6)"></path>
                            <path d="M72.975104,28.825792 C72.875264,28.825792 72.760704,28.796992 72.661504,28.754112 L69.736704,27.313472 C69.380864,27.142592 69.237504,26.714432 69.409024,26.357952 C69.579904,26.001472 70.008064,25.858752 70.364544,26.029632 L73.288704,27.470272 C73.645184,27.641792 73.788544,28.069312 73.617024,28.426432 C73.488384,28.683072 73.245824,28.825792 72.975104,28.825792" id="Fill-219" fill="#F6F5F2" mask="url(#mask-6)"></path>
                            <path d="M106.32448,19.226112 C106.19584,19.226112 106.06784,19.197312 105.95328,19.126272 C105.61152,18.926592 105.51104,18.484352 105.7248,18.141952 L107.4368,15.374592 C107.65056,15.032192 108.07872,14.932352 108.42112,15.146752 C108.76352,15.346432 108.86336,15.788032 108.6496,16.131072 L106.9376,18.897792 C106.79488,19.111552 106.56704,19.226112 106.32448,19.226112" id="Fill-220" fill="#F6F5F2" mask="url(#mask-6)"></path>
                            <path d="M115.039488,28.825792 C114.783488,28.825792 114.526208,28.683072 114.397568,28.426432 C114.226048,28.069312 114.369408,27.641792 114.725888,27.470272 L117.650048,26.029632 C118.006528,25.858752 118.434688,26.001472 118.605568,26.357952 C118.777088,26.714432 118.634368,27.142592 118.277888,27.313472 L115.353088,28.754112 C115.253888,28.796992 115.139328,28.825792 115.039488,28.825792" id="Fill-221" fill="#F6F5F2" mask="url(#mask-6)"></path>
                            <polygon id="Fill-222" fill="#5D0F85" mask="url(#mask-6)" points="149.48544 66.768 154.192 66.768 154.192 65.34144 149.48544 65.34144"></polygon>
                            <polygon id="Fill-223" fill="#5D0F85" mask="url(#mask-6)" points="151.1264 68.40768 152.55296 68.40768 152.55296 63.70112 151.1264 63.70112"></polygon>
                            <polygon id="Fill-224" fill="#5D0F85" mask="url(#mask-6)" points="3.86688 23.58016 14.8672 23.58016 14.8672 20.2464 3.86688 20.2464"></polygon>
                            <polygon id="Fill-225" fill="#5D0F85" mask="url(#mask-6)" points="7.66784 27.41376 11.00096 27.41376 11.00096 16.4128 7.66784 16.4128"></polygon>
                            <polygon id="Fill-226" fill="#5D0F85" mask="url(#mask-6)" points="0 68.55104 4.70656 68.55104 4.70656 67.12448 0 67.12448"></polygon>
                            <polygon id="Fill-227" fill="#5D0F85" mask="url(#mask-6)" points="1.62624 70.19136 3.0528 70.19136 3.0528 65.48416 1.62624 65.48416"></polygon>
                        </g>
                    </g>
                </g>
            </g>
        </g>
    </g>
</svg>