<?xml version="1.0" encoding="UTF-8"?>
<svg width="117px" height="91px" viewBox="0 0 117 91" version="1.1" xmlns="http://www.w3.org/2000/svg" xmlns:xlink="http://www.w3.org/1999/xlink">
    <!-- Generator: sketchtool 62 (101010) - https://sketch.com -->
    <title>E754B66A-80A5-432A-9CE4-315C01252D11@3x</title>
    <desc>Created with sketchtool.</desc>
    <defs>
        <polygon id="path-1" points="0 119 125.863 119 125.863 0.48 0 0.48"></polygon>
    </defs>
    <g id="Girls-Code" stroke="none" stroke-width="1" fill="none" fill-rule="evenodd">
        <g id="Actividades" transform="translate(-649.000000, -2822.000000)">
            <g id="Group-184" transform="translate(640.000000, 2793.000000)">
                <polygon id="Fill-1" fill="#F6F5F2" points="56.8701 50.9436 43.7261 105.4496 56.8701 118.5736 124.8981 118.5736 124.8981 50.9436"></polygon>
                <g id="Group-183" transform="translate(0.000000, 0.520000)">
                    <path d="M57.2486,117.1087 L123.9336,117.1087 L123.9336,51.3687 L57.5886,51.3687 L44.7846,104.6267 L57.2486,117.1087 Z M124.8976,118.9997 L56.8696,118.9997 C56.6236,118.9997 56.3786,118.9057 56.2086,118.7157 L43.0826,105.5907 C42.8556,105.3637 42.7616,105.0237 42.8376,104.7017 L55.9626,50.2157 C56.0576,49.7997 56.4536,49.4967 56.8896,49.4967 L124.9166,49.4967 C125.4466,49.4967 125.8626,49.9127 125.8626,50.4417 L125.8626,118.0547 C125.8436,118.5837 125.4086,118.9997 124.8976,118.9997 L124.8976,118.9997 Z" id="Fill-2" fill="#5D0F85"></path>
                    <path d="M124.1607,64.0784 C124.6827,64.0784 125.1057,64.5014 125.1057,65.0234 C125.1057,65.5464 124.6827,65.9694 124.1607,65.9694 C123.6387,65.9694 123.2147,65.5464 123.2147,65.0234 C123.2147,64.5014 123.6387,64.0784 124.1607,64.0784" id="Fill-4" fill="#5D0F85"></path>
                    <path d="M124.1607,68.7498 C124.6827,68.7498 125.1057,69.1728 125.1057,69.6948 C125.1057,70.2178 124.6827,70.6408 124.1607,70.6408 C123.6387,70.6408 123.2147,70.2178 123.2147,69.6948 C123.2147,69.1728 123.6387,68.7498 124.1607,68.7498" id="Fill-6" fill="#5D0F85"></path>
                    <path d="M124.1607,73.4212 C124.6827,73.4212 125.1057,73.8442 125.1057,74.3662 C125.1057,74.8892 124.6827,75.3122 124.1607,75.3122 C123.6387,75.3122 123.2147,74.8892 123.2147,74.3662 C123.2147,73.8442 123.6387,73.4212 124.1607,73.4212" id="Fill-8" fill="#5D0F85"></path>
                    <path d="M124.1607,78.0736 C124.6827,78.0736 125.1057,78.4966 125.1057,79.0186 C125.1057,79.5416 124.6827,79.9646 124.1607,79.9646 C123.6387,79.9646 123.2147,79.5416 123.2147,79.0186 C123.2147,78.4966 123.6387,78.0736 124.1607,78.0736" id="Fill-10" fill="#5D0F85"></path>
                    <path d="M124.1607,82.7449 C124.6827,82.7449 125.1057,83.1679 125.1057,83.6899 C125.1057,84.2129 124.6827,84.6359 124.1607,84.6359 C123.6387,84.6359 123.2147,84.2129 123.2147,83.6899 C123.2147,83.1679 123.6387,82.7449 124.1607,82.7449" id="Fill-12" fill="#5D0F85"></path>
                    <path d="M124.1607,87.4163 C124.6827,87.4163 125.1057,87.8393 125.1057,88.3623 C125.1057,88.8843 124.6827,89.3073 124.1607,89.3073 C123.6387,89.3073 123.2147,88.8843 123.2147,88.3623 C123.2147,87.8393 123.6387,87.4163 124.1607,87.4163" id="Fill-14" fill="#5D0F85"></path>
                    <path d="M124.1607,92.0687 C124.6827,92.0687 125.1057,92.4917 125.1057,93.0147 C125.1057,93.5367 124.6827,93.9597 124.1607,93.9597 C123.6387,93.9597 123.2147,93.5367 123.2147,93.0147 C123.2147,92.4917 123.6387,92.0687 124.1607,92.0687" id="Fill-16" fill="#5D0F85"></path>
                    <path d="M124.1607,96.7401 C124.6827,96.7401 125.1057,97.1631 125.1057,97.6861 C125.1057,98.2081 124.6827,98.6311 124.1607,98.6311 C123.6387,98.6311 123.2147,98.2081 123.2147,97.6861 C123.2147,97.1631 123.6387,96.7401 124.1607,96.7401" id="Fill-18" fill="#5D0F85"></path>
                    <path d="M124.1607,101.4115 C124.6827,101.4115 125.1057,101.8345 125.1057,102.3575 C125.1057,102.8795 124.6827,103.3025 124.1607,103.3025 C123.6387,103.3025 123.2147,102.8795 123.2147,102.3575 C123.2147,101.8345 123.6387,101.4115 124.1607,101.4115" id="Fill-20" fill="#5D0F85"></path>
                    <path d="M124.1607,106.0638 C124.6827,106.0638 125.1057,106.4868 125.1057,107.0098 C125.1057,107.5318 124.6827,107.9558 124.1607,107.9558 C123.6387,107.9558 123.2147,107.5318 123.2147,107.0098 C123.2147,106.4868 123.6387,106.0638 124.1607,106.0638" id="Fill-22" fill="#5D0F85"></path>
                    <path d="M124.1607,110.7352 C124.6827,110.7352 125.1057,111.1582 125.1057,111.6812 C125.1057,112.2032 124.6827,112.6262 124.1607,112.6262 C123.6387,112.6262 123.2147,112.2032 123.2147,111.6812 C123.2147,111.1582 123.6387,110.7352 124.1607,110.7352" id="Fill-24" fill="#5D0F85"></path>
                    <path d="M124.1607,115.4066 C124.6827,115.4066 125.1057,115.8296 125.1057,116.3526 C125.1057,116.8746 124.6827,117.2976 124.1607,117.2976 C123.6387,117.2976 123.2147,116.8746 123.2147,116.3526 C123.2147,115.8296 123.6387,115.4066 124.1607,115.4066" id="Fill-26" fill="#5D0F85"></path>
                    <path d="M119.4888,59.4261 C120.0108,59.4261 120.4348,59.8491 120.4348,60.3711 C120.4348,60.8941 120.0108,61.3171 119.4888,61.3171 C118.9668,61.3171 118.5438,60.8941 118.5438,60.3711 C118.5438,59.8491 118.9668,59.4261 119.4888,59.4261" id="Fill-28" fill="#5D0F85"></path>
                    <path d="M119.4888,64.0784 C120.0108,64.0784 120.4348,64.5014 120.4348,65.0234 C120.4348,65.5464 120.0108,65.9694 119.4888,65.9694 C118.9668,65.9694 118.5438,65.5464 118.5438,65.0234 C118.5438,64.5014 118.9668,64.0784 119.4888,64.0784" id="Fill-30" fill="#5D0F85"></path>
                    <path d="M119.4888,68.7498 C120.0108,68.7498 120.4348,69.1728 120.4348,69.6948 C120.4348,70.2178 120.0108,70.6408 119.4888,70.6408 C118.9668,70.6408 118.5438,70.2178 118.5438,69.6948 C118.5438,69.1728 118.9668,68.7498 119.4888,68.7498" id="Fill-32" fill="#5D0F85"></path>
                    <path d="M119.4888,73.4212 C120.0108,73.4212 120.4348,73.8442 120.4348,74.3662 C120.4348,74.8892 120.0108,75.3122 119.4888,75.3122 C118.9668,75.3122 118.5438,74.8892 118.5438,74.3662 C118.5438,73.8442 118.9668,73.4212 119.4888,73.4212" id="Fill-34" fill="#5D0F85"></path>
                    <path d="M119.4888,78.0736 C120.0108,78.0736 120.4348,78.4966 120.4348,79.0186 C120.4348,79.5416 120.0108,79.9646 119.4888,79.9646 C118.9668,79.9646 118.5438,79.5416 118.5438,79.0186 C118.5438,78.4966 118.9668,78.0736 119.4888,78.0736" id="Fill-36" fill="#5D0F85"></path>
                    <path d="M119.4888,82.7449 C120.0108,82.7449 120.4348,83.1679 120.4348,83.6899 C120.4348,84.2129 120.0108,84.6359 119.4888,84.6359 C118.9668,84.6359 118.5438,84.2129 118.5438,83.6899 C118.5438,83.1679 118.9668,82.7449 119.4888,82.7449" id="Fill-38" fill="#5D0F85"></path>
                    <path d="M119.4888,87.4163 C120.0108,87.4163 120.4348,87.8393 120.4348,88.3623 C120.4348,88.8843 120.0108,89.3073 119.4888,89.3073 C118.9668,89.3073 118.5438,88.8843 118.5438,88.3623 C118.5438,87.8393 118.9668,87.4163 119.4888,87.4163" id="Fill-40" fill="#5D0F85"></path>
                    <path d="M119.4888,92.0687 C120.0108,92.0687 120.4348,92.4917 120.4348,93.0147 C120.4348,93.5367 120.0108,93.9597 119.4888,93.9597 C118.9668,93.9597 118.5438,93.5367 118.5438,93.0147 C118.5438,92.4917 118.9668,92.0687 119.4888,92.0687" id="Fill-42" fill="#5D0F85"></path>
                    <path d="M119.4888,96.7401 C120.0108,96.7401 120.4348,97.1631 120.4348,97.6861 C120.4348,98.2081 120.0108,98.6311 119.4888,98.6311 C118.9668,98.6311 118.5438,98.2081 118.5438,97.6861 C118.5438,97.1631 118.9668,96.7401 119.4888,96.7401" id="Fill-44" fill="#5D0F85"></path>
                    <path d="M119.4888,101.4115 C120.0108,101.4115 120.4348,101.8345 120.4348,102.3575 C120.4348,102.8795 120.0108,103.3025 119.4888,103.3025 C118.9668,103.3025 118.5438,102.8795 118.5438,102.3575 C118.5438,101.8345 118.9668,101.4115 119.4888,101.4115" id="Fill-46" fill="#5D0F85"></path>
                    <path d="M119.4888,106.0638 C120.0108,106.0638 120.4348,106.4868 120.4348,107.0098 C120.4348,107.5318 120.0108,107.9558 119.4888,107.9558 C118.9668,107.9558 118.5438,107.5318 118.5438,107.0098 C118.5438,106.4868 118.9668,106.0638 119.4888,106.0638" id="Fill-48" fill="#5D0F85"></path>
                    <path d="M119.4888,110.7352 C120.0108,110.7352 120.4348,111.1582 120.4348,111.6812 C120.4348,112.2032 120.0108,112.6262 119.4888,112.6262 C118.9668,112.6262 118.5438,112.2032 118.5438,111.6812 C118.5438,111.1582 118.9668,110.7352 119.4888,110.7352" id="Fill-50" fill="#5D0F85"></path>
                    <path d="M119.4888,115.4066 C120.0108,115.4066 120.4348,115.8296 120.4348,116.3526 C120.4348,116.8746 120.0108,117.2976 119.4888,117.2976 C118.9668,117.2976 118.5438,116.8746 118.5438,116.3526 C118.5438,115.8296 118.9668,115.4066 119.4888,115.4066" id="Fill-52" fill="#5D0F85"></path>
                    <path d="M114.8179,54.7547 C115.3399,54.7547 115.7629,55.1777 115.7629,55.6997 C115.7629,56.2227 115.3399,56.6457 114.8179,56.6457 C114.2959,56.6457 113.8719,56.2227 113.8719,55.6997 C113.8719,55.1777 114.2959,54.7547 114.8179,54.7547" id="Fill-54" fill="#5D0F85"></path>
                    <path d="M114.8179,59.4261 C115.3399,59.4261 115.7629,59.8491 115.7629,60.3711 C115.7629,60.8941 115.3399,61.3171 114.8179,61.3171 C114.2959,61.3171 113.8719,60.8941 113.8719,60.3711 C113.8719,59.8491 114.2959,59.4261 114.8179,59.4261" id="Fill-56" fill="#5D0F85"></path>
                    <path d="M114.8179,64.0784 C115.3399,64.0784 115.7629,64.5014 115.7629,65.0234 C115.7629,65.5464 115.3399,65.9694 114.8179,65.9694 C114.2959,65.9694 113.8719,65.5464 113.8719,65.0234 C113.8719,64.5014 114.2959,64.0784 114.8179,64.0784" id="Fill-58" fill="#5D0F85"></path>
                    <path d="M114.8179,68.7498 C115.3399,68.7498 115.7629,69.1728 115.7629,69.6948 C115.7629,70.2178 115.3399,70.6408 114.8179,70.6408 C114.2959,70.6408 113.8719,70.2178 113.8719,69.6948 C113.8719,69.1728 114.2959,68.7498 114.8179,68.7498" id="Fill-60" fill="#5D0F85"></path>
                    <path d="M114.8179,73.4212 C115.3399,73.4212 115.7629,73.8442 115.7629,74.3662 C115.7629,74.8892 115.3399,75.3122 114.8179,75.3122 C114.2959,75.3122 113.8719,74.8892 113.8719,74.3662 C113.8719,73.8442 114.2959,73.4212 114.8179,73.4212" id="Fill-62" fill="#5D0F85"></path>
                    <path d="M114.8179,78.0736 C115.3399,78.0736 115.7629,78.4966 115.7629,79.0186 C115.7629,79.5416 115.3399,79.9646 114.8179,79.9646 C114.2959,79.9646 113.8719,79.5416 113.8719,79.0186 C113.8719,78.4966 114.2959,78.0736 114.8179,78.0736" id="Fill-64" fill="#5D0F85"></path>
                    <path d="M114.8179,82.7449 C115.3399,82.7449 115.7629,83.1679 115.7629,83.6899 C115.7629,84.2129 115.3399,84.6359 114.8179,84.6359 C114.2959,84.6359 113.8719,84.2129 113.8719,83.6899 C113.8719,83.1679 114.2959,82.7449 114.8179,82.7449" id="Fill-66" fill="#5D0F85"></path>
                    <path d="M114.8179,87.4163 C115.3399,87.4163 115.7629,87.8393 115.7629,88.3623 C115.7629,88.8843 115.3399,89.3073 114.8179,89.3073 C114.2959,89.3073 113.8719,88.8843 113.8719,88.3623 C113.8719,87.8393 114.2959,87.4163 114.8179,87.4163" id="Fill-68" fill="#5D0F85"></path>
                    <path d="M114.8179,92.0687 C115.3399,92.0687 115.7629,92.4917 115.7629,93.0147 C115.7629,93.5367 115.3399,93.9597 114.8179,93.9597 C114.2959,93.9597 113.8719,93.5367 113.8719,93.0147 C113.8719,92.4917 114.2959,92.0687 114.8179,92.0687" id="Fill-70" fill="#5D0F85"></path>
                    <path d="M114.8179,96.7401 C115.3399,96.7401 115.7629,97.1631 115.7629,97.6861 C115.7629,98.2081 115.3399,98.6311 114.8179,98.6311 C114.2959,98.6311 113.8719,98.2081 113.8719,97.6861 C113.8719,97.1631 114.2959,96.7401 114.8179,96.7401" id="Fill-72" fill="#5D0F85"></path>
                    <path d="M114.8179,101.4115 C115.3399,101.4115 115.7629,101.8345 115.7629,102.3575 C115.7629,102.8795 115.3399,103.3025 114.8179,103.3025 C114.2959,103.3025 113.8719,102.8795 113.8719,102.3575 C113.8719,101.8345 114.2959,101.4115 114.8179,101.4115" id="Fill-74" fill="#5D0F85"></path>
                    <path d="M114.8179,106.0638 C115.3399,106.0638 115.7629,106.4868 115.7629,107.0098 C115.7629,107.5318 115.3399,107.9558 114.8179,107.9558 C114.2959,107.9558 113.8719,107.5318 113.8719,107.0098 C113.8719,106.4868 114.2959,106.0638 114.8179,106.0638" id="Fill-76" fill="#5D0F85"></path>
                    <path d="M114.8179,110.7352 C115.3399,110.7352 115.7629,111.1582 115.7629,111.6812 C115.7629,112.2032 115.3399,112.6262 114.8179,112.6262 C114.2959,112.6262 113.8719,112.2032 113.8719,111.6812 C113.8719,111.1582 114.2959,110.7352 114.8179,110.7352" id="Fill-78" fill="#5D0F85"></path>
                    <path d="M114.8179,115.4066 C115.3399,115.4066 115.7629,115.8296 115.7629,116.3526 C115.7629,116.8746 115.3399,117.2976 114.8179,117.2976 C114.2959,117.2976 113.8719,116.8746 113.8719,116.3526 C113.8719,115.8296 114.2959,115.4066 114.8179,115.4066" id="Fill-80" fill="#5D0F85"></path>
                    <path d="M110.1656,106.0638 C110.6866,106.0638 111.1106,106.4868 111.1106,107.0098 C111.1106,107.5318 110.6866,107.9558 110.1656,107.9558 C109.6436,107.9558 109.2196,107.5318 109.2196,107.0098 C109.2196,106.4868 109.6436,106.0638 110.1656,106.0638" id="Fill-82" fill="#5D0F85"></path>
                    <path d="M110.1656,110.7352 C110.6866,110.7352 111.1106,111.1582 111.1106,111.6812 C111.1106,112.2032 110.6866,112.6262 110.1656,112.6262 C109.6436,112.6262 109.2196,112.2032 109.2196,111.6812 C109.2196,111.1582 109.6436,110.7352 110.1656,110.7352" id="Fill-84" fill="#5D0F85"></path>
                    <path d="M110.1656,115.4066 C110.6866,115.4066 111.1106,115.8296 111.1106,116.3526 C111.1106,116.8746 110.6866,117.2976 110.1656,117.2976 C109.6436,117.2976 109.2196,116.8746 109.2196,116.3526 C109.2196,115.8296 109.6436,115.4066 110.1656,115.4066" id="Fill-86" fill="#5D0F85"></path>
                    <path d="M105.4937,106.0638 C106.0157,106.0638 106.4387,106.4868 106.4387,107.0098 C106.4387,107.5318 106.0157,107.9558 105.4937,107.9558 C104.9717,107.9558 104.5487,107.5318 104.5487,107.0098 C104.5487,106.4868 104.9717,106.0638 105.4937,106.0638" id="Fill-88" fill="#5D0F85"></path>
                    <path d="M105.4937,110.7352 C106.0157,110.7352 106.4387,111.1582 106.4387,111.6812 C106.4387,112.2032 106.0157,112.6262 105.4937,112.6262 C104.9717,112.6262 104.5487,112.2032 104.5487,111.6812 C104.5487,111.1582 104.9717,110.7352 105.4937,110.7352" id="Fill-90" fill="#5D0F85"></path>
                    <path d="M105.4937,115.4066 C106.0157,115.4066 106.4387,115.8296 106.4387,116.3526 C106.4387,116.8746 106.0157,117.2976 105.4937,117.2976 C104.9717,117.2976 104.5487,116.8746 104.5487,116.3526 C104.5487,115.8296 104.9717,115.4066 105.4937,115.4066" id="Fill-92" fill="#5D0F85"></path>
                    <path d="M100.8228,106.0638 C101.3438,106.0638 101.7678,106.4868 101.7678,107.0098 C101.7678,107.5318 101.3438,107.9558 100.8228,107.9558 C100.3008,107.9558 99.8768,107.5318 99.8768,107.0098 C99.8768,106.4868 100.3008,106.0638 100.8228,106.0638" id="Fill-94" fill="#5D0F85"></path>
                    <path d="M100.8228,110.7352 C101.3438,110.7352 101.7678,111.1582 101.7678,111.6812 C101.7678,112.2032 101.3438,112.6262 100.8228,112.6262 C100.3008,112.6262 99.8768,112.2032 99.8768,111.6812 C99.8768,111.1582 100.3008,110.7352 100.8228,110.7352" id="Fill-96" fill="#5D0F85"></path>
                    <path d="M100.8228,115.4066 C101.3438,115.4066 101.7678,115.8296 101.7678,116.3526 C101.7678,116.8746 101.3438,117.2976 100.8228,117.2976 C100.3008,117.2976 99.8768,116.8746 99.8768,116.3526 C99.8768,115.8296 100.3008,115.4066 100.8228,115.4066" id="Fill-98" fill="#5D0F85"></path>
                    <path d="M96.1695,106.0638 C96.6915,106.0638 97.1155,106.4868 97.1155,107.0098 C97.1155,107.5318 96.6915,107.9558 96.1695,107.9558 C95.6485,107.9558 95.2245,107.5318 95.2245,107.0098 C95.2245,106.4868 95.6485,106.0638 96.1695,106.0638" id="Fill-100" fill="#5D0F85"></path>
                    <path d="M96.1695,110.7352 C96.6915,110.7352 97.1155,111.1582 97.1155,111.6812 C97.1155,112.2032 96.6915,112.6262 96.1695,112.6262 C95.6485,112.6262 95.2245,112.2032 95.2245,111.6812 C95.2245,111.1582 95.6485,110.7352 96.1695,110.7352" id="Fill-102" fill="#5D0F85"></path>
                    <path d="M96.1695,115.4066 C96.6915,115.4066 97.1155,115.8296 97.1155,116.3526 C97.1155,116.8746 96.6915,117.2976 96.1695,117.2976 C95.6485,117.2976 95.2245,116.8746 95.2245,116.3526 C95.2245,115.8296 95.6485,115.4066 96.1695,115.4066" id="Fill-104" fill="#5D0F85"></path>
                    <path d="M91.4986,106.0638 C92.0206,106.0638 92.4436,106.4868 92.4436,107.0098 C92.4436,107.5318 92.0206,107.9558 91.4986,107.9558 C90.9766,107.9558 90.5536,107.5318 90.5536,107.0098 C90.5536,106.4868 90.9766,106.0638 91.4986,106.0638" id="Fill-106" fill="#5D0F85"></path>
                    <path d="M91.4986,110.7352 C92.0206,110.7352 92.4436,111.1582 92.4436,111.6812 C92.4436,112.2032 92.0206,112.6262 91.4986,112.6262 C90.9766,112.6262 90.5536,112.2032 90.5536,111.6812 C90.5536,111.1582 90.9766,110.7352 91.4986,110.7352" id="Fill-108" fill="#5D0F85"></path>
                    <path d="M91.4986,115.4066 C92.0206,115.4066 92.4436,115.8296 92.4436,116.3526 C92.4436,116.8746 92.0206,117.2976 91.4986,117.2976 C90.9766,117.2976 90.5536,116.8746 90.5536,116.3526 C90.5536,115.8296 90.9766,115.4066 91.4986,115.4066" id="Fill-110" fill="#5D0F85"></path>
                    <path d="M86.8277,106.0638 C87.3487,106.0638 87.7727,106.4868 87.7727,107.0098 C87.7727,107.5318 87.3487,107.9558 86.8277,107.9558 C86.3057,107.9558 85.8817,107.5318 85.8817,107.0098 C85.8817,106.4868 86.3057,106.0638 86.8277,106.0638" id="Fill-112" fill="#5D0F85"></path>
                    <path d="M86.8277,110.7352 C87.3487,110.7352 87.7727,111.1582 87.7727,111.6812 C87.7727,112.2032 87.3487,112.6262 86.8277,112.6262 C86.3057,112.6262 85.8817,112.2032 85.8817,111.6812 C85.8817,111.1582 86.3057,110.7352 86.8277,110.7352" id="Fill-114" fill="#5D0F85"></path>
                    <path d="M86.8277,115.4066 C87.3487,115.4066 87.7727,115.8296 87.7727,116.3526 C87.7727,116.8746 87.3487,117.2976 86.8277,117.2976 C86.3057,117.2976 85.8817,116.8746 85.8817,116.3526 C85.8817,115.8296 86.3057,115.4066 86.8277,115.4066" id="Fill-116" fill="#5D0F85"></path>
                    <path d="M82.1743,106.0638 C82.6963,106.0638 83.1203,106.4868 83.1203,107.0098 C83.1203,107.5318 82.6963,107.9558 82.1743,107.9558 C81.6533,107.9558 81.2293,107.5318 81.2293,107.0098 C81.2293,106.4868 81.6533,106.0638 82.1743,106.0638" id="Fill-118" fill="#5D0F85"></path>
                    <path d="M82.1743,110.7352 C82.6963,110.7352 83.1203,111.1582 83.1203,111.6812 C83.1203,112.2032 82.6963,112.6262 82.1743,112.6262 C81.6533,112.6262 81.2293,112.2032 81.2293,111.6812 C81.2293,111.1582 81.6533,110.7352 82.1743,110.7352" id="Fill-120" fill="#5D0F85"></path>
                    <path d="M82.1743,115.4066 C82.6963,115.4066 83.1203,115.8296 83.1203,116.3526 C83.1203,116.8746 82.6963,117.2976 82.1743,117.2976 C81.6533,117.2976 81.2293,116.8746 81.2293,116.3526 C81.2293,115.8296 81.6533,115.4066 82.1743,115.4066" id="Fill-122" fill="#5D0F85"></path>
                    <path d="M77.5034,106.0638 C78.0254,106.0638 78.4484,106.4868 78.4484,107.0098 C78.4484,107.5318 78.0254,107.9558 77.5034,107.9558 C76.9814,107.9558 76.5584,107.5318 76.5584,107.0098 C76.5584,106.4868 76.9814,106.0638 77.5034,106.0638" id="Fill-124" fill="#5D0F85"></path>
                    <path d="M77.5034,110.7352 C78.0254,110.7352 78.4484,111.1582 78.4484,111.6812 C78.4484,112.2032 78.0254,112.6262 77.5034,112.6262 C76.9814,112.6262 76.5584,112.2032 76.5584,111.6812 C76.5584,111.1582 76.9814,110.7352 77.5034,110.7352" id="Fill-126" fill="#5D0F85"></path>
                    <path d="M77.5034,115.4066 C78.0254,115.4066 78.4484,115.8296 78.4484,116.3526 C78.4484,116.8746 78.0254,117.2976 77.5034,117.2976 C76.9814,117.2976 76.5584,116.8746 76.5584,116.3526 C76.5584,115.8296 76.9814,115.4066 77.5034,115.4066" id="Fill-128" fill="#5D0F85"></path>
                    <path d="M72.8316,106.0638 C73.3536,106.0638 73.7776,106.4868 73.7776,107.0098 C73.7776,107.5318 73.3536,107.9558 72.8316,107.9558 C72.3106,107.9558 71.8866,107.5318 71.8866,107.0098 C71.8866,106.4868 72.3106,106.0638 72.8316,106.0638" id="Fill-130" fill="#5D0F85"></path>
                    <path d="M72.8316,110.7352 C73.3536,110.7352 73.7776,111.1582 73.7776,111.6812 C73.7776,112.2032 73.3536,112.6262 72.8316,112.6262 C72.3106,112.6262 71.8866,112.2032 71.8866,111.6812 C71.8866,111.1582 72.3106,110.7352 72.8316,110.7352" id="Fill-132" fill="#5D0F85"></path>
                    <path d="M72.8316,115.4066 C73.3536,115.4066 73.7776,115.8296 73.7776,116.3526 C73.7776,116.8746 73.3536,117.2976 72.8316,117.2976 C72.3106,117.2976 71.8866,116.8746 71.8866,116.3526 C71.8866,115.8296 72.3106,115.4066 72.8316,115.4066" id="Fill-134" fill="#5D0F85"></path>
                    <path d="M68.1792,106.0638 C68.7012,106.0638 69.1252,106.4868 69.1252,107.0098 C69.1252,107.5318 68.7012,107.9558 68.1792,107.9558 C67.6582,107.9558 67.2342,107.5318 67.2342,107.0098 C67.2342,106.4868 67.6582,106.0638 68.1792,106.0638" id="Fill-136" fill="#5D0F85"></path>
                    <path d="M68.1792,110.7352 C68.7012,110.7352 69.1252,111.1582 69.1252,111.6812 C69.1252,112.2032 68.7012,112.6262 68.1792,112.6262 C67.6582,112.6262 67.2342,112.2032 67.2342,111.6812 C67.2342,111.1582 67.6582,110.7352 68.1792,110.7352" id="Fill-138" fill="#5D0F85"></path>
                    <path d="M68.1792,115.4066 C68.7012,115.4066 69.1252,115.8296 69.1252,116.3526 C69.1252,116.8746 68.7012,117.2976 68.1792,117.2976 C67.6582,117.2976 67.2342,116.8746 67.2342,116.3526 C67.2342,115.8296 67.6582,115.4066 68.1792,115.4066" id="Fill-140" fill="#5D0F85"></path>
                    <path d="M63.5083,106.0638 C64.0303,106.0638 64.4533,106.4868 64.4533,107.0098 C64.4533,107.5318 64.0303,107.9558 63.5083,107.9558 C62.9863,107.9558 62.5633,107.5318 62.5633,107.0098 C62.5633,106.4868 62.9863,106.0638 63.5083,106.0638" id="Fill-142" fill="#5D0F85"></path>
                    <path d="M63.5083,110.7352 C64.0303,110.7352 64.4533,111.1582 64.4533,111.6812 C64.4533,112.2032 64.0303,112.6262 63.5083,112.6262 C62.9863,112.6262 62.5633,112.2032 62.5633,111.6812 C62.5633,111.1582 62.9863,110.7352 63.5083,110.7352" id="Fill-144" fill="#5D0F85"></path>
                    <path d="M63.5083,115.4066 C64.0303,115.4066 64.4533,115.8296 64.4533,116.3526 C64.4533,116.8746 64.0303,117.2976 63.5083,117.2976 C62.9863,117.2976 62.5633,116.8746 62.5633,116.3526 C62.5633,115.8296 62.9863,115.4066 63.5083,115.4066" id="Fill-146" fill="#5D0F85"></path>
                    <path d="M58.8365,106.0638 C59.3585,106.0638 59.7825,106.4868 59.7825,107.0098 C59.7825,107.5318 59.3585,107.9558 58.8365,107.9558 C58.3155,107.9558 57.8915,107.5318 57.8915,107.0098 C57.8915,106.4868 58.3155,106.0638 58.8365,106.0638" id="Fill-148" fill="#5D0F85"></path>
                    <path d="M58.8365,110.7352 C59.3585,110.7352 59.7825,111.1582 59.7825,111.6812 C59.7825,112.2032 59.3585,112.6262 58.8365,112.6262 C58.3155,112.6262 57.8915,112.2032 57.8915,111.6812 C57.8915,111.1582 58.3155,110.7352 58.8365,110.7352" id="Fill-150" fill="#5D0F85"></path>
                    <path d="M58.8365,115.4066 C59.3585,115.4066 59.7825,115.8296 59.7825,116.3526 C59.7825,116.8746 59.3585,117.2976 58.8365,117.2976 C58.3155,117.2976 57.8915,116.8746 57.8915,116.3526 C57.8915,115.8296 58.3155,115.4066 58.8365,115.4066" id="Fill-152" fill="#5D0F85"></path>
                    <path d="M54.1841,106.0638 C54.7061,106.0638 55.1301,106.4868 55.1301,107.0098 C55.1301,107.5318 54.7061,107.9558 54.1841,107.9558 C53.6631,107.9558 53.2391,107.5318 53.2391,107.0098 C53.2391,106.4868 53.6631,106.0638 54.1841,106.0638" id="Fill-154" fill="#5D0F85"></path>
                    <path d="M54.1841,110.7352 C54.7061,110.7352 55.1301,111.1582 55.1301,111.6812 C55.1301,112.2032 54.7061,112.6262 54.1841,112.6262 C53.6631,112.6262 53.2391,112.2032 53.2391,111.6812 C53.2391,111.1582 53.6631,110.7352 54.1841,110.7352" id="Fill-156" fill="#5D0F85"></path>
                    <path d="M49.5132,106.0638 C50.0352,106.0638 50.4582,106.4868 50.4582,107.0098 C50.4582,107.5318 50.0352,107.9558 49.5132,107.9558 C48.9912,107.9558 48.5682,107.5318 48.5682,107.0098 C48.5682,106.4868 48.9912,106.0638 49.5132,106.0638" id="Fill-158" fill="#5D0F85"></path>
                    <polygon id="Fill-160" fill="#5D0F85" points="56.8697 63.5677 111.7727 50.4237 124.8977 63.5677 124.8977 47.0197 111.7727 33.8937 56.8697 47.0197"></polygon>
                    <path d="M57.8159,47.7757 L57.8159,62.3577 L111.5449,49.5157 C111.8679,49.4407 112.2079,49.5347 112.4349,49.7617 L123.9529,61.2787 L123.9529,47.4167 L111.4699,34.9347 L57.8159,47.7757 Z M124.8979,64.5137 C124.6519,64.5137 124.4059,64.4187 124.2359,64.2297 L111.4889,51.4827 L57.0779,64.4757 C56.7949,64.5507 56.4919,64.4757 56.2649,64.3057 C56.0379,64.1347 55.9059,63.8517 55.9059,63.5677 L55.9059,47.0387 C55.9059,46.6037 56.2089,46.2247 56.6249,46.1117 L111.5269,32.9857 C111.8479,32.9107 112.1889,33.0047 112.4159,33.2327 L125.5409,46.3577 C125.7119,46.5277 125.8249,46.7737 125.8249,47.0197 L125.8249,63.5487 C125.8249,63.9267 125.5979,64.2677 125.2389,64.4187 C125.1439,64.4757 125.0109,64.5137 124.8979,64.5137 L124.8979,64.5137 Z" id="Fill-162" fill="#5D0F85"></path>
                    <mask id="mask-2" fill="white">
                        <use xlink:href="#path-1"></use>
                    </mask>
                    <g id="Clip-165"></g>
                    <polygon id="Fill-164" fill="#F6F5F2" mask="url(#mask-2)" points="43.726 104.91 111.753 104.91 111.753 37.298 43.726 37.298"></polygon>
                    <path d="M44.671,103.984 L110.808,103.984 L110.808,38.244 L44.671,38.244 L44.671,103.984 Z M111.773,105.875 L43.745,105.875 C43.215,105.875 42.799,105.459 42.799,104.929 L42.799,37.298 C42.799,36.769 43.215,36.353 43.745,36.353 L111.773,36.353 C112.302,36.353 112.718,36.769 112.718,37.298 L112.718,104.91 C112.718,105.44 112.284,105.875 111.773,105.875 L111.773,105.875 Z" id="Fill-166" fill="#5D0F85" mask="url(#mask-2)"></path>
                    <polygon id="Fill-167" fill="#5D0F85" mask="url(#mask-2)" points="43.726 50.424 111.753 50.424 111.753 33.894 43.726 33.894"></polygon>
                    <path d="M44.671,49.478 L110.808,49.478 L110.808,34.84 L44.671,34.84 L44.671,49.478 Z M111.773,51.369 L43.745,51.369 C43.215,51.369 42.799,50.953 42.799,50.424 L42.799,33.894 C42.799,33.365 43.215,32.949 43.745,32.949 L111.773,32.949 C112.302,32.949 112.718,33.365 112.718,33.894 L112.718,50.424 C112.718,50.953 112.284,51.369 111.773,51.369 L111.773,51.369 Z" id="Fill-168" fill="#5D0F85" mask="url(#mask-2)"></path>
                    <polygon id="Fill-169" fill="#8851FC" mask="url(#mask-2)" points="52.974 76.296 99.612 76.296 99.612 61.071 52.974 61.071"></polygon>
                    <polygon id="Fill-170" fill="#D636B5" mask="url(#mask-2)" points="61.996 88.839 81.996 88.839 81.996 75.839 61.996 75.839"></polygon>
                    <path d="M124.898,118.9998 C124.652,118.9998 124.406,118.9058 124.236,118.7158 L111.111,105.5908 C110.733,105.2128 110.733,104.6268 111.111,104.2488 C111.489,103.8698 112.076,103.8698 112.454,104.2488 L125.579,117.3738 C125.957,117.7518 125.957,118.3378 125.579,118.7158 C125.371,118.9058 125.144,118.9998 124.898,118.9998" id="Fill-171" fill="#5D0F85" mask="url(#mask-2)"></path>
                    <path d="M51.3297,87.4663 L11.7347,47.8723 L28.2647,31.3423 L67.8587,70.9373 L70.5997,86.1333 C71.0257,88.5433 68.9257,90.6443 66.5257,90.2073 L51.3297,87.4663 Z" id="Fill-172" fill="#F6ED29" mask="url(#mask-2)"></path>
                    <path d="M12.8014,47.8721 L51.6934,86.7631 L66.6644,89.4711 C67.5714,89.6311 68.4554,89.3651 69.1074,88.7141 C69.7574,88.0641 70.0244,87.1791 69.8644,86.2721 L67.1554,71.3001 L28.2644,32.4091 L12.8014,47.8721 Z M50.7964,87.9991 L11.2014,48.4051 C10.9044,48.1061 10.9044,47.6371 11.2014,47.3391 L27.7314,30.8101 C28.0304,30.5111 28.4984,30.5111 28.7974,30.8101 L68.3924,70.4041 C68.4984,70.5111 68.5734,70.6501 68.6054,70.8091 L71.3464,86.0061 C71.5914,87.3811 71.1544,88.7991 70.1724,89.7811 C69.1924,90.7621 67.7834,91.2091 66.3984,90.9541 L51.2014,88.2131 C51.0414,88.1811 50.9044,88.1061 50.7964,87.9991 L50.7964,87.9991 Z" id="Fill-173" fill="#5D0F85" mask="url(#mask-2)"></path>
                    <path d="M29.8532,32.6758 C34.4532,37.2758 34.4532,44.7338 29.8532,49.3328 C25.2532,53.9328 17.7952,53.9328 13.1962,49.3328 C8.5962,44.7328 8.5962,37.2758 13.1962,32.6758 C17.7952,28.0758 25.2532,28.0758 29.8532,32.6758" id="Fill-174" fill="#F6ED29" mask="url(#mask-2)"></path>
                    <path d="M29.32,33.209 C25.022,28.912 18.027,28.912 13.729,33.209 C9.432,37.507 9.432,44.502 13.729,48.8 C18.027,53.097 25.022,53.097 29.32,48.8 C33.618,44.502 33.618,37.507 29.32,33.209 M12.663,49.866 C7.779,44.982 7.779,37.027 12.663,32.143 C17.548,27.259 25.503,27.259 30.386,32.143 C35.27,37.027 35.27,44.982 30.386,49.866 C25.492,54.761 17.548,54.75 12.663,49.866" id="Fill-175" fill="#5D0F85" mask="url(#mask-2)"></path>
                    <path d="M25.5241,37.0054 C27.7321,39.2134 27.7321,42.7954 25.5241,45.0034 C23.3151,47.2124 19.7341,47.2124 17.5261,45.0034 C15.3171,42.7954 15.3171,39.2134 17.5261,37.0054 C19.7341,34.7974 23.3151,34.7974 25.5241,37.0054" id="Fill-176" fill="#5D0F85" mask="url(#mask-2)"></path>
                    <path d="M24.9909,37.5386 C23.0819,35.6296 19.9679,35.6296 18.0589,37.5386 C16.1499,39.4476 16.1499,42.5616 18.0589,44.4706 C19.9679,46.3786 23.0819,46.3786 24.9909,44.4706 C26.8989,42.5616 26.8989,39.4476 24.9909,37.5386 M16.9929,45.5366 C14.4979,43.0406 14.4979,38.9676 16.9929,36.4726 C19.4879,33.9766 23.5609,33.9766 26.0569,36.4726 C28.5529,38.9676 28.5529,43.0406 26.0569,45.5366 C23.5509,48.0426 19.4879,48.0316 16.9929,45.5366" id="Fill-177" fill="#5D0F85" mask="url(#mask-2)"></path>
                    <path d="M50.7223,87.6695 C48.1733,85.1205 48.1843,80.9725 50.7333,78.4235 C52.0233,77.1335 53.8263,76.4615 55.7983,76.5145 C56.2883,76.5365 56.6293,76.4505 56.8003,76.2805 C57.0033,76.0775 57.0343,75.6405 57.0243,75.3315 C56.9503,73.3365 57.6323,71.5245 58.9333,70.2235 C61.4823,67.6745 65.6303,67.6645 68.1783,70.2125 C68.4773,70.5115 68.4773,70.9805 68.1783,71.2785 C67.8803,71.5775 67.4103,71.5775 67.1123,71.2785 C65.1503,69.3165 61.9613,69.3275 59.9993,71.2895 C58.9973,72.2925 58.4753,73.7105 58.5383,75.2675 C58.5713,76.1735 58.3473,76.8665 57.8773,77.3365 C57.3983,77.8155 56.7043,78.0395 55.7553,78.0075 C54.1993,77.9655 52.7903,78.4775 51.7993,79.4685 C49.8373,81.4305 49.8263,84.6195 51.7883,86.5815 C52.0873,86.8795 52.0873,87.3495 51.7883,87.6485 C51.4903,87.9465 51.0213,87.9675 50.7223,87.6695" id="Fill-178" fill="#5D0F85" mask="url(#mask-2)"></path>
                    <path d="M69.8746,82.1241 L62.5056,89.4931 L66.1746,90.2391 C68.8826,90.7931 71.2606,88.3731 70.6526,85.6751 L69.8746,82.1241 Z" id="Fill-179" fill="#5D0F85" mask="url(#mask-2)"></path>
                    <path d="M69.4371,83.6275 L64.0311,89.0345 L66.3331,89.5035 C67.3581,89.7165 68.4031,89.3965 69.1271,88.6505 C69.8531,87.9035 70.1521,86.8585 69.9271,85.8455 L69.4371,83.6275 Z M61.9721,90.0255 C61.8871,89.9405 61.8231,89.8345 61.7811,89.7065 C61.7061,89.4395 61.7811,89.1515 61.9721,88.9595 L69.3411,81.5905 C69.5331,81.3985 69.8211,81.3245 70.0871,81.3985 C70.3541,81.4735 70.5571,81.6975 70.6101,81.9635 L71.3991,85.5255 C71.7411,87.0405 71.2821,88.6075 70.1941,89.7165 C69.1071,90.8255 67.5491,91.2945 66.0251,90.9855 L62.3451,90.2285 C62.2071,90.1965 62.0691,90.1225 61.9721,90.0255 L61.9721,90.0255 Z" id="Fill-180" fill="#5D0F85" mask="url(#mask-2)"></path>
                    <path d="M58.9332,71.2896 L32.3372,44.6936 C32.0392,44.3956 32.0392,43.9266 32.3372,43.6276 C32.6362,43.3296 33.1062,43.3296 33.4042,43.6276 L59.9992,70.2236 C60.2982,70.5216 60.2982,70.9916 59.9992,71.2896 C59.7012,71.5886 59.2322,71.5886 58.9332,71.2896" id="Fill-181" fill="#5D0F85" mask="url(#mask-2)"></path>
                    <path d="M50.733,79.4903 L24.137,52.8943 C23.838,52.5953 23.838,52.1273 24.137,51.8283 C24.436,51.5303 24.905,51.5303 25.204,51.8283 L51.799,78.4243 C52.098,78.7223 52.098,79.1913 51.799,79.4903 C51.501,79.7883 51.032,79.7883 50.733,79.4903" id="Fill-182" fill="#5D0F85" mask="url(#mask-2)"></path>
                </g>
            </g>
        </g>
    </g>
</svg>